<svg height="57" viewBox="0 0 90 57" width="90" xmlns="http://www.w3.org/2000/svg"><g fill="none" fill-rule="evenodd"><path d="m70.8014391 24.4235424c4.6039484-1.2630553 9.7910701-1.5764944 14.1927675.5495978 2.8056089 1.3016126 4.9945019 4.1555757 4.8304428 7.346989.09631 2.0296162-1.1039114 3.7940479-2.6515129 4.9896199.0073063-.1402805-10.678118.2100221-20.1307749 2.1778007-9.3882288 1.9543616-17.5377122 5.5222472-19.3393727 6.5479816-.1012915.2555203-1.2952029.7761586-1.3964944 1.0364944l-.0431735.1253358c-7.8050922 3.7603063-15.8270811 7.5061329-24.4901955 8.7113358 7.0915018-2.8780738 12.9439594-8.007476 18.9075387-12.6837232 6.2863838-5.2595867 12.6451661-10.8367971 19.6834317-15.074369 0 0 6.6819189-2.7001993 10.4373432-3.7270628z" fill="#5a626f"/><g fill="#464d58"><path d="m69.0323247 34.5714908c6.0402952-.8773838 12.7268635-1.8174687 18.1939484 1.6198007-.0146126.279631-.038524.8388598-.0531366 1.1184576-2.9600369 1.3594981-6.2767527 1.0557896-9.4343911 1.3450184-10.9192251.6218967-21.6458303 3.9262915-31.5142805 8.5639484.1012916-.2603026.3809226-.9276642.4822141-1.1831845 3.6156088-2.0585093 6.4936162-5.1535129 10.1384502-7.1541698 3.7650553-2.1452878 7.8821402-3.7120848 12.1871955-4.3098708z"/><path d="m4.49508487 26.5447196c2.73344281-2.8780406 6.53230623-5.0041661 10.57702583-5.0088155 1.451059-.038524 2.8973358 0 4.348428.0239114-.1157048.472583.108.9454982-.0005313 1.427048-1.0252694 4.5485535-1.0565867 6.3771808-1.7798413 10.828262-.3892251 2.3953948.0244095 5.2417527 2.1070295 6.6783985 3.9916826 2.8828561 8.9664243 3.647524 13.8115129 2.9822546 2.4296679-.298893 8.2431365-2.0907897 7.1219557-.2508044-5.9635793 4.6762472-11.8160369 9.8056494-18.9075387 12.6837232-2.5116975.5158229-5.1149558.3904871-7.6652104.3953026-3.4758597.0096642-6.68653503-1.8608413-9.02467525-4.3195018-6.45997417-6.739572-6.87938745-18.4543174-.58815498-25.4397786z"/><path d="m41.0904797.04915129c7.3856458-.07704797 15.1133579.23612546 21.8095572 3.71225092 3.3070849 1.72095941 5.0522878 5.29804428 5.9297048 8.76918819.9448339 3.9048709 1.7016974 7.8771587 1.9716974 11.892952-3.7554243 1.0268635-11.5465683 4.5904318-15.1575277 6.0222288-8.5666051 3.5192657-13.7175276 3.6872103-22.8725203 4.5694428-5.3415498.2699668-10.7147158-1.2200812-15.2222214-4.0933395.4483395-2.3863284 1.0759152-5.5534317 1.5387344-7.935011.1060405-.481882.2169298-.954465.3326346-1.427048 1.1570148-4.8208118 2.3766975-9.6223616 3.7313469-14.3900369.6508229-2.40110701 2.0488782-4.77763838 4.4255757-5.79487085 4.2327232-1.92819188 9.00538-1.23409594 13.5130184-1.32575646z"/></g><path d="m55.7312546 5.47738007c2.709631-.40981549 5.8045019-.49649446 8.1378598 1.17630997 1.9042804 1.36926199 2.5502214 3.74579336 3.1141328 5.89616236.4244281 2.6176384.3859041 5.5487823-1.1763099 7.8193727-1.1713284 1.4848339-3.2396679 1.3931734-4.9413653 1.3689299-3.3313285-.115572-6.6815868.2460885-9.9886716-.2215129-3.5578229-.520738-6.8552768-3.1672694-7.6895203-6.7250923-.3905535-1.388524.4098155-2.757786 1.2005535-3.8374539 3.2154243-2.78169738 7.1973432-4.58966786 11.343321-5.47671583z" fill="#4b525d"/><path d="m39.3549077 5.98383764c1.118524-.17867159 2.391144-.48221402 3.4611809.02391144 1.0268634.91129151 0 2.06335793-.617048 2.84911439-3.4708118 3.87597783-3.0756089 9.42974173-4.1602583 14.20704793-.7037269 2.8107233-1.6150185 6.1322879-4.4930258 7.4532288-2.9793654 1.3257233-6.8697897 1.2534244-9.3959336-1.0027527-1.3112768-1.1280886-3.0757417-2.4875536-2.7286273-4.4448377.4194133-3.3602878 1.3160922-6.6334981 2.0488782-9.930952.742417-2.7046495 1.1811255-5.56339485 2.5743321-8.03158673 1.031679-1.49944649 2.9841476-.36166052 4.3870185-.20723247 2.998428.94948339 6.0019704-.30387454 8.9234833-.91594096z" fill="#5a626f"/><path d="m9.84145018 26.5977565c2.81055722-1.7885425 5.93930262-3.1287454 9.24645392-3.610893-.4628192 2.3815793-.9593801 4.7534612-1.4077196 7.1397896-.2265609 1.4703543-.4676015 2.9407417-.6604539 4.4159115-3.0467823-.2458561-6.0694871.9738265-8.36422137 2.9359262-1.64872694 1.5475018-2.7478893 3.5722693-4.28094465 5.2306605-1.38839115-1.9669483-.63152768-4.391834-.31333949-6.5612325.69419557-3.7072694 2.46829152-7.5060996 5.78022509-9.5501623z" fill="#3e444d"/><path d="m32.9238266 34.2099299c9.1549926-.8822325 18.3868007-2.2031402 26.9534059-5.7223727l.4868634-.0048487c-7.0382656 4.2375719-13.3970479 9.482679-19.6834317 14.7422657-2.4346494.298893-4.8400738.7568634-7.2700738 1.0557564-4.8448561.6653026-10.0417749-.3760074-14.0334576-3.2588967-2.0826199-1.4366125-2.7430738-4.0832767-2.3574022-6.4792693.1928524-1.4751698.433893-2.9455572.6604539-4.4159115 4.5075387 2.8732251 9.9020923 4.3532436 15.2436421 4.0832768" fill="#717d90"/><path d="m18.4997491 32.6768745c3.1431919 1.7258746 6.4117527 3.4517491 10.0515387 3.7747528 4.6232104.578524 9.1211845-.8773838 13.6381218-1.586059-.8000369 1.8126531-2.4054244 3.0371513-3.8952399 4.2472029-5.0137638 4.1845019-12.9584059 4.0687971-18.0299889.0530037-1.8801365-1.576428-1.7355055-4.2712804-1.7644317-6.4889004z" fill="#8696af"/></g></svg>