<svg height="51" viewBox="0 0 149 51" width="149" xmlns="http://www.w3.org/2000/svg"><g fill="none" fill-rule="evenodd"><g><g fill="#14506a"><path d="m90.32 8.6v22.4h-5.12v-13.024l-5.792 9.504h-.576l-5.792-9.504v13.024h-5.12v-22.4h5.12l6.08 9.952 6.08-9.952z"/><path d="m99.28 26.072h8.96v4.928h-14.08v-22.4h13.92v4.928h-8.8v3.712h8v4.864h-8z"/><path d="m116.944 26.072h8.736v4.928h-15.36v-3.968l8.576-13.504h-8.416v-4.928h15.04v3.968z"/><path d="m140.784 8.6 7.616 22.4h-5.6l-1.12-3.52h-8.32l-1.12 3.52h-5.6l7.616-22.4zm-3.264 5.856-2.624 8.224h5.248z"/></g><path d="m69.939 47.169c-1.794 0-3.029-.884-3.51-2.236l1.287-.754c.325.923 1.027 1.534 2.262 1.534 1.183 0 1.69-.533 1.69-1.196 0-.806-.715-1.079-2.067-1.495-1.417-.429-2.795-.949-2.795-2.665 0-1.677 1.391-2.626 2.925-2.626 1.495 0 2.6.793 3.172 2.002l-1.261.728c-.325-.728-.897-1.274-1.911-1.274-.871 0-1.43.442-1.43 1.131 0 .702.507 1.001 1.833 1.417 1.508.481 3.029.949 3.029 2.756 0 1.664-1.326 2.678-3.224 2.678zm10.101-9.269v1.43h-2.561v7.67h-1.495v-7.67h-2.574v-1.43zm4.849 9.269c-2.626 0-4.719-2.08-4.719-4.719s2.093-4.719 4.719-4.719c2.639 0 4.719 2.08 4.719 4.719s-2.08 4.719-4.719 4.719zm0-1.456c1.82 0 3.224-1.391 3.224-3.263s-1.404-3.263-3.224-3.263-3.224 1.391-3.224 3.263 1.404 3.263 3.224 3.263zm11.271 1.287-1.924-3.315h-1.768v3.315h-1.495v-9.1h3.64c1.625 0 2.925 1.3 2.925 2.925 0 1.17-.741 2.21-1.807 2.639l2.067 3.536zm-3.692-7.696v3.042h2.145c.793 0 1.43-.676 1.43-1.521 0-.858-.637-1.521-1.43-1.521zm7.969 6.266h4.03v1.43h-5.525v-9.1h5.46v1.43h-3.965v2.366h3.64v1.417h-3.64zm14.56-7.67v1.43h-2.561v7.67h-1.495v-7.67h-2.574v-1.43zm6.5 0h1.495v9.1h-1.495v-3.939h-3.9v3.939h-1.495v-9.1h1.495v3.731h3.9zm4.81 7.67h4.03v1.43h-5.525v-9.1h5.46v1.43h-3.965v2.366h3.64v1.417h-3.64zm14.105-7.67v9.1h-1.495v-6.487l-2.769 4.576h-.182l-2.769-4.589v6.5h-1.495v-9.1h1.612l2.743 4.55 2.756-4.55zm3.315 7.67h4.03v1.43h-5.525v-9.1h5.46v1.43h-3.965v2.366h3.64v1.417h-3.64z" fill="#79929d"/></g><g><path d="m7.90625 13.65625 4.3125 4.3125-3.59375 3.59375 12.21875 12.21875-4.3125 4.3125-16.53125-16.53125zm28.03125 2.15625 5.75 5.75-12.9375 12.9375-12.9375-12.9375 5.75-5.75 7.1875 7.1875zm13.65625-2.15625 7.90625 7.90625-7.90625 7.90625-4.3125-4.3125 3.59375-3.59375-3.59375-3.59375zm-13.65625-13.65625 11.5 11.5-4.3125 4.3125-7.1875-7.1875-7.2234375 7.1875-7.1515625-7.1875-7.1875 7.1875-4.3125-4.3125 11.5-11.5 7.1875 7.1875z" fill="#14506a"/><path d="m28.75 50.3125-10.0625-10.0625 4.3125-4.3125 5.75 5.75 14.375-14.375 4.3125 4.3125z" fill="#49a7d0"/></g></g></svg>