<svg xmlns="http://www.w3.org/2000/svg" width="42" height="50" viewBox="0 0 42 50"><path fill="#1a1a1a" d="M35.425 30.477c2.136 4.38 4.267 8.761 6.405 13.141.132.26.235.566.12.853-.153.509-.786.795-1.266.553-2.292-1.007-4.573-2.039-6.863-3.049-.593 2.444-1.196 4.884-1.793 7.326-.106.541-.745.87-1.247.652-.422-.15-.567-.608-.756-.967-1.922-3.871-3.85-7.738-5.777-11.605.557-.278 1.118-.549 1.674-.832 1.64 3.269 3.254 6.55 4.897 9.818.488-1.964.96-3.934 1.45-5.897.101-.553.732-.88 1.251-.688 1.85.84 3.71 1.664 5.57 2.486-1.776-3.661-3.57-7.313-5.342-10.976.558-.272 1.116-.546 1.677-.815zm-28.85-.004c.561.276 1.123.548 1.688.816-1.79 3.657-3.566 7.32-5.352 10.98 1.869-.817 3.72-1.672 5.593-2.479.525-.22 1.117.153 1.248.682.448 1.969.95 3.928 1.43 5.891 1.646-3.263 3.257-6.545 4.895-9.813.557.278 1.116.55 1.671.833l-5.81 11.676c-.172.337-.317.755-.71.891-.503.219-1.136-.109-1.253-.644-.6-2.442-1.2-4.886-1.795-7.33-2.083.928-4.17 1.846-6.246 2.784-.295.125-.579.285-.896.342-.598.086-1.172-.533-1.01-1.121.114-.365.315-.694.475-1.039 2.021-4.158 4.052-8.311 6.073-12.47zM23.143.523c.93.64 1.824 1.332 2.776 1.94 1.366.83 3.006.8 4.536 1.042 1.345.059 2.589 1.002 3.07 2.246.297 1.056.552 2.125.84 3.184a5.91 5.91 0 0 0 1.256 2.186c.628.698 1.276 1.38 1.906 2.078.648.694.866 1.691.815 2.616-.026.655-.382 1.223-.646 1.804-.592 1.287-1.368 2.562-1.383 4.024.02 1.034.085 2.066.13 3.1.09.979-.37 1.933-1.027 2.635-.518.578-1.291.787-1.963 1.127-.774.388-1.61.661-2.324 1.161-1.185.8-1.892 2.077-2.78 3.16-.722 1.14-2.163 1.735-3.48 1.534-.92-.24-1.838-.498-2.753-.754a5.857 5.857 0 0 0-2.986-.112c-.586.132-1.169.27-1.754.394-.687.14-1.381.388-2.089.237-.88-.174-1.765-.603-2.278-1.365-.548-.785-1.082-1.58-1.634-2.362-.561-.796-1.337-1.432-2.205-1.867-.719-.362-1.426-.747-2.146-1.108-1.154-.538-1.902-1.793-1.946-3.048.07-.974.183-1.944.265-2.918.133-1.064-.066-2.156-.501-3.13-.29-.67-.559-1.348-.843-2.02-.707-1.38-.312-3.225.883-4.21 1.052-1.1 2.348-2.049 2.947-3.498.376-.964.637-1.968.954-2.953.38-1.492 1.862-2.623 3.403-2.592 1.347-.158 2.755-.06 4.03-.59.85-.335 1.568-.915 2.346-1.38.574-.334 1.094-.79 1.748-.962.943-.23 2.013-.155 2.833.402zM20.923 1.85c-.783.375-1.472.923-2.217 1.369a8.895 8.895 0 0 1-3.655 1.475c-1.112.11-2.23.165-3.34.285-.479.048-.89.414-1.023.87-.267.844-.536 1.689-.8 2.535a8.279 8.279 0 0 1-2.115 3.5c-.644.638-1.297 1.27-1.936 1.913-.329.315-.473.813-.325 1.248.542 1.518 1.389 2.943 1.628 4.556.284 1.631-.129 3.266-.195 4.897-.005.396.184.799.516 1.022 1.447.859 3.099 1.417 4.343 2.587 1.209 1.069 1.925 2.548 2.911 3.8.259.311.683.473 1.082.407 1.61-.273 3.18-.887 4.835-.805 1.672.008 3.216.744 4.835 1.057.43.05.858-.165 1.113-.506.56-.723 1.11-1.453 1.667-2.178a8.265 8.265 0 0 1 2.697-2.27c.975-.493 1.988-.902 2.969-1.382.455-.22.714-.738.666-1.236-.037-1.074-.112-2.146-.137-3.221.05-1.159.298-2.324.81-3.371.388-.818.782-1.633 1.166-2.452a1.272 1.272 0 0 0-.221-1.432l-1.957-2.13a8.378 8.378 0 0 1-1.855-3.615c-.206-.796-.414-1.59-.622-2.385a1.261 1.261 0 0 0-1.06-.96c-1.156-.17-2.322-.276-3.474-.476-1.022-.262-2.02-.669-2.887-1.283-.783-.546-1.55-1.114-2.338-1.653a1.22 1.22 0 0 0-1.08-.166zm6.161 6.631c2.123 1.474 3.728 3.701 4.392 6.204.591 2.091.451 4.367-.33 6.39-1.08 2.86-3.402 5.222-6.24 6.36-2.085.855-4.46 1.021-6.63.396-2.658-.714-4.996-2.492-6.454-4.82-1.296-2.052-1.902-4.554-1.574-6.967.337-2.53 1.616-4.906 3.498-6.622a10.95 10.95 0 0 1 6.08-2.825c2.544-.305 5.167.421 7.258 1.884zm-7.885.093c-2.404.45-4.605 1.93-5.86 4.04-2.152 3.502-1.602 8.474 1.436 11.296 2.844 2.748 7.534 3.185 10.906 1.169a8.672 8.672 0 0 0 3.905-5.052 9.53 9.53 0 0 0-.16-5.807c-.736-2.1-2.314-3.891-4.316-4.867-1.81-.91-3.926-1.146-5.911-.779zm2.547 4.276a.966.966 0 0 1 .634.975c-.004 2.61.008 5.22-.006 7.83-.001.598-.685 1.049-1.238.823-.396-.13-.653-.544-.63-.956.007-1.947 0-3.893.003-5.84-.544.36-.974.933-1.61 1.13-.806.175-1.428-.89-.878-1.503.851-.764 1.787-1.433 2.667-2.166.283-.25.678-.448 1.058-.293z"/></svg>