<?xml version="1.0" encoding="UTF-8"?>
<svg width="100px" height="88px" viewBox="0 0 100 88" version="1.1" xmlns="http://www.w3.org/2000/svg" xmlns:xlink="http://www.w3.org/1999/xlink">
    <title>Group 6</title>
    <g id="Home-Page-1" stroke="none" stroke-width="1" fill="none" fill-rule="evenodd">
        <g id="Artboard-Copy-28" transform="translate(-650.000000, -397.000000)">
            <g id="Group-6" transform="translate(650.000000, 397.000000)">
                <path d="M13.6314655,23.5452586 L21.0668103,30.9806034 L14.8706897,37.1767241 L35.9375,58.2435345 L28.5021552,65.6788793 L0,37.1767241 L13.6314655,23.5452586 Z M61.9612069,27.262931 L71.875,37.1767241 L49.5689655,59.4827586 L27.262931,37.1767241 L37.1767241,27.262931 L49.5689655,39.6551724 L61.9612069,27.262931 Z M85.5064655,23.5452586 L99.137931,37.1767241 L85.5064655,50.8081897 L78.0711207,43.3728448 L84.2672414,37.1767241 L78.0711207,30.9806034 L85.5064655,23.5452586 Z M61.9612069,0 L81.7887931,19.8275862 L74.3534483,27.262931 L61.9612069,14.8706897 L49.5070043,27.262931 L37.1767241,14.8706897 L24.7844828,27.262931 L17.3491379,19.8275862 L37.1767241,0 L49.5689655,12.3922414 L61.9612069,0 Z" id="Combined-Shape" fill="#14506A"></path>
                <polygon id="Fill-5" fill="#49A7D0" points="49.5689655 86.7456897 32.2198276 69.3965517 39.6551724 61.9612069 49.5689655 71.875 74.3534483 47.0905172 81.7887931 54.5258621"></polygon>
            </g>
        </g>
    </g>
</svg>