<svg xmlns="http://www.w3.org/2000/svg" width="48" height="48" viewBox="0 0 48 48"><path fill="#1a1a1a" d="M9.284 10.144c.496.537.728 1.243 1.012 1.902.817 1.897 1.615 3.802 2.44 5.694.453 1.046.26 2.315-.458 3.194-.749.925-1.5 1.85-2.274 2.756a50.521 50.521 0 0 0 3.647 5.966c1.204 1.853 2.603 3.57 4.021 5.262 1.205-.37 2.388-.813 3.598-1.168 1.01-.278 2.128.01 2.901.71 1.733 1.706 3.482 3.397 5.221 5.098.368.383.725.804.899 1.315.218.625.105 1.367-.323 1.877-.851 1.037-1.86 1.928-2.867 2.81-.608.525-1.176 1.122-1.917 1.46-.853.434-1.846.694-2.792.422-1.666-.545-3.226-1.383-4.674-2.366-4.055-2.803-7.27-6.64-10.03-10.687-1.983-2.804-3.829-5.724-5.226-8.868C1.005 22.247-.095 18.714.007 15.095c.016-.896.454-1.729 1.034-2.391.542-.61 1.261-1.014 1.955-1.426 1.225-.701 2.463-1.414 3.817-1.836.868-.288 1.879.01 2.47.702zm-2.262 1.15c-1.337.491-2.52 1.304-3.74 2.026-.573.365-1.221.819-1.362 1.531-.15 2.46.396 4.908 1.191 7.224 1.094 3.14 2.692 6.077 4.504 8.854 1.876 2.774 3.756 5.568 6.035 8.034 2.016 2.205 4.29 4.218 6.927 5.648.764.394 1.551.754 2.372 1.012.88.187 1.663-.396 2.294-.935 1.013-.87 2.038-1.728 2.992-2.663.262-.214.358-.653.058-.88-1.782-1.775-3.603-3.51-5.392-5.277-.34-.372-.905-.39-1.354-.23-1.284.426-2.57.851-3.853 1.273-.379.144-.835.03-1.076-.299-.897-1.075-1.804-2.14-2.644-3.262-.969-1.19-1.78-2.493-2.669-3.74-1.183-1.787-2.248-3.65-3.272-5.53-.187-.322-.173-.753.068-1.043.876-1.095 1.79-2.157 2.668-3.247.272-.337.433-.812.259-1.23-.98-2.247-1.925-4.508-2.897-6.758-.1-.213-.21-.445-.427-.562a1.3 1.3 0 0 0-.682.054zm26.34 23.291c.576 1.383 1.123 2.776 1.697 4.158.108.28.253.554.279.86a.955.955 0 0 1-.741.942c-.436.106-.931-.146-1.085-.571-.633-1.556-1.269-3.11-1.895-4.67-.233-.477.038-1.096.533-1.269.468-.182 1.046.074 1.213.55zm4.742-3.622c1.197 1.191 2.39 2.389 3.586 3.582.37.348.37.994.001 1.343-.35.367-.995.366-1.342-.003-1.153-1.153-2.303-2.309-3.46-3.456-.577-.407-.5-1.39.168-1.657.344-.155.784-.088 1.047.19zm3.042-4.928l4.516 1.907c.492.172.752.79.53 1.264-.195.48-.808.708-1.272.478-1.563-.661-3.13-1.31-4.688-1.988-.723-.308-.67-1.47.072-1.722.274-.128.578-.057.842.06zm-8.34-10.905c-.045 2.258-.007 4.519-.021 6.78.685.02 1.37.002 2.055.008.002.632 0 1.264.003 1.896-.68-.007-1.358 0-2.037-.006-.051.907-.004 1.816-.021 2.724h-1.893c-.016-.908.028-1.818-.022-2.725-1.27.011-2.538.002-3.808.005-.712.065-1.26-.802-.873-1.411l4.667-7.524c.188-.338.452-.697.873-.727.57-.09 1.068.429 1.077.98zm-10.76-.967c1.998.094 3.771 2.08 3.457 4.096-.197 1.188-.92 2.236-1.833 2.995-1.135.962-2.292 1.974-2.99 3.313 1.571.018 3.142.001 4.712.009 0 .63.007 1.26 0 1.89h-7.064c.093-.806.145-1.636.498-2.381.705-1.535 1.897-2.784 3.16-3.877.602-.534 1.312-1.047 1.572-1.845.212-.733.058-1.7-.671-2.09-.738-.365-1.793-.31-2.326.38-.372.485-.325 1.129-.318 1.704-.633-.001-1.266.005-1.9-.006-.058-.882.105-1.806.646-2.526.694-.975 1.828-1.705 3.056-1.662zm24.87 5.92c.497-.014.941.437.938.93.013.5-.427.964-.93.957l-2.518.002h-2.518a.948.948 0 0 1-.466-1.8c.225-.11.481-.088.725-.096 1.59.009 3.18-.007 4.769.008zm-16.027-1.672c-.723 1.171-1.45 2.339-2.175 3.507.726-.005 1.45.01 2.177-.007-.002-1.166.005-2.334-.002-3.5zM46.3 13.104c.206.464-.045 1.064-.528 1.236a678.783 678.783 0 0 1-4.649 1.89c-.457.224-1.063 0-1.254-.473-.23-.476.03-1.095.527-1.269 1.605-.648 3.201-1.33 4.82-1.942a.93.93 0 0 1 1.084.558zm-4.452-6.742c.219.355.14.843-.156 1.13-1.123 1.14-2.264 2.262-3.389 3.4-.192.189-.393.398-.67.45-.493.123-1.03-.248-1.12-.743-.08-.344.074-.696.327-.93 1.13-1.13 2.263-2.26 3.391-3.395.13-.122.26-.255.431-.321a.956.956 0 0 1 1.186.41zm-28.5-.156c1.175 1.171 2.348 2.346 3.52 3.52.356.325.397.924.08 1.29-.339.434-1.052.455-1.42.044-1.132-1.125-2.256-2.26-3.388-3.386-.211-.21-.443-.449-.453-.765-.046-.459.293-.909.74-1.008.338-.09.69.054.922.305zm22.173-3.353c-.62 1.504-1.276 2.993-1.89 4.5-.104.25-.224.517-.47.655-.48.316-1.202.063-1.384-.481-.124-.269-.053-.565.062-.824.635-1.477 1.254-2.962 1.876-4.445.116-.306.361-.578.69-.652.697-.2 1.403.573 1.117 1.247zm-15.386-.798c.643 1.542 1.255 3.097 1.894 4.641.148.325.122.725-.106 1.008-.298.402-.932.486-1.323.172-.199-.148-.294-.384-.387-.604-.602-1.493-1.211-2.982-1.813-4.473-.248-.524.114-1.204.685-1.3.427-.105.89.152 1.05.556zM27.771.897c.006 1.723.008 3.447 0 5.169 0 .657-.807 1.13-1.376.793a.959.959 0 0 1-.512-.804V5.93 1.024c-.026-.4.208-.809.59-.95.567-.258 1.298.199 1.298.823z"/></svg>