<svg height="78" viewBox="0 0 90 78" width="90" xmlns="http://www.w3.org/2000/svg"><g fill="none" fill-rule="evenodd" transform="matrix(-1 0 0 1 90 0)"><path d="m8.14495775 72.6732676c.75059155-.0069296 1.51601408-.146831 2.24809855-.3107746.0716198.9237887.5943803 3.0623662-.2324366 3.7713802-.97457745.6327888-2.16857745.3186761-3.25402815.3510423-.42494366-.0092535-.95843662-.1709155-1.07159155-.6374366-.21016901-.7367324-.01685915-2.4021972-.04690141-3.1573944.85221127.0277183 1.50469014.0016479 2.35685916-.0168169z" fill="#3c3c3c"/><path d="m35.8763662 40.2582676c.2147746-.4157324 1.5615211-.5091549 2.3449014.738169 1.4387747 2.2909859 3.0344366 4.4291409 4.6901409 6.5631127 1.7277464 2.0253803 4.3419718 4.8689155 5.934507 6.1959718 2.8660563 2.388 4.9795775 2.9288028 8.0146479 3.1976197.9908451.0877606 3.3967605.2511972 4.3947887.1519015.7943662-.0485071 5.1380282.1212676 5.9209859.3822676-2.0509859.6166056-6.7284507 3.1322535-10.4019718 2.4465211-1.9491549-.0438592-3.3278873-.2604085-5.1266197-1.0086761-2.8432395-1.1593521-6.8733803-4.1384788-8.31-6.4151408-1.5727183-1.7159578-2.5832535-3.7122676-3.8118592-5.675324-1.1200986-1.7898591-3.4050845-4.8886056-3.6495211-6.5764225z" fill="#3e444d"/><path d="m28.0960563 23.1523944c.0276761-.1432395.5033662-.4297183.5310423-.5725352 3.8845352 6.6532394 7.164 13.6764507 11.6374225 19.9743802 2.127169 3 4.2030845 6.0646479 6.7573099 8.7297888 1.8384507 1.8660422 3.9633803 3.5565633 6.4897183 4.3694788 2.6260563.8268169 5.4109859.695155 8.1295775.7829155 1.4754929.0877606 2.9514084-.0854366 4.4176056-.2032394.1825352.0184648.9802817-.0550563 1.1628169-.0365916-.8361972.9099296-2.1671831 1.5526057-3.3152113 1.9244367-.7825352-.2609578-1.932676-.1234226-2.7274648-.0749155-.9976056.0992958-1.9952112-.0069296-2.9860563-.0946902-3.7111268-.1963098-7.3973239-1.5196056-10.2633803-3.9076056-2.1105634-1.6535915-3.7178873-3.8198451-5.4456338-5.8452676-1.6557887-2.1339296-3.4109577-4.2008873-4.8497746-6.4919155-.1501268-.1408732-.7897183-.6627887-1.004493-.2470986-1.8706901-2.9099155-3.2148169-6.1062253-4.725169-9.2057324-1.3833803-2.9860563-2.600493-6.0460563-3.8083099-9.1014084z" fill="#464d58"/><path d="m81.3659155 60.9278873c1.9723944.8868592 5.1388732 2.2498733 6.6561972 3.8480282 1.1890141 1.2101408 1.7966197 2.9884225 1.530845 4.6674084-.0392957 1.1339578-.4711267 2.2748451-1.3229577 3.0461831l-.041831-.0161408c-.1107042-.048507-1.5025352.7200423-1.6157746.6715352-3.7964789 1.8498592-6.8239437 2.0174366-10.9812676 2.4400563-4.2190141.5519578-8.4684507.8239437-12.7157747 1.0271831-3.3185915-.0115352-6.7102817.1028029-10.0128169-.303676-2.7295775-.2494225-5.7992958-1.1780282-7.8342253-3.0902535-1.5308451-1.5011409-2.4714085-3.6815071-3.5477747-5.4990423-.7967746-1.5173239-2.1384507-3.8481549-2.7989577-5.4301267.747-.8066198 1.5136479.5795492 2.1141126 1.0761126.8568169.7020845 2.099662 2.1275916 3.0512113 2.7257747.7690141.5265634 1.5042254 1.5522676 2.2597183 2.0949718 3.4225352 2.6443521 6.1187324 3.4771268 10.3614085 4.0914507 1.5380281.0253944 3.6219718.6214225 5.436338.5449014 2.0805634-.0877605 3.9667606-.1014929 6.0485915-.2203943 3.1128169-.1778451 5.5233803-.1590423 8.4215493-1.406155 2.2981691-.8752817 3.8163381-1.9512676 4.7725353-4.2191831.690845-1.7898169.6553521-4.2403098.2188732-6.0486338z" fill="#4b525d"/><path d="m5.7888169 3.20323944c1.224-1.31408451 2.47111268-2.94929578 4.3741268-3.20323944 1.110845.05788732 1.9999859.8015493 2.7644366 1.53338028 6.2494225 6.18042254 11.288662 13.45985912 15.7020422 21.02788732l-.0023239.0185916c-.0276761.1428169-.080831.4292957-.1085071.5725352 1.207817 3.0553521 2.4249296 6.1153521 3.8083099 9.1014084 1.5103521 3.0995071 2.8544789 6.2958169 4.725169 9.2057324 1.0854085 1.808324 2.1870423 3.6097183 3.3071409 5.3995352 1.2286479 1.9630564 2.3785352 4.0000141 3.9516338 5.7159296 2.0459155 2.2517324 4.4315493 4.2863662 7.2747887 5.4457183 1.7991549.7482676 3.731831 1.1639578 5.6809859 1.2078592 2.1595775-.0046479 4.2540845-.5912113 6.3050704-1.2078592 1.1476057-.371831 2.3788733-.8059859 3.2146479-1.7159155-.1825352-.018507-.5450704-.0531549-.7276056-.0716197 1.854507-.3025352 3.7969014-.1870563 5.5474648.5358169 3.6583098 1.4526338 7.2587324 3.0438592 10.8523943 4.6466197.4364789 1.808324.7390141 3.7667324.0481691 5.5565916-.9557747 2.2678732-2.8774648 4.1062394-5.1752113 4.9815211-2.8985916 1.2471127-6.09 1.515-9.2032394 1.6928451-2.0649296.3579718-4.1687324.0946901-6.2492958.1824507-1.5452113.0969718-3.0578873-.2840705-4.5959155-.3095071-4.2426761-.6142817-8.4828169-2.0230563-11.9053521-4.6674084-.7550704-.5427465-1.3233803-1.3002254-2.0923944-1.8267888-.9515493-.5981408-1.3996056-1.6859154-2.2564225-2.388-.6004226-.4965211-1.1665775-1.1741831-1.9032676-1.5044366-1.5635071-2.2309436-2.7902113-4.8217605-4.3352535-7.0734929-3.0092113-4.7967465-6.4535071-9.1452676-10.3218592-13.283831-1.062338-1.3187324-2.1647324-2.4707747-3.2247887-3.7894648-.7245212-.9013099-1.2870423-1.2548873-1.7974226-1.9177183-2.8014084-3.681338-6.9882253-5.9182395-10.25383096-9.1282395-1.1316338-1.4294366-2.44871831-3.1339436-3.17154929-4.8338028-1.46421127-2.6653521-2.01152113-5.61-2.21243662-8.628169.05543662-1.5405634-.06312676-3.2590141.28098591-4.77633801.25867606-1.64704226.62446479-3.13647888 1.19260564-4.70915493.18938028-.57507043.15342253-.7271831.50670422-1.78943662" fill="#5b6472"/><path d="m3.56961972 32.9771831c1.05194366-.8273239 4.22505634 2.297831 3.92285915 4.1116056.77201409 1.0849437 1.86164789 35.6685212 1.53502817 36.4964789-.85221127.0184648-2.45116901.0174085-3.30333803-.0103099-.05315493-11.8590845-.15473239-23.7343521-1.34180281-35.5380422-.14087324-1.2471127-.54257747-3.8331127-.81274648-5.0597324z" fill="#4c535d"/><path d="m1.37543662 26.6742254c-2.95842254-7.8612677-.98847887-17.13591554 4.41338028-23.47098596.36950704.60760563-.09701408 1.20338028-.28639436 1.7784507-.5680986 1.57267606-.87988733 3.22140845-1.13856339 4.86802817-.34411267 1.51732399-.1662676 3.07859159-.22170422 4.61915489.20091549 3.0185916.91685915 6.0392958 2.38107042 8.7042254.72287324 1.6998591 1.97459155 3.0785915 3.10622535 4.5080282 3.2656056 3.2104225 7.353338 5.5753521 10.1547042 9.2564788.5104226.662831 4.1912536 4.3641972 4.4290986 5.1979437-1.8379436-.9245493-5.8495352-4.2044789-6.9904225-4.9873521-2.2725211-1.5704366-3.7243521-2.3625634-6.2832254-3.4248169-2.13392954-1.0161972-4.62528166-2.286338-6.56061968-3.6785916-1.03229578-.690845-1.42774648-.9633802-2.18987324-1.9330986-.08547888.0114085-.67047888-1.458169-.75823944-1.4442253z" fill="#4b525d"/><path d="m2.59715493 29.4942254c.36790141-.4576057 1.24533803 1.0123943 1.86887324 1.518169 1.45267606 1.1683098 3.02776056 2.0260563 4.78297183 2.6683098 1.5796901.7276057 3.7708732 1.4911268 4.6183099 2.4832395-1.3833381-.0946902-3.1062254.240169-3.7459437 1.6350845-.7043662 1.5127183-.41108451 3.2263521-.48038028 4.8406479-.46647888 10.2424647-.06004226 20.5080422.87067608 30.7159014-.73208454.1639436-1.43378876.2499295-2.18433806.2568591-.30253521-.9099296-.22673239-1.8457605-.24519718-2.7834084-.05311268-4.3903099-.44112676-27.1801268-.50809859-28.173169-.27021127-1.8337184-.25867606-3.7344085-.94225352-5.4850141-.40183099-1.3163662-1.43416902-2.4988733-2.78983099-2.8546479-.32564789-1.6280282-.83602817-3.2214085-1.24478873-4.8219718z" fill="#3e444d"/><path d="m9.98742254 6.01140845c1.11549296-.33 2.28638026.03253521 3.30253516.50112676 1.5519719.91943662 3.0277184 2.02309859 4.1247043 3.47366197 1.323338 1.41802822 2.2401972 3.14323942 3.3602957 4.71591552 3.9699296 6.3992958 7.1685634 13.2240845 10.5403944 19.9491549 3.0507887 6.110831 6.1200845 12.3232817 10.6373662 17.5126479 2.9399578 3.1270141 6.2171409 6.048507 10.1408028 7.8775775 1.7230986.9399718 3.6697183 1.3671971 5.6142254 1.515 4.2054929.0392957 7.8591549-2.579662 12.0253521-2.789831 2.9307042-.0900423 5.6446479 1.3140845 8.0442253 2.8545211 1.3022536.7851972 2.3556338 2.288662 2.0505634 3.8683521-.1732394 1.547324-1.2376056 2.8498733-2.4849296 3.7066902-2.6214084 1.5611831-5.7688732 1.7806056-8.7414084 1.9399436-1.4640845.1917042-2.9446479.0739014-4.4133803.1224085-1.3140845.0854366-2.598169-.2863944-3.9097183-.2055634-1.7898592-.2147747-3.6029577-.3602535-5.3416901-.8706338-3.5822536-.7967747-6.9008451-2.7205775-9.3997183-5.4041831-2.8546479-2.7159296-4.9538029-6.0900423-6.9954085-9.4272254-4.4249155-7.6581972-10.3579437-14.3902817-17.1338873-20.0392394-2.7043944-2.4410282-5.5381268-4.7806056-7.8545071-7.616662-2.8891267-3.2239436-5.42032391-7.0001408-6.27021123-11.3116901-.33946479-2.2102817-.5958169-4.5012676-.03692958-6.69507044.29328169-1.53802817 1.15702817-3.17577465 2.74132395-3.67690141" fill="#657183"/><path d="m11.3892676 8.32098592c1.7020986-.03929578 3.3602535.80366197 4.485 2.06028168 2.1108169 1.8933803 3.3972254 4.5101409 4.3995211 7.1176056.6304648 1.6926761.4919155 3.521831.5127043 5.2930986.048507.7415493-.3210423 1.4345071-.7575212 2.0095775-1.0577324.8357746-2.5889155 1.013662-3.8083098.4292958-.9191409-.2932395-1.5288592-1.0715493-2.3187043-1.5747888-1.6489436-1.866338-2.8244788-4.1019718-3.7851971-6.3857746-.80138032-2.3535211-1.27022539-4.9656338-.60971835-7.40197184.14087324-.90760563 1.10163385-1.31408451 1.88222535-1.54732394z" fill="#717d90"/><path d="m69.3612676 60.0507465c1.8084507-.2748169 3.665493.371831 5.1802817 1.3418028 1.0833803.6304648 1.7898592 1.7828873 2.0784507 2.981493-.1132394 1.2124647-.6578873 2.3972535-1.6305634 3.1593802-1.722676 1.3787324-3.9883098 1.9607324-6.1660563 1.9468733-2.4874648.0207887-4.9905634-.1270141-7.4133803-.7390564-1.265493-.2748169-2.5656338-.8983521-3.2011268-2.0762112-.12-.9583944-.1060563-2.0830986.7276057-2.7320705 2.8985915-2.4942253 6.8083098-3.1039436 10.4247887-3.8822112z" fill="#717d90"/><path d="m1.3673662 26.6552113c.08776056-.0139437.32446479-.0249296.40990141-.0363381.76212676.9701409 1.5889014 1.9077465 2.62123943 2.5981691 1.93533803 1.392676 4.23785916 2.1016901 6.37183096 3.1178873 2.5588733 1.0622535 4.9076197 2.5635211 7.1801409 4.1338732 1.140845.7828733 5.817507 4.7459155 6.8798873 6.0646479 3.8683521 4.1385634 7.2586479 8.7066761 10.2678592 13.5034225 1.5450422 2.2517324 2.7482957 4.7228874 4.3118028 6.953831.660507 1.5819719 1.6374084 3.0092113 2.4341831 4.5265352 1.0760704 1.8175352 1.9283239 3.8152395 3.4595915 5.3163803 2.0345071 1.9122676 4.8291549 2.7944789 7.5587324 3.0439014 3.3025352.4064366 6.6350704.2217043 9.9540845.2332395 4.2469014-.2032395 8.4942254-.4803803 12.7132395-1.0323381 4.1573239-.4226197 8.4160563-.9468591 12.2125352-2.7967605.1132394.048507.3350704.1431972.4457746.1917042-1.5566197 1.5196056-3.7390141 2.1408592-5.7714084 2.7482535-3.3853521.8845352-6.8869014 1.1385634-10.3533803 1.5427183-5.3023944.5219578-10.6440845.8660705-15.9743662.7182254-2.6907042-.0461831-5.4502817-.2193803-7.9723944-1.2424648-2.034507-.7944507-3.7111267-2.3579578-4.7852112-4.2447887-3.5795916-6.4572676-7.1754508-12.9283944-11.4640986-18.9491831-4.7020986-6.5888874-10.3464085-12.7459437-17.5057606-16.6928029-.1246901-.0461831-.371831-.1408732-.4942394-.1893802-1.4595634-.9629578-3.1500845-1.4919719-4.72977469-2.2195775-1.75516901-.641831-3.36025352-1.6326761-4.81292958-2.8014085-.62353521-.5057746-.94457746-1.3440845-1.7274507-1.6487323-.261-.995493-.95264789-1.8574648-1.22978873-2.8390141z" fill="#3e444d"/></g></svg>