<svg xmlns="http://www.w3.org/2000/svg" width="70" height="37" viewBox="0 0 70 37"><path fill="#1a1a1a" d="M48.819.004c2.703.21 5.264 1.317 7.534 2.755 2.752 1.775 5.122 4.086 7.193 6.61 2.476 3.026 4.535 6.372 6.316 9.849.124.222.138.482.138.732-.008 1.938-.003 3.874-.003 5.81-.005.599.036 1.207-.107 1.794-.344 1.402-1.397 2.598-2.722 3.156-1.194.516-2.524.262-3.785.322-.393 2.024-1.865 3.783-3.76 4.577-1.223.514-2.63.605-3.891.177-2.753-.86-4.801-3.83-4.25-6.727.396-2.215 2.102-4.121 4.24-4.804a5.47 5.47 0 0 1 3.307-.034c2.145.64 3.888 2.51 4.33 4.712.767.034 1.536.017 2.304.017.65.003 1.327-.238 1.749-.751.374-.442.512-1.035.505-1.604-.001-2.028-.004-4.055.001-6.083-.002-.286-.019-.584-.165-.837-1.253-2.414-2.65-4.757-4.24-6.967-2.024-2.801-4.37-5.409-7.179-7.447-1.947-1.372-4.09-2.546-6.44-3.035-.944-.21-1.914-.134-2.87-.145-10.596-.003-21.192.005-31.787-.003-.557.022-1.07-.48-1.048-1.04-.01-.56.497-1.06 1.059-1.037 11.19.003 22.381-.004 33.57.003zM20.598 22.993c-.11.425-.514.753-.955.762-.964.02-1.93-.008-2.894.008 0 .987-.005 1.974.002 2.962 0 .619.215 1.264.693 1.677.413.38.985.542 1.539.547.918.008 1.838.001 2.757.001.478-2.28 2.31-4.216 4.569-4.796 2.98-.817 6.195 1.24 7.119 4.098a5.561 5.561 0 0 1-.283 4.228 6.483 6.483 0 0 1-3.65 3.271 5.555 5.555 0 0 1-3.842-.083c-1.975-.758-3.511-2.56-3.927-4.638-1.213-.043-2.446.113-3.645-.119-1.761-.473-3.221-2.069-3.394-3.906-.052-1.08-.005-2.163-.018-3.244-2.069-.004-4.138.007-6.207-.006-.583-.008-1.06-.606-.963-1.177.058-.536.58-.943 1.11-.899h10.925c.678-.058 1.282.655 1.064 1.314zm36.262 3.102a3.9 3.9 0 0 0-2.03.85c-1.57 1.295-1.775 3.817-.644 5.457 1.33 1.914 4.408 2.1 6.057.507 1.626-1.58 1.532-4.603-.268-6.016-.865-.694-2.03-.925-3.115-.798zm-29.827.006c-1.225.151-2.376.918-2.902 2.048-.672 1.435-.533 3.29.51 4.517 1.33 1.558 3.893 1.725 5.513.533 1.975-1.469 1.988-4.854.027-6.339-.88-.693-2.057-.896-3.148-.76zm21.952 2.859c-.005.69.012 1.38-.013 2.072-4.29-.002-8.581.004-12.873-.003.001-.694 0-1.386-.01-2.078 4.299.006 8.597-.01 12.896.009zM1.983 16.266c7.695.004 15.39-.001 23.083.003.587-.047 1.155.47 1.113 1.068-.001.581-.548 1.058-1.121 1.015-7.969-.006-15.937-.002-23.905-.002-.481.038-.976-.262-1.105-.74-.184-.545.185-1.19.748-1.31.393-.06.792-.028 1.187-.034zM50.258 5.874c.014 1.98-.001 3.961.006 5.94.012.92.305 1.884.995 2.524.488.465 1.176.664 1.839.666 2.856.012 5.714-.006 8.57.008.52-.008.981.436 1.017.95.075.587-.453 1.148-1.04 1.129-2.804-.002-5.61-.004-8.413.001-1.19.003-2.428-.308-3.329-1.12-1.213-1.06-1.693-2.724-1.72-4.289.003-1.942-.002-3.884.002-5.824-.003-.474.374-.901.831-.994.61-.147 1.261.382 1.242 1.009zm-18.942 5.2c.48.333.541 1.08.155 1.507-.217.265-.565.37-.897.362-6.949-.006-13.898 0-20.847-.003-.52.044-1.047-.32-1.132-.847-.114-.559.308-1.164.882-1.22 6.94-.035 13.886 0 20.828-.017.345.001.73-.018 1.01.218zm-5.188-4.261a1.055 1.055 0 0 1-1.065.72c-6.449-.002-12.898.004-19.348-.003-.509.05-.986-.334-1.083-.827-.106-.466.16-.971.594-1.16.24-.11.51-.085.766-.093 6.358.004 12.716-.004 19.074.004.706-.07 1.315.685 1.062 1.359z"/></svg>