<svg xmlns="http://www.w3.org/2000/svg" width="16" height="16" viewBox="0 0 16 16"><path fill="#6d7278" d="M8 0c4.411 0 8 3.589 8 8s-3.589 8-8 8-8-3.589-8-8 3.589-8 8-8zm0 1C4.14 1 1 4.14 1 8s3.14 7 7 7 7-3.14 7-7-3.14-7-7-7zm0 1.453a.5.5 0 0 1 .5.5v.575c1.417.2 2.5 1.227 2.5 2.463a.5.5 0 0 1-1 0c0-.697-.64-1.28-1.5-1.447v2.984c1.417.2 2.5 1.227 2.5 2.463s-1.083 2.263-2.5 2.462v.5a.5.5 0 0 1-1 0v-.5c-1.417-.2-2.5-1.226-2.5-2.462a.5.5 0 0 1 1 0c0 .697.64 1.279 1.5 1.447V8.453C6.083 8.253 5 7.227 5 5.991s1.083-2.264 2.5-2.463v-.575a.5.5 0 0 1 .5-.5zm.5 6.091v2.893c.86-.167 1.5-.75 1.5-1.446 0-.697-.64-1.28-1.5-1.447zm-1-4c-.86.168-1.5.75-1.5 1.447s.64 1.279 1.5 1.446z"/></svg>