<svg xmlns="http://www.w3.org/2000/svg" width="70" height="67" viewBox="0 0 70 67"><path fill="#ff8b99" d="M38.58 0l.89.012a5.189 5.189 0 0 1-.116 1.84c-.77 1.424-.224 3.168-.261 4.717l.294-.033c-.012.352-.041 1.06-.054 1.413.497-.282.978-.58 1.462-.874 1.674-.92 3.724-2.241 5.538-.829.327.253.613.547.853.89.734.858 1.119 1.94 1.657 2.92.058.502.112 1.011.153 1.52l.328-.094-.083 1.375.369-.033c.434.302.861.617 1.288.932.575.364 1.11.79 1.665 1.197 1.727 1.462 3.425 3.02 4.755 4.867l.199.029c.472.927 1.118 1.74 1.694 2.609.853 1.54 1.752 3.086 2.265 4.788l.183.033c.116.46.24.916.372 1.371.344 1.086.58 2.196.9 3.29.053.5.107 1.001.165 1.503.476.215.97.393 1.474.542 1.276.791 2.432 1.756 3.372 2.933.166.39.352.77.55 1.147l.216.004c.299.8.452 1.64.684 2.46l.211-.02c.012 1.255.017 2.51 0 3.77l-.27.007c-.049.49-.111.982-.19 1.47-.907 1.782-2.058 3.468-3.74 4.615-.816.46-1.69.795-2.522 1.226-.655.083-1.318.157-1.976.203l.149.236a13.304 13.304 0 0 0-1.773.042c-.348.492-.6 1.043-.936 1.549-.385.571-.833 1.097-1.26 1.644l-.397.48c-1.102 1.371-2.373 2.598-3.723 3.716-.53.435-1.102.82-1.632 1.25-.402.274-.816.54-1.214.82-1.429.817-2.829 1.757-4.428 2.217l-.012.228c-.468.14-.945.256-1.43.343a2.287 2.287 0 0 1-1.254.444c-1.015.389-2.088.58-3.157.724l.03.212c-1.243.054-2.486.128-3.728.19l.012.232a58.777 58.777 0 0 0-2.564.004l.07-.223c-1.196-.042-2.398-.096-3.586-.24-.68-.22-1.388-.332-2.088-.44-.56-.29-1.193-.319-1.81-.352l.008-.331a82.078 82.078 0 0 1-1.052-.108c-.977-.55-2-1.002-3.094-1.259l.008-.211c-.633-.373-1.337-.6-1.95-1.003-.829-.55-1.649-1.114-2.477-1.656-.65-.613-1.405-1.094-2.026-1.732-.36-.319-.725-.633-1.056-.973-.112-.133-.327-.398-.44-.53l-.165-.017c-.663-.899-1.429-1.706-2.116-2.576-.584-.783-1.011-1.67-1.624-2.423-.365-.008-1.09-.017-1.454-.02l.087-.212c-.658-.07-1.313-.141-1.976-.174-.55-.224-1.068-.53-1.607-.783a15.341 15.341 0 0 1-.422-.025c-.431-.36-.85-.741-1.396-.92l-.004-.347-.315.012c-.766-.816-1.45-1.719-2.133-2.605l-.033-.419c-.224-.542-.593-1.01-.742-1.582-.294-1.76-.22-3.545-.016-5.31l.211-.037c.327-1.355 1.16-2.49 1.926-3.624l.236.041.095-.402.406-.095-.05-.253c1.11-.75 2.246-1.462 3.505-1.93-.042-.12-.12-.364-.162-.484.663-1.935.965-3.99 1.736-5.903.745-1.69 1.54-3.371 2.526-4.937.369-.584.775-1.14 1.185-1.694.402-.563.849-1.094 1.292-1.62.096-.112.282-.34.373-.451 1.375-1.541 2.95-2.879 4.585-4.134.73-.55 1.558-.96 2.303-1.487.054-.667.1-1.334.133-1.992l.223.033c.104-.489.232-.965.381-1.437.228-.44.44-.883.634-1.33.605-.8 1.31-1.512 2.084-2.141l1.139-.116-.054-.286.957.02-.067.311c1.628.406 3.028 1.45 4.465 2.237 1.02-1.433 2.005-2.9 3.14-4.254l.331.079-.012-.352c.58-.423 1.156-.854 1.69-1.33A46.749 46.749 0 0 0 37.962.406c.15.008.44.025.584.037zM20.407 15.371c-2.162 1.657-4.266 3.4-5.989 5.525a26.644 26.644 0 0 1-1.243 1.661c-.21.452-.513.858-.849 1.235l-.16.321-.254.507c-1.073 1.968-1.934 4.055-2.502 6.234a13.022 13.022 0 0 0-.348 2.083c-.617 2.925-.497 6.048-.053 9 .236 1.053.414 2.122.687 3.17l.195-.017c.178 1.55.99 2.912 1.611 4.312 1.114 2.112 2.514 4.067 4.117 5.84.41.41.829.816 1.243 1.226.377.315.725.654 1.085.99.617.489 1.272.932 1.885 1.437 1.04.675 2.1 1.317 3.193 1.906.452.174.886.393 1.33.6.691.278 1.4.535 2.083.841.56.112 1.106.273 1.649.456a19.67 19.67 0 0 0 6.424.704l.137.63.24-.639c1.578.009 3.197.141 4.726-.33.68-.092 1.35-.245 2.021-.382a5.98 5.98 0 0 1 1.28-.406 7.767 7.767 0 0 1 1.243-.439c.969-.398 1.926-.824 2.858-1.296.687-.427 1.412-.78 2.083-1.23.55-.419 1.118-.812 1.686-1.21 2.203-1.785 4.216-3.844 5.782-6.217.675-1.065 1.321-2.15 1.876-3.28.431-.808.65-1.707 1.036-2.536.137-.426.277-.853.422-1.275.145-.543.27-1.098.415-1.636.29-1.003.352-2.05.335-3.082l.249.104a67.87 67.87 0 0 0 .012-5.51l-.26.129c.016-1.044-.01-2.1-.332-3.098-.137-.563-.294-1.11-.373-1.682a6.828 6.828 0 0 1-.468-1.242 12.312 12.312 0 0 0-.634-1.674 3.843 3.843 0 0 1-.364-1.048l-.415-.008c.034-.203.096-.605.129-.804l-.402-.029c-.149-.654-.513-1.217-.849-1.785-.344-.513-.696-1.019-1.023-1.54l-.166-.05-.48-.69a11.366 11.366 0 0 0-1.044-1.315l-.128-.037c-.137-.133-.406-.402-.539-.535l.02-.306-.48.037.013-.319c-.137-.132-.419-.397-.56-.53l-.273.025-.025-.294c-.6-.593-1.32-1.032-1.988-1.537l-.066-.161a20.13 20.13 0 0 0-1.123-.7c-.062.766-.149 1.528-.22 2.298l-.243-.029a6.805 6.805 0 0 1-2.672 4.035 3.49 3.49 0 0 0-1.33.522c-1.304-.485-2.58-1.077-3.76-1.823a9.49 9.49 0 0 1-1.06-.435 9.214 9.214 0 0 1-1.633 1.773c-.58.26-1.155.53-1.719.82-1.16.095-2.328.124-3.483-.02-1.322-.535-2.332-1.504-3.297-2.494-1.18.286-2.162 1.11-3.235 1.644a3.652 3.652 0 0 0-1.276.551c-.92-.335-1.827-.729-2.589-1.358a15.996 15.996 0 0 1-1.681-2.892c-.038-.281-.108-.849-.145-1.134l-.274.037c-.012-.402-.045-1.201-.058-1.599zM40.968 50l-.058.489.464-.087c-.058 3.007-2.783 5.152-5.542 5.716-.94 0-1.876.029-2.816.029l.074-.249c-.51-.112-1.019-.223-1.524-.34-.48-.48-1.185-.625-1.636-1.143-.12-.107-.352-.331-.468-.443-1.007-1.06-1.748-2.456-1.355-3.951.705-.009 1.409 0 2.113.025-.046.19-.137.567-.187.753l.423.013c-.025 1.077.928 1.677 1.615 2.34 1.284.56 2.71.783 4.08.381.497-.215.99-.451 1.512-.609l-.046-.323.551-.534.274.05c.215-.555.451-1.106.555-1.69l.315.062-.067-.485c.431 0 1.293-.004 1.723-.004zm22.43-13.977c.004 1.512-.025 3.024-.016 4.536l-.236-.05a35.017 35.017 0 0 1-.232 2.36c-.158.56-.32 1.12-.452 1.69-.161.597-.29 1.202-.38 1.82l-.27-.075c-.02.327-.062.977-.087 1.304l-.298-.037c-.1.683-.44 1.288-.804 1.868 1.777-.07 3.38-.907 4.643-2.117 1.583-1.71 2.179-4.084 1.893-6.37l-.315-.004c-.012-.315-.037-.949-.045-1.268l-.464.021.15-.779-.399-.05c-.439-1.296-1.719-1.987-2.688-2.849zM6.23 36.14c-.31.157-.617.331-.92.514-.832.729-1.805 1.462-2.045 2.626l-.377.054c.012.145.033.43.041.575-.766 1.491-.555 3.397-.14 4.975.256.555.53 1.102.836 1.632.538.605 1.035 1.292 1.802 1.632l.025.236a8.594 8.594 0 0 0 1.673.576l.016.256c.584.063 1.173.12 1.76.17-.231-.53-.563-1.002-.79-1.528-.133-.414-.274-.82-.419-1.226l-.22-1.23-.302.012c-.09-1.114-.476-2.179-.559-3.293l-.22.116c-.04-2.034-.244-4.063-.16-6.097zm44.538.346c.298.286.58.593.84.92.125.199.374.596.498.791.095.887.112 1.781-.066 2.663l-.464.816c-.56.584-1.334.862-1.984 1.326-.381-.008-1.152-.02-1.533-.025-.75-.427-1.578-.824-2.03-1.59-.87-1.21-.567-2.834.017-4.093l.22.008c.12-.132.368-.397.488-.53l.013-.248c1.263-.613 2.746-.762 4.001-.038zm-28.783-.397l-.103.257c1.482.654 2.278 2.493 1.855 4.026-.306.642-.663 1.259-1.073 1.843l-.277-.05-.162.443c-.186 0-.559-.004-.745-.008l.066.381a73.245 73.245 0 0 0-2.133.013l-.083-.431c-.145.025-.43.07-.571.095-.758-.584-1.247-1.425-1.728-2.228a28.487 28.487 0 0 1-.025-1.972l.208-.029c.215-.745.745-1.33 1.101-2l.63.132-.008-.485a20.804 20.804 0 0 1 3.048.013zM43.38 8.429c-1.002.791-2.419 1.015-3.268 1.988l.43.447c.829 1.864.825 4.043.013 5.915-.953.506.253.978.708 1.21 1.131.46 2.092 1.362 3.318 1.553.961-.15 1.176-1.321 1.657-2.013a6.822 6.822 0 0 0 .34-2.307l.273.12a64.72 64.72 0 0 0-.025-3.355l-.215-.025a5.754 5.754 0 0 0-1.566-3.591c-.447-.501-1.172-.17-1.665.058zM23.523 9.717c-.12.423-.27.837-.443 1.243-.476 1.855-.423 3.856-.013 5.72.212.406.353.832.423 1.288.406.526.596 1.334 1.296 1.553 1.057.042 1.897-.745 2.788-1.21.534-.318 1.143-.475 1.682-.786a2.375 2.375 0 0 0-.493-1.185l-.116-1.06-.323.037c-.286-1.855.451-3.529.894-5.277-1.284-.559-2.46-1.325-3.736-1.893-1.04-.331-1.445.936-1.959 1.57zm7.43 2.875c-.223.8-.252 1.644 0 2.444.312.969 1.057 1.66 1.799 2.307 1.118.51 2.394.62 3.562.215 1.42-.659 2.547-2.117 2.394-3.74.157-1.632-.998-3.057-2.398-3.74-2.125-.829-4.644.356-5.356 2.514z"/></svg>