<svg xmlns="http://www.w3.org/2000/svg" width="70" height="64" viewBox="0 0 70 64"><g fill="#61c2ed"><path d="M39.091 0c.192.083.576.256.767.339-1.058 1.96-.776 4.286-.016 6.293 5.69 1.078 11.092 3.75 15.212 7.844 4.245 4.162 7.125 9.672 8.144 15.528.02.92.892 1.25 1.592 1.605 4.318 2.116 6.348 7.87 4.299 12.229-1.534 3.628-5.517 5.974-9.432 5.61-2.736 4.701-6.84 8.553-11.683 11.017-5.232 2.813-11.366 3.539-17.206 2.88-8.5-1.214-16.221-6.527-20.59-13.885-3.325.208-6.831-1.31-8.602-4.2C.422 43.653.102 41.645 0 39.715c.042-3.123 1.832-6.121 4.459-7.774.732-.524 2.026-.604 2.125-1.69.675-3.526 1.842-6.994 3.724-10.063 1.244-1.723 2.311-3.605 3.89-5.053 2.151-2.043 4.389-4.082 7.09-5.377 2.742-1.63 5.846-2.512 8.94-3.19C32.158 3.283 35.582 1.237 39.09 0zm1.637 9.2c.745 2.131.153 4.547-1.327 6.216-2.333 2.66-7.102 2.474-9.237-.342-1.291-1.56-1.688-3.74-1.096-5.667-5.147.885-9.74 3.883-13.33 7.594-2.706 2.628-4.407 6.086-5.724 9.577-1.473 4.133-1.572 8.617-1.01 12.929.901 4.58 2.928 8.96 5.968 12.51.844 1 1.87 1.829 2.73 2.816.31.358-.154.783-.224 1.16.249-.265.505-.527.767-.782 2.713 2.147 5.763 3.905 9.097 4.88 3.452 1.125 7.13 1.074 10.714.898 10.576-1.083 19.951-9.362 22.349-19.718.872-3.11.706-6.364.607-9.554-.838-7.044-4.728-13.664-10.43-17.87-2.915-2.228-6.341-3.663-9.854-4.648M3.32 43.544c1.055 2.113 3.363 3.235 5.62 3.538-1.95-4.18-2.938-8.809-2.619-13.424-3.57 1.668-5.037 6.52-3.001 9.886m60.229-9.886c.265 4.605-.713 9.224-2.615 13.415 1.282-.218 2.586-.57 3.628-1.388 1.998-1.364 3.097-3.87 2.867-6.264-.214-2.41-1.7-4.683-3.88-5.763z"/><path d="M19.674 33.347c2.135-.811 4.66 1.225 4.289 3.494.166 2.234-2.474 3.999-4.478 3.056-1.864-.582-2.765-3.014-1.886-4.718.361-.892 1.164-1.547 2.075-1.832zM47.84 33.45c1.697-.815 3.938.147 4.523 1.94.936 2.074-.742 4.772-3.04 4.782-1.486.153-2.615-1.09-3.26-2.28-.87-1.633.226-3.681 1.777-4.442zM28.943 46.107c.7-.428 1.432.22 1.646.886.553 1.333 1.672 2.496 3.139 2.758 1.39.182 2.96.173 4.107-.757 1-.69 1.247-1.963 1.982-2.864.6-.371 1.486-.077 1.665.633.246 1.09-.438 2.08-1.029 2.927-1.186 1.64-3.232 2.398-5.185 2.564-2.966.105-6.15-1.675-6.958-4.664-.265-.565.118-1.211.633-1.483z"/></g></svg>