<svg xmlns="http://www.w3.org/2000/svg" width="94" height="126" viewBox="0 0 94 126"><title>Combined Shape</title><path fill="#FFF" fill-rule="nonzero" d="M32.296 22c1.588 3.356 3.549 6.689 6.608 8.929 3.343 2.599 7.994 3.684 12.052 2.213 5.12-1.711 8.693-6.288 10.67-11.115 7.54 2.224 15.06 4.53 22.635 6.646 2.655.804 5.319 1.615 7.94 2.534 1.618.51 1.867 2.471 1.785 3.916-.217 5.229-.543 10.454-.916 15.671-.19 1.472-1.794 1.927-2.99 2.337-3.494 1.12-6.96 2.39-10.548 3.194-1.014-2.375-2.039-4.754-3.223-7.048.843 4.549 1.852 9.083 2.388 13.69 1.227 10.358 2.015 20.82 1.366 31.247-.36 2.568-.217 5.72-2.488 7.476-1.802 1.352-4.038 1.927-5.999 2.997-2.644 1.348-4.962 3.38-6.43 5.967-1.716 3.228-3.028 6.696-3.536 10.327-1.65 2.301-4.427 3.471-7.106 4.14-5.26 1.255-10.855 1.174-16.066-.29-2.318-.765-4.799-1.865-6.11-4.02-.253-1.568-.502-3.14-1.065-4.635-1.066-2.914-2.21-5.938-4.4-8.213l-.305-.306c-2.198-2.282-5.172-3.514-8.03-4.746-1.79-.746-3.51-2.113-3.902-4.098-.935-4.153-.95-8.435-.906-12.677l.017-1.589c.179-11.751 1.518-23.48 3.883-34.992-1.278 2.162-2.066 4.568-3.219 6.8A139.573 139.573 0 0 1 2.687 52.66a2.52 2.52 0 0 1-1.82-2.46C.598 45.168.217 40.14.004 35.103c-.032-1.189.077-2.518.95-3.417.513-.448 1.2-.607 1.83-.83 9.776-3.148 19.727-5.72 29.511-8.856zM48.281.053c3.713.292 6.83 3.667 6.8 7.36.128 3.372-2.348 6.517-5.6 7.407-.002 1.355 0 2.71-.002 4.066 2.867.131 5.717.546 8.521 1.169-.281 1.938-.236 2.112-1.09 3.927-6.162-1.382-12.637-1.43-18.791.018-.915-1.804-.833-2.001-1.119-3.945 2.802-.62 5.65-1.04 8.519-1.166.02-1.984-.04-3.967.024-5.947.018-.993.925-1.805 1.91-1.8 1.572-.002 3.062-1.042 3.518-2.545.636-1.843-.56-4.013-2.444-4.523-1.736-.554-3.761.442-4.4 2.123-.379.85-.087 1.936-.771 2.655-.769.883-2.32.833-3.019-.105-.702-.903-.387-2.133-.172-3.147C41.03 2.115 44.675-.4 48.28.053z" opacity=".622"/></svg>