<svg xmlns="http://www.w3.org/2000/svg" width="62" height="40" viewBox="0 0 62 40"><g fill="#86a9bc"><path d="M57.92 34H59c1.654 0 3-1.346 3-3v-9c0-1.307-.603-3.156-1.371-4.208l-5.642-7.762C54.143 8.873 52.428 8 51 8h-9V5c0-2.757-2.243-5-5-5H5C2.243 0 0 2.243 0 5v24c0 2.757 2.243 5 5 5h1.08a6.98 6.98 0 0 0 2.03 4H1a1 1 0 1 0 0 2h17a1 1 0 1 0 0-2h-.11a6.98 6.98 0 0 0 2.03-4H44.08a6.98 6.98 0 0 0 2.03 4H44a1 1 0 1 0 0 2h17a1 1 0 1 0 0-2h-5.11a6.98 6.98 0 0 0 2.03-4zM51 10c.779 0 1.91.576 2.371 1.208l5.642 7.762c.526.72.987 2.136.987 3.03v9c0 .552-.449 1-1 1h-1.08c-.488-3.387-3.4-6-6.92-6s-6.432 2.613-6.92 6H42V10zM2 29V5c0-1.654 1.346-3 3-3h32c1.654 0 3 1.346 3 3v27H19.92c-.488-3.387-3.4-6-6.92-6s-6.432 2.613-6.92 6H5c-1.654 0-3-1.346-3-3zm11 9c-2.757 0-5-2.243-5-5s2.243-5 5-5 5 2.243 5 5-2.243 5-5 5zm33-5c0-2.757 2.243-5 5-5s5 2.243 5 5-2.243 5-5 5-5-2.243-5-5z"/><path d="M8 16h24a1 1 0 100-2H8a1 1 0 100 2zM8 8h24a1 1 0 100-2H8a1 1 0 100 2zM8 24h24a1 1 0 100-2H8a1 1 0 100 2zM39.5 38h-17a1 1 0 100 2h17a1 1 0 100-2zM45 21h10a1 1 0 00.832-1.554l-4-6A1 1 0 0051 13h-6a1 1 0 00-1 1v6a1 1 0 001 1zm1-6h4.465l2.667 4H46z"/></g></svg>