<svg xmlns="http://www.w3.org/2000/svg" width="70" height="68" viewBox="0 0 70 68"><g fill="#61c2ed"><path d="M33.523.127c.782-.07 1.569-.132 2.353-.062 1.487.113 2.938.531 4.3 1.126a9.177 9.177 0 0 1 1.996 1.13c1.832 1.365 3.158 3.329 3.956 5.454a7.315 7.315 0 0 1 2.935-1.7c1.095-.316 2.278-.441 3.394-.16.64.153 1.255.396 1.861.65a7.605 7.605 0 0 1 2.197 1.313c1.404 1.204 2.37 2.852 2.957 4.592.073.24.173.476.199.728.112 1.441.178 2.906-.111 4.332.89.064 1.793.01 2.672.185 2.087.843 4.047 2.105 5.494 3.848a9.961 9.961 0 0 1 1.074 1.588c.2.348.303.739.437 1.114.479 1.443.835 2.964.7 4.493-.026.41-.129.809-.2 1.212a11.812 11.812 0 0 1-3.305 6.997 9.86 9.86 0 0 1 3.084 6.204c.239 2.174-.373 4.416-1.632 6.199a9.698 9.698 0 0 1-3.836 3.157 9.306 9.306 0 0 1-4.616.819c-3.881 6.603-10.516 11.567-18.003 13.26-3.065.642-6.223.886-9.347.613a25.657 25.657 0 0 1-7.021-1.61c-6.07-2.29-11.31-6.688-14.638-12.253-2.081.103-4.203-.432-5.952-1.572a8.437 8.437 0 0 1-2.332-2.255C1.099 48.18.588 46.49.434 44.808a8.187 8.187 0 0 1 .168-3.037c.454-1.856 1.503-3.551 2.92-4.828-1.211-1.232-2.162-2.73-2.701-4.376-.134-.424-.288-.843-.396-1.275-.585-2.231-.553-4.646.226-6.828.947-2.591 2.95-4.803 5.485-5.916.265-.124.556-.167.832-.257 1.143-.35 2.29-.842 3.51-.753-.245-1.249-.203-2.53-.143-3.794.017-.247 0-.502.085-.739.538-1.772 1.38-3.5 2.714-4.81.612-.597 1.32-1.107 2.112-1.436.934-.41 1.887-.814 2.902-.97a4.768 4.768 0 0 1 1.93.076c1.418.325 2.838.896 3.872 1.951.738-2.572 2.524-4.836 4.88-6.115 1.45-.8 3.037-1.399 4.693-1.574m.716 2.343c-.158.036-.32.047-.481.058-.259.051-.527.002-.783.07-.132.025-.243.105-.37.142-.173.03-.35.016-.52.05a40.25 40.25 0 0 0-2.36 1.127c-.41.214-.788.489-1.113.817-.487.48-1.01.943-1.367 1.533-.185.288-.314.605-.474.906-.103.197-.222.386-.292.598-.273.786-.506 1.589-.852 2.347a3.17 3.17 0 0 1-.788.691c-.417-.027-.847.04-1.253-.079-.091-.029-.195-.033-.269-.1a7.463 7.463 0 0 1-1.02-1.103c-.549-.615-1.332-.932-2.087-1.213a2.062 2.062 0 0 1-.193-.063c-.25-.14-.547-.075-.82-.091l-.024-.296-.03.328-.238-.094v.06c-.385.02-.8-.06-1.153.13-.452.208-.92.376-1.387.548-.852.363-1.55 1-2.152 1.69-.61.733-.893 1.661-1.303 2.508-.375 1.207-.362 2.507-.136 3.742.05.289.134.57.176.861h.038c.014.21.039.425-.023.63-.158.37-.324.742-.563 1.068-.194.21-.443.419-.743.43l.015.03c-.522.149-1.073.07-1.608.127-.478.015-.933.162-1.394.27a1.177 1.177 0 0 1-.57.173l.01.03c-.27.094-.551.144-.826.22-.31.152-.654.238-.93.451-.246.178-.503.34-.747.52-.271.189-.482.447-.743.65-.227.175-.36.44-.585.617-.181.154-.297.366-.402.576-.085.163-.264.252-.343.42a13.589 13.589 0 0 0-.824 1.91c-.18.496-.214 1.028-.27 1.548a10.872 10.872 0 0 0 .202 3.27l.071.237c.048.12.085.242.11.369.084.165.138.342.158.527a11.43 11.43 0 0 0 1.511 2.753c.253.344.589.614.865.939 1.692 1.754 4.373 2.485 6.718 1.809.354-.148.728-.233 1.088-.362.324-.154.635-.334.961-.484.198-.089.326-.279.52-.375.327-.155.58-.421.849-.657.524-.415 1.045-.859 1.412-1.425.187-.213.402-.4.565-.635.4-.556.783-1.125 1.12-1.72.183-.31.294-.654.485-.958.174-.276.275-.587.381-.894.106-.314.27-.604.428-.894.301-.503.843-.812 1.401-.946.312.136.626.275.898.483.474.367.84.846 1.28 1.249.095.098.233.125.354.178.17.063.251.245.414.32.474.254.96.484 1.442.723.17.072.342.137.508.218l.009.03c.224-.012.424.088.624.173.136.029.27.066.406.101l-.003.033c.333.016.653.127.987.14.284.14.597.178.909.203.3.071.599.147.904.189.349.014.68.135 1.023.185.142.01.285.018.425.049.377.101.76.193 1.152.198.715.004 1.43-.004 2.145.004l.025-.103.025.103c.894-.02 1.79.023 2.683-.021.639-.102 1.28-.187 1.921-.278.27-.035.53-.126.805-.138.183-.026.366-.06.543-.114.067-.024.134-.047.202-.067l.005-.026c.262.01.512-.073.76-.153.243-.082.509-.023.754-.104.57-.189 1.14-.374 1.709-.57.351-.122.655-.345.992-.5.205-.099.424-.174.61-.31.127-.089.233-.207.374-.277a2.6 2.6 0 0 0 .816-.64c.48-.47.916-1.033 1.568-1.274l.52.166c.294.07.496.31.72.494.69.683.931 1.653 1.353 2.5.252.55.643 1.02.921 1.557.254.47.614.867.955 1.273.4.556.869 1.065 1.419 1.477.411.287.767.649 1.204.9.315.209.68.319 1.006.507.387.253.869.265 1.278.47 2.317.638 4.962-.029 6.66-1.74.357-.37.735-.735.978-1.195.36-.365.604-.82.855-1.263.209-.344.253-.755.44-1.11.167-.26.172-.572.259-.856a3.446 3.446 0 0 1-.008-.074l.062-.006c.082-.285.074-.58.11-.872a4.09 4.09 0 0 1 .06-.364 6.77 6.77 0 0 0 .109-.631l.023-.01c-.001-.13.01-.26.048-.384.225-.703.006-1.43-.113-2.13-.027-.184-.14-.344-.155-.53a1.844 1.844 0 0 0-.15-.607c-.181-.39-.2-.84-.428-1.21a3.055 3.055 0 0 0-.427-.649c-.195-.23-.349-.492-.546-.72-.585-.707-1.333-1.254-2.086-1.768-.244-.157-.47-.35-.749-.44-.357-.11-.63-.385-.988-.493-.891-.31-1.852-.18-2.773-.306l.013-.036c-.186.006-.37.003-.555-.011l.01-.04c-.266-.023-.505-.142-.752-.23-.197-.075-.292-.28-.437-.42-.224-.206-.262-.52-.353-.795a2.188 2.188 0 0 1-.026-.565l.04.005c.078-.661.377-1.288.372-1.962-.004-.763.07-1.54-.124-2.288a6.56 6.56 0 0 0-.688-1.69c-.127-.213-.196-.464-.375-.643-.155-.161-.218-.383-.355-.557-.235-.325-.552-.574-.824-.865-.516-.488-1.162-.8-1.799-1.098-.16-.06-.32-.117-.483-.17-.248-.084-.521-.087-.75-.223-.237-.14-.515-.092-.776-.096-.265.006-.53-.011-.794.003-.244.04-.483.107-.729.138-.403.13-.748.377-1.124.562a3.265 3.265 0 0 0-.584.384c-.46.468-.89.965-1.39 1.391-.362.185-.778.184-1.175.168-.36-.018-.661-.255-.872-.53-.167-.241-.391-.48-.375-.794l-.028.013a8.806 8.806 0 0 0-.164-.464 5.42 5.42 0 0 1-.255-.777c-.109-.394-.34-.735-.53-1.092a3.605 3.605 0 0 0-.765-1.168c-.175-.294-.342-.604-.623-.813-.216-.148-.34-.386-.535-.555a2.098 2.098 0 0 0-.467-.312c-.198-.095-.324-.283-.506-.4a7.965 7.965 0 0 0-1.017-.558c-.286-.142-.604-.191-.905-.286l-.3-.123a2.213 2.213 0 0 0-.753-.226c-.299-.162-.642-.18-.975-.176l.004-.035a1.88 1.88 0 0 1-.503-.05 3.61 3.61 0 0 0-1.647.003m9.232 31.125c-.716.214-1.46.31-2.18.504-2.758.649-5.616.647-8.433.545-.442-.026-.89-.007-1.327-.09-1.544-.24-3.091-.48-4.605-.875-1.958-.505-3.882-1.313-5.424-2.648-.392.848-.83 1.676-1.326 2.468-1.139 1.819-2.6 3.465-4.41 4.637-1.987 1.306-4.439 1.929-6.805 1.608.055 1.31.13 2.622.345 3.916 1.032 5.072 3.448 9.916 7.146 13.569.569.537 1.097 1.116 1.694 1.625 2.549 2.223 5.582 3.876 8.809 4.879 2.609.892 5.388 1.163 8.134 1.13 1.265-.027 2.534-.03 3.79-.209 2.628-.348 5.179-1.19 7.551-2.363 5.908-2.945 10.702-8.16 12.94-14.391.949-2.604 1.497-5.369 1.474-8.147-1.929.262-3.901-.187-5.628-1.049-1.418-.73-2.673-1.758-3.726-2.952-1.246-1.412-2.22-3.05-2.946-4.783-1.46 1.25-3.226 2.114-5.073 2.626M3.038 46.176c.18.594.481 1.138.792 1.671.492.81 1.2 1.476 2.002 1.973 1.018.632 2.18 1.012 3.364 1.182-1.723-3.741-2.695-7.85-2.65-11.978a68.81 68.81 0 0 1-1.15-.59c-2.243 1.792-3.23 5.005-2.358 7.742m60.295-7.088c-.002 4.099-.96 8.17-2.632 11.904 1.433-.232 2.863-.734 3.985-1.681 1.643-1.34 2.562-3.488 2.46-5.599-.086-2.003-1.082-3.923-2.613-5.207-.393.207-.797.394-1.2.583z"/><path d="M20.271 37.215c1.82-.363 3.71 1.166 3.839 2.995.005.36-.002.722-.033 1.082-.24 1.658-1.928 2.935-3.586 2.768-.46-.041-.885-.236-1.296-.432-1.514-.807-2.182-2.864-1.447-4.411.42-1.049 1.434-1.78 2.523-2.002zM48.317 37.241c.81-.193 1.684-.04 2.404.368 1.439.792 2.146 2.725 1.497 4.244-.361.908-1.087 1.68-2 2.044-.56.227-1.187.258-1.776.142-.812-.18-1.473-.756-1.957-1.409-.4-.555-.774-1.176-.797-1.879-.075-1.585 1.105-3.112 2.63-3.51zM29.202 49.892c.382-.144.8.047 1.055.34.296.302.402.722.607 1.08.576 1.068 1.552 1.992 2.77 2.237 1.077.176 2.219.204 3.252-.19.624-.245 1.196-.65 1.587-1.198.474-.652.756-1.424 1.253-2.061a.522.522 0 01.202-.17c.585-.28 1.385.1 1.514.742.076.484-.011.983-.193 1.435-.276.678-.729 1.264-1.187 1.827-1.238 1.33-3.05 2.045-4.851 2.099a7.229 7.229 0 01-4.608-1.442c-.994-.745-1.783-1.782-2.168-2.968-.076-.237-.162-.487-.109-.738.088-.455.448-.831.876-.993z"/></g></svg>