<?xml version="1.0" encoding="UTF-8"?>
<svg width="40px" height="54px" viewBox="0 0 40 54" version="1.1" xmlns="http://www.w3.org/2000/svg" xmlns:xlink="http://www.w3.org/1999/xlink">
    <title>Combined Shape</title>
    <g id="Page-1" stroke="none" stroke-width="1" fill="none" fill-rule="evenodd">
        <g id="Home-Copy-2" transform="translate(-472.000000, -106.000000)" fill="#67C8EE" fill-rule="nonzero">
            <g id="Group-2" transform="translate(472.000000, 106.000000)">
                <path d="M13.7429839,9.26038282 C14.4187193,10.6961139 15.2530624,12.121932 16.5549681,13.0801875 C17.9774819,14.1920943 19.9567751,14.6563525 21.6832872,14.0268778 C23.8624924,13.2949689 25.3824838,11.3371538 26.2234356,9.27194798 C29.4319394,10.2235948 32.6321823,11.2099371 35.8555555,12.1153233 C36.9856361,12.4589736 38.1190211,12.8059281 39.2342322,13.1991433 C39.9231849,13.4172291 40.0289234,14.2565287 39.9942279,14.8744383 C39.9017067,17.1114692 39.7629249,19.346848 39.6043171,21.5789224 C39.523361,22.2083971 38.841017,22.4033526 38.3321503,22.578482 C36.8452021,23.0576098 35.3698191,23.6011719 33.843219,23.9448222 C33.412004,22.9287409 32.9758325,21.9110075 32.4719223,20.9296217 C32.830442,22.8758716 33.2600049,24.8155129 33.4880036,26.7865454 C34.0100876,31.2176509 34.345477,35.6933649 34.0695655,40.1542095 C33.9159142,41.252899 33.9770443,42.6010653 33.010528,43.3528002 C32.2439236,43.9310579 31.2922768,44.1772304 30.4579336,44.63488 C29.3328095,45.2114855 28.3464672,46.0805241 27.721949,47.1874744 C26.9916922,48.568684 26.4332606,50.0523279 26.216827,51.6053626 C25.514657,52.5900528 24.3333593,53.0906586 23.1933657,53.3764831 C20.9546826,53.9134366 18.5739133,53.8787412 16.3567084,53.2525708 C15.3703661,52.9254422 14.3146329,52.4545753 13.7562012,51.5326674 C13.6488105,50.8618885 13.543072,50.1894575 13.3035081,49.5500698 C12.8293369,48.2465119 12.318818,46.8917369 11.3010846,45.9053946 C10.3659594,44.9289653 9.10040128,44.4019248 7.8844081,43.8748843 C7.1227602,43.5560165 6.39085127,42.9711502 6.22398264,42.1219376 C5.77624602,40.1228184 5.82415879,38.0543082 5.84563693,36.0188414 C5.92163651,30.9913044 6.49163331,25.9736804 7.49780158,21.0485776 C6.95423941,21.9737898 6.61884999,23.0030883 6.12815709,23.9580395 C4.44625348,23.5036942 2.77921936,22.9783059 1.14357636,22.3769179 C0.677665929,22.2430926 0.360450318,21.8069211 0.368711141,21.324489 C0.254711781,19.1717185 0.0927996458,17.0206002 0.00193059047,14.8661775 C-0.0112867267,14.3573107 0.0349738833,13.7889661 0.406710928,13.4040117 C0.624796661,13.2123607 0.917229803,13.1446219 1.18488047,13.0487964 C5.34503105,11.7022822 9.57952903,10.6019405 13.7429839,9.26038282 Z M20.4933982,0.0225290544 C22.055809,0.14631749 23.3672973,1.5793638 23.35503,3.14735065 C23.4085601,4.57928175 22.3669529,5.91418948 20.9985889,6.29224605 C20.9974737,6.867695 20.9985889,7.44314394 20.9974737,8.01859289 C22.2041321,8.07435344 23.4029841,8.2505568 24.5828775,8.51486184 C24.4646651,9.33788766 24.4836237,9.41149159 24.1245257,10.1821025 C21.5316598,9.59550143 18.807199,9.57542763 16.2176787,10.189909 C15.8329309,9.42375891 15.8675024,9.34011808 15.7470596,8.51486184 C16.9258378,8.25167201 18.1246898,8.07323823 19.3313482,8.0197081 C19.3402699,7.17772369 19.3146201,6.33573928 19.3413851,5.49487009 C19.3491916,5.07332028 19.7305938,4.72872004 20.1454524,4.73095046 C20.8067726,4.72983525 21.4335212,4.28821164 21.6253375,3.65031087 C21.8929882,2.86743266 21.390028,1.94626826 20.5971129,1.7299173 C19.8666496,1.49460775 19.0146283,1.91727277 18.7458624,2.6310079 C18.5863872,2.9923363 18.7090604,3.4529185 18.4213359,3.75848635 C18.0979247,4.13319729 17.4455262,4.11200828 17.1511105,3.71387791 C16.8555795,3.33024528 16.9882896,2.80832647 17.0786217,2.37785497 C17.4432958,0.897969795 18.9767111,-0.170402472 20.4933982,0.0225290544 Z" id="Combined-Shape"></path>
            </g>
        </g>
    </g>
</svg>