<svg xmlns="http://www.w3.org/2000/svg" width="200" height="31" viewBox="0 0 200 31"><path fill="#003b72" fill-rule="evenodd" d="M183.265 17.978c-.019-.406.43-1.307.658-1.688.562-.938 1.5-1.713 2.527-2.125 2.267-.91 4.564-.668 6.473.855.778.62 1.75 2.257 1.682 2.958zm-4.711 2.724c0 2.359.947 5.096 2.614 6.728.43.422.38.508 1.097 1.083 1.442 1.156 2.577 1.651 4.471 2.134 2.992.766 6.584.077 8.961-1.42 1.058-.668 3.02-2.307 3.481-3.147-.132-.196-.609-.538-.83-.71-.292-.234-.502-.4-.84-.683l-1.67-1.34c-.72.787-1.405 1.519-2.355 2.14-1.811 1.18-2.82 1.184-4.859 1.184-1.291-.003-2.853-.83-3.588-1.436-.849-.704-1.864-2.276-1.805-3.287l16.534-.004c.031-2.22-.046-4.01-.984-6.165-.793-1.823-1.845-3.256-3.462-4.462-1.298-.968-3.198-1.577-4.828-1.799-3.358-.455-6.842.63-9.219 3.106-1.513 1.578-2.672 4.505-2.718 6.694zm-6.117-9.373l-.006-1.417h-4.17v20.52h4.293c.111-3.432.019-8.128.019-11.692 0-.252.07-.212.07-.728.004-.966.406-2.18.846-2.774 1.473-1.984 4.247-.803 4.773-.824V9.777c-1.292-.154-1.88-.397-3.395.064-1.682.514-2.091 1.338-2.43 1.488zm-18.56 15.274c-1.344-.003-2.725-.52-3.577-1.165-.88-.664-1.599-1.467-2.023-2.694-.889-2.568-.301-5.67 1.298-7.208 2.853-2.743 7.552-2.282 9.548.941.937 1.513 1.183 3.376.833 5.215-.25 1.304-.729 2.088-1.513 3.066-.953 1.187-2.958 1.845-4.566 1.845zm-10.794-6.482v.07c.003 1.274.345 2.956.821 4.081.594 1.393 1.046 2.039 1.894 3.054 1.234 1.47 3.832 3.109 6.48 3.312 1.97.12 3.311.15 5.224-.71 1.126-.508 1.605-.92 2.392-1.646l.025 2.147h4.566l.019-20.517h-4.311l-.003 2.208c-.84-.443-1.68-1.9-5.046-2.442-1.157-.184-2.368-.147-3.53.019-1.145.163-2.654.658-3.546 1.199-.225.135-.397.209-.603.338-.766.48-1.87 1.54-2.386 2.34-.145.225-.255.335-.381.557-1.064 1.854-1.618 3.816-1.615 5.99zm-18.573-.437c-.003.981-.034 1.04.095 2.082.096.787.314 1.642.548 2.353.851 2.595 3.02 5.07 5.725 6.057 3.008 1.095 6.596 1.144 9.511-.716.403-.258.742-.49 1.178-.787.39-.268.707-.655 1.061-.898-.184-.388-2.709-3.195-2.998-3.493-.384.32-1.049 1.546-2.681 2.106-1.529.523-3.168.335-4.598-.29-1.85-.814-3.108-3.412-3.108-5.322v-.584c-.004-2.897 1.362-5.19 3.431-6.08 1.796-.775 3.94-.658 5.597.61.704.537 1.048 1.014 1.227 1.152a41.085 41.085 0 0 0 1.46-1.69c.486-.597 1.009-1.154 1.489-1.757-1.52-1.282-2.614-2.168-5.046-2.74-2.251-.532-4.785-.193-6.689.582-2.69 1.097-4.695 3.398-5.587 6.1-.307.932-.615 2.214-.615 3.315zm-6.744-8.345l-.006-1.427h-4.17v20.517h4.364l.019-12.2c.003-1.01.412-2.355.876-2.963.538-.71 1.408-1.184 2.678-1.184.68.003 1.698.362 2.14.326V9.78c-.51-.068-1.306-.237-1.762-.2-.568.043-1.143.092-1.715.273-1.609.51-2.015 1.255-2.424 1.486zm-12.272 6.633l-11.34.006c-.17-.846 1.1-2.433 1.884-3.063.963-.775 2.18-1.252 3.755-1.252 1.688.004 2.675.379 3.785 1.221.48.363.59.56.929.96.507.6.766 1.346.987 2.128zm4.548 8.075c-.218-.206-.597-.437-.843-.65l-2.518-2.056c-.243.384-.876.947-1.22 1.285-.431.427-.945.756-1.526 1.085-1.384.785-2.239.978-4.219.963-1.897-.019-4.084-1.147-4.994-2.801-.24-.434-.67-1.292-.667-1.925l16.611-.004c.031-1.555-.147-3.231-.48-4.514-1.442-5.596-6.31-8.684-12.066-7.863-1.294.185-2.823.705-3.8 1.301-2.132 1.292-3.503 3.001-4.41 5.692-.84 2.497-.76 6.012.535 8.549.676 1.325 1.08 1.888 2.1 2.912.732.738 2.153 1.611 3.075 2.014 2.537 1.104 5.809 1.175 8.567.292 1.31-.418 2.303-1.033 3.257-1.756.482-.363.642-.393 1.039-.852.194-.224 1.436-1.223 1.559-1.672zm-41.316 4.385l4.65-.003c.107-1.618.012-3.577.012-5.222v-5.234c0-2.94.255-6.442 4.013-6.519 1.85-.037 2.752.363 3.44 1.775.606 1.239.545 3 .545 4.674 0 1.839-.096 9.375.018 10.526l4.628.003c.105-1.476.012-6.95.012-8.857 0-3.105.163-5.68-.913-8.013-2.162-4.674-7.755-5.388-11.048-3.01l-.68.467L73.385.884 68.738.865zM57.456 9.54l-2.362.03-.003 4.084 2.356.022c.123 1.943.012 4.252.012 6.227 0 2.097.003 4.23.068 6.251.166 5.108 5.086 4.28 8.819 4.278l.015-4.453-3.714-.003c-.886 0-.806-.572-.806-1.42l.012-10.89 3.044-.003.004-4.102h-3.036l-.024-4.578-4.382-.013zM37.705 20.12c.006-2.408 1.082-4.696 3.026-5.781 1.002-.56 1.697-.677 2.795-.677 1.7.004 3.121.668 4.133 1.888 1.365 1.646 1.522 3.159 1.522 5.151.003 3.869-3.296 7.017-7.482 5.76-2.629-.787-3.994-3.49-3.994-6.341zm5.258-10.63c-.667.123-.876-.056-2.328.307-4.003 1.009-6.992 4.527-7.533 8.487l-.151 1.802c-.015.222.018.32.021.612a10.462 10.462 0 0 0 1.015 4.314l1.209 1.984 1.036 1.144c.434.335.815.738 1.476 1.134 1.325.8 2.282 1.237 3.871 1.501 3.521.584 6.864-.415 9.376-2.863.12-.12.206-.255.338-.39.536-.542 1.252-1.578 1.606-2.334.489-1.055.784-1.83.965-3.088.29-2.02.154-3.754-.476-5.728-1.114-3.494-4.327-6.184-8.005-6.775-.698-.11-1.716-.237-2.42-.107zM4.821 11.283l-.019-1.371-4.588.012V30.42l4.643.01.016-12.417c0-.373.233-1.326.338-1.683.15-.507.39-.971.689-1.34 1.135-1.418 3.708-1.685 5.335-.668.292.182.323.314.51.582.772 1.088.93 2.629 1.006 4.126l-.015 11.378 4.51.022.01-12.344c.003-.378.19-1.307.31-1.694.277-.907.825-1.756 1.71-2.205 1.095-.55 1.673-.449 2.808-.449 1.242 0 2.195 1.073 2.595 2.26.446 1.332.366 2.928.366 4.56 0 1.707-.09 8.804.018 9.872l4.631-.004-.153-13.766c-.08-.622-.203-1.068-.37-1.658-.522-1.857-1.81-3.727-3.57-4.576-1.365-.655-2.173-.864-3.81-.864a8.71 8.71 0 0 0-5.153 1.695c-.443.332-.812.716-1.24 1.064-.405-.308-.891-1.129-2.22-1.9-2.198-1.283-5.289-1.099-7.45.254-.228.139-.763.585-.907.61z"/></svg>