<svg xmlns="http://www.w3.org/2000/svg" width="70" height="66" viewBox="0 0 70 66"><g fill="#ff8b99"><path d="M19.878 36.94c2.21-.933 4.812 1.08 4.535 3.44.132 2.746-3.618 4.558-5.575 2.534-2.026-1.594-1.377-5.149 1.04-5.974zM48.565 36.962c1.648-.706 3.614.22 4.352 1.799 1.194 2.12-.719 5.165-3.155 5.001-1.884-.006-3.564-1.812-3.318-3.709.038-1.327.848-2.628 2.12-3.091zM29.316 49.797c.363-.16.75-.177 1.16-.044.895.948.987 2.61 2.345 3.104 1.714.914 3.955.926 5.565-.22.908-.625 1.216-1.737 1.803-2.616.245-.486.891-.331 1.333-.28.806.554.598 1.691.226 2.448-1.43 3.139-5.518 4.49-8.666 3.334-1.764-.574-3.268-1.903-4.096-3.555-.363-.687-.476-1.742.33-2.171z"/><path d="M13.145.714l.14.01c1.026.122 2.525 3.778 4.498 10.967a1106.1 1106.1 0 0 1 2.465-1.55 29.44 29.44 0 0 1 15.245-4.226 29.44 29.44 0 0 1 15.63 4.463c.091.057.58.342 1.466.854C53.57 7.74 55.654.724 57.576.724c1.779 0 11.116 9.563 11.546 14.889-.391 1.243-8.83 3.599-8.83 3.599 3.18 4.716 4.778 10.166 4.778 16.281 0 16.335-13.242 29.577-29.577 29.577S5.915 51.828 5.915 35.493a29.45 29.45 0 0 1 3.28-13.549c.084-.165.447-.842 1.088-2.033-5.708-2.066-8.796-3.355-9.263-3.867C-.076 14.844 9.436.267 13.285.724zM35.463 25.35c-4.84 5.91-11.93 10.016-19.548 10.932-2.457.363-4.946.17-7.416.138-.042 4.913 1.377 8.814 3.83 13.053 4.3 7.413 12.366 12.549 20.95 13.03 7.477.71 15.18-1.97 20.617-7.151 5.332-5.13 8.548-11.51 8.427-18.93-1.073.027-2.143.047-3.21.073-9.037.19-18.046-4.047-23.65-11.145zM27.567 9.384c-2.47.83-4.875 1.913-7.077 3.31-2.266 1.685-4.529 3.466-6.205 5.766a27.556 27.556 0 0 0-5.761 14.868c5.802.923 11.99.066 17.134-2.868 3.91-2.076 7.103-5.272 9.68-8.836.391.372.785.744 1.11 1.182 3.113 4.093 7.311 7.428 12.151 9.23 4.324 1.702 9.124 1.989 13.69 1.308-.463-7.393-4.154-14.581-9.987-19.17-3.825-3.164-8.631-5.051-13.538-5.666-3.747-.485-7.554-.047-11.197.876zM57.3 4.234c-.128.638-.386 1.236-.599 1.847a63.392 63.392 0 0 0-2.222 6.589c1.784 1.195 3.274 2.81 4.57 4.51 1-.164 1.844-.743 2.783-1.084 1.412-.568 2.674-1.502 4.17-1.853-.323-.944-1.036-1.707-1.376-2.649-.088.45-.57.613-.887.878a85.219 85.219 0 0 0-3.416 2.289c-.256.154-.49.386-.797.42-.46-.115-.847-.399-1.258-.621-.076-.47-.132-.942-.178-1.415 1.55-1.348 3.375-2.32 4.997-3.572a21.312 21.312 0 0 0-2.5-2.893c-1.047-.871-2.034-1.87-3.287-2.446zm-44.678-.13C10.512 5.58 8.71 7.479 7.25 9.595c.01.054.027.163.034.217 1.48.944 3.04 1.765 4.51 2.72.68.41.946 1.45.336 2.032-.371.264-.804.62-1.284.539-1.103-.655-2.17-1.367-3.287-1.999-.596-.324-1.351-.578-1.648-1.239-.558.766-.924 1.635-1.343 2.48 1.217.752 2.626 1.094 3.903 1.727 1.071.24 2.006.87 3.1 1.04 1.167-1.714 2.623-3.203 4.184-4.555.323-.217.105-.603.016-.879-.9-2.584-2.016-5.083-3.15-7.572z"/></g></svg>