<svg xmlns="http://www.w3.org/2000/svg" width="63" height="46" viewBox="0 0 63 46"><g fill="#86a9bc"><path d="M48.067 38.722V41a1 1 0 0 0 2.003 0v-2.278A1.993 1.993 0 0 0 51.072 37a2.003 2.003 0 0 0-4.006 0c0 .736.405 1.375 1.001 1.722z"/><path d="M57.08 0H5.007A5.01 5.01 0 0 0 0 5v30c0 2.757 2.246 5 5.007 5h33.046v3c0 1.654 1.348 3 3.005 3H57.08a3.006 3.006 0 0 0 3.004-3V33c0-1.654-1.348-3-3.004-3v-5c0-4.411-3.594-8-8.011-8s-8.011 3.589-8.011 8v5a3.006 3.006 0 0 0-3.005 3v5H5.007a3.006 3.006 0 0 1-3.004-3V19h36.05a1.001 1.001 0 1 0 0-2H2.003v-6h58.081v16a1 1 0 0 0 2.003 0V5c0-2.757-2.246-5-5.007-5zM43.06 25c0-3.309 2.695-6 6.009-6s6.008 2.691 6.008 6v5H43.06zm-3.004 8c0-.552.45-1 1.002-1H57.08c.552 0 1.001.448 1.001 1v10c0 .552-.45 1-1.001 1H41.058a1.002 1.002 0 0 1-1.002-1zM2.003 9V5c0-1.654 1.348-3 3.004-3H57.08a3.006 3.006 0 0 1 3.004 3v4z"/></g></svg>