<svg xmlns="http://www.w3.org/2000/svg" width="126" height="27" viewBox="0 0 126 27"><path fill="#00a9e0" d="M105.008 0l-2.444 9.072h4.158L109.683 0zM56.221 2.394v5.317h-3.805v3.881h3.868v8.341c0 4.284 1.109 6.464 6.023 6.464 1.033 0 2.646-.176 3.616-.63v-3.83c-.58.378-1.663.567-2.482.567-2.079 0-2.583-1.134-2.583-2.974v-7.988h5.065V7.66h-5.065V2.394h-4.612zm58.767 4.788c-3.692 0-7.384 1.852-7.384 5.91 0 6.967 9.929 3.994 9.929 7.761 0 1.487-1.739 2.117-3.062 2.117-1.966 0-3.175-.907-4.385-2.23l-3.062 2.86c1.853 2.066 4.335 2.81 7.157 2.81 3.755 0 7.963-1.55 7.963-5.897 0-7.081-9.928-4.448-9.928-7.711 0-1.386 1.512-1.94 2.721-1.94 1.613 0 2.772.68 3.629 1.89l2.999-2.748c-1.512-2.066-4.095-2.822-6.577-2.822zm-104.744.076h-.19C4.436 7.258 0 11.138 0 16.858s4.448 9.539 9.992 9.602c1.613 0 4.725-.68 6.627-2.57l-3.049-3.276a4.498 4.498 0 0 1-3.578 1.726c-3.402 0-5.418-2.621-5.418-5.481a5.292 5.292 0 0 1 5.405-5.481c1.273 0 2.432.743 3.528 1.827l3.226-3.15a9.072 9.072 0 0 0-6.49-2.797zm17.01 0c-2.961 0-5.784.856-7.863 2.898l2.432 2.394a7.258 7.258 0 0 1 4.914-1.865c2.47 0 4.196 1.197 4.196 3.427v.504h-1.134c-4.637 0-11.617.416-11.617 6.363 0 3.591 3.276 5.481 6.69 5.481 2.483 0 4.625-.92 5.897-2.974h.126v2.52h4.158v-10.52c.038-2.621.038-8.228-7.812-8.228zm21.168 0c-2.356 0-4.435 1.26-5.418 3.376h-.063V7.711h-4.662v18.295h4.611V16.23c0-1.033.63-4.624 4.952-4.624a9.99 9.99 0 0 1 2.268.34v-4.41a5.72 5.72 0 0 0-1.688-.277zm29.282 0c-5.544 0-10.042 3.83-10.042 9.6 0 5.721 4.448 9.602 10.042 9.602a9.576 9.576 0 0 0 7.787-3.654l-3.276-2.457a6.023 6.023 0 0 1-4.99 2.457 4.775 4.775 0 0 1-4.951-4.347H86.36v-1.26c0-6.338-3.528-9.941-8.656-9.941zm21.408 0c-2.432 0-4.499 1.26-5.481 3.376h-.05V7.711h-4.625v18.295h4.624V16.23c0-1.033.63-4.624 4.965-4.624.756 0 1.499.163 2.242.34v-4.41a5.746 5.746 0 0 0-1.663-.277zm25.401.68a1.487 1.487 0 1 0 0 2.974 1.487 1.487 0 0 0 0-2.974zm0 .29c.63 0 1.21.504 1.21 1.197s-.517 1.21-1.21 1.21a1.172 1.172 0 0 1-1.21-1.21c0-.68.505-1.197 1.21-1.197zm-.58.29v1.638h.353v-.668h.227l.403.68h.34l-.453-.68c.227 0 .403-.177.403-.454 0-.353-.176-.516-.58-.516zm.353.34h.227c.177 0 .403 0 .403.227s-.226.226-.403.226h-.227zm-47.224 1.827c2.898 0 4.662 1.663 4.662 4.347h-9.45c.34-2.634 2.016-4.347 4.788-4.347zm-47.326 7.081h.983v1.008c0 2.583-1.5 4.183-4.662 4.183-1.512 0-3.251-.756-3.251-2.394 0-2.646 4.41-2.797 6.93-2.797z"/></svg>