<svg xmlns="http://www.w3.org/2000/svg" width="100" height="15" viewBox="0 0 100 15"><g fill="none"><path fill="#bdc1c7" d="M37.188 14.384h9.171l3.485-4.8h-9.172z"/><path fill="#6c7075" d="M0 11.475v1.018h12.781l.735-1.018z"/><path fill="#bdc1c7" d="M27.016 9.584c-1.36 0-.938-.572-.72-.874.438-.604 1.188-1.653 1.626-2.241s.437-.938-.438-.938h-7.968L13.094 14.4h15.64c5.172 0 8.047-3.576 8.938-4.816zM76.625 8.487L82.765 0h-9.718l-6.14 8.487z"/><path fill="#6c7075" d="M14.89 9.584H0v1.017h14.156z"/><path fill="#bdc1c7" d="M32.234 5.356c-.437.604-1.172 1.653-1.609 2.257-.219.318-.64.874.719.874h7.125s1.14-1.589 2.11-2.924C41.89 3.75 40.686 0 36.015 0H17.594l-3.188 4.419h17.407c.875 0 .859.35.421.937z"/><path fill="#6c7075" d="M0 14.384h11.422l.734-1.017H0z"/><path fill="#bdc1c7" d="M50.469 14.384h9.172l3.484-4.8h-9.172c-.016 0-3.484 4.8-3.484 4.8z"/><g fill="#6c7075"><path d="M85.156 14.4H100v-1.017H85.89zM88.64 9.584l-.734 1.017H100V9.584zM86.531 12.493H100v-1.018H87.266z"/></g><path fill="#bdc1c7" d="M60.875 0l-3.516 4.864h-4.093L56.78 0H47.61l-6.14 8.487h22.437L70.046 0zM66.11 9.584s-.672.938-1 1.383c-1.157 1.59-.141 3.433 3.624 3.433H83.47l3.484-4.816z"/></g></svg>