<svg xmlns="http://www.w3.org/2000/svg" width="71" height="20" viewBox="0 0 71 20"><g fill="none" fill-rule="evenodd"><path d="M30.163 9.727c-1.76 0-2.64 1.628-2.64 3.322 0 1.584 1.012 3.102 2.64 3.102 1.782 0 2.552-1.496 2.553-3.102 0-1.694-.728-3.322-2.553-3.322zM68.533 16.144h-.493v.771h.493c.386 0 .495-.205.495-.386 0-.216-.109-.385-.495-.385zM16.833 9.167c-1.16 0-2.09.783-2.368 1.981h4.76c-.232-1.222-1.114-1.981-2.392-1.981zM47.735 7.046v4.046h-6.036v3.714h6.036v4.218l5.33-5.99z"/><path d="M68.522 15.288c-1.062 0-1.834.797-1.834 1.882s.772 1.88 1.834 1.88c1.062.001 1.834-.795 1.834-1.88 0-1.086-.771-1.882-1.834-1.882zm.543 3.21c-.11-.255-.097-.617-.181-.918-.072-.23-.192-.315-.458-.315h-.386v1.232h-.398v-2.715h.989c.578 0 .845.254.845.747 0 .303-.207.544-.471.579v.013c.228.037.313.242.361.616.037.24.086.663.17.76z"/><g fill-rule="nonzero"><path fill="#bdc1c7" d="M69.005 17.121v-.013c.264-.035.47-.277.47-.579 0-.493-.266-.747-.844-.747h-.99v2.715h.4v-1.231h.385c.266 0 .386.084.458.314.084.301.072.663.181.917h.471c-.084-.097-.133-.52-.17-.76-.048-.374-.133-.58-.361-.616zm-.472-.205h-.493v-.771h.493c.386 0 .495.169.495.385 0 .18-.108.386-.495.386z"/><path fill="#bdc1c7" d="M68.522 14.926c-1.205 0-2.269.905-2.269 2.244 0 1.339 1.064 2.244 2.269 2.244 1.206 0 2.267-.905 2.267-2.244 0-1.34-1.061-2.244-2.267-2.244zm0 4.125c-1.062 0-1.834-.796-1.834-1.881 0-1.086.772-1.882 1.834-1.882 1.063 0 1.834.797 1.834 1.882 0 1.086-.772 1.881-1.834 1.88z"/><path fill="#6c7075" d="M63.967 7.046H58.54l-2.542 2.909-2.64-2.91h-5.623l5.33 5.99-5.33 5.989h5.452l2.591-2.934 2.615 2.934h5.647l-5.377-6.014zM41.699 14.806v-3.714h6.036V7.046h-6.036V4.36h6.036V.155H37.262v18.868h10.473v-4.217z"/><path fill="#bdc1c7" d="M32.844.155v7.722h-.048c-.978-1.124-2.2-1.515-3.618-1.515-2.905 0-5.093 1.975-5.86 4.585-.877-2.876-3.135-4.639-6.485-4.639-2.72 0-4.868 1.221-5.988 3.21V7.046H5.222V4.36h6.136V.155H.21v18.869h5.011v-7.932h4.996a7.517 7.517 0 0 0-.229 1.865c0 3.936 3.007 6.698 6.844 6.698 3.227 0 5.354-1.516 6.478-4.277h-4.295c-.58.83-1.021 1.076-2.183 1.076-1.347 0-2.508-1.175-2.508-2.568h8.745c.38 3.126 2.815 5.822 6.157 5.822a4.28 4.28 0 0 0 3.568-1.906h.049v1.22h4.418V.156h-4.418zM14.464 11.15c.28-1.199 1.209-1.982 2.37-1.982 1.276 0 2.159.76 2.39 1.982zm15.7 5.002c-1.63 0-2.641-1.518-2.641-3.102 0-1.694.88-3.322 2.64-3.322 1.825 0 2.553 1.628 2.553 3.322 0 1.606-.771 3.102-2.553 3.102z"/></g></g></svg>