<svg xmlns="http://www.w3.org/2000/svg" width="220" height="110" viewBox="0 0 220 110"><linearGradient id="a" x1="23.164%" x2="78.795%" y1="1.524%" y2="101%"><stop offset="0" stop-color="#ff9a9e"/><stop offset="1" stop-color="#fad0c4"/></linearGradient><g fill="none"><path fill="url(#a)" d="M27.906 18.804c1.372 2.915 3.067 5.81 5.71 7.756 2.889 2.258 6.908 3.2 10.414 1.923 4.425-1.487 7.511-5.462 9.219-9.656 6.515 1.933 13.013 3.936 19.558 5.774 2.295.698 4.597 1.402 6.861 2.2 1.4.444 1.614 2.148 1.543 3.403-.188 4.542-.47 9.081-.791 13.614-.165 1.278-1.55 1.674-2.584 2.03-3.019.972-6.015 2.076-9.115 2.774-.875-2.063-1.761-4.13-2.784-6.123.728 3.952 1.6 7.89 2.063 11.893 1.06 8.998 1.741 18.086 1.18 27.144-.311 2.231-.187 4.969-2.15 6.495-1.556 1.174-3.489 1.674-5.183 2.604-2.284 1.17-4.287 2.935-5.555 5.183-1.483 2.804-2.617 5.817-3.057 8.97-1.426 2-3.824 3.017-6.14 3.597-4.545 1.09-9.38 1.02-13.881-.252-2.003-.664-4.147-1.62-5.281-3.492-.218-1.362-.433-2.727-.92-4.026-.962-2.647-1.999-5.398-4.065-7.4-1.9-1.983-4.469-3.053-6.938-4.124-1.547-.647-3.033-1.835-3.372-3.56-.909-4.059-.812-8.259-.768-12.392.154-10.209 1.312-20.397 3.355-30.398-1.104 1.878-1.785 3.969-2.781 5.908-3.416-.923-6.8-1.99-10.122-3.211A2.188 2.188 0 0 1 .75 43.301c-.232-4.371-.56-8.74-.745-13.114-.027-1.033.067-2.187.822-2.97.443-.388 1.037-.526 1.58-.72 8.447-2.735 17.046-4.969 25.5-7.693zM41.613.046c3.173.251 5.836 3.161 5.811 6.345.109 2.908-2.006 5.618-4.785 6.386-.002 1.168 0 2.337-.002 3.505 2.45.114 4.885.471 7.28 1.008-.24 1.671-.201 1.82-.93 3.386-5.265-1.192-10.798-1.232-16.056.015-.781-1.555-.71-1.725-.955-3.4 2.393-.535 4.828-.898 7.278-1.006.018-1.71-.034-3.42.02-5.127.016-.856.79-1.556 1.633-1.551 1.343-.003 2.615-.9 3.005-2.195.543-1.59-.478-3.46-2.088-3.9-1.483-.477-3.213.381-3.76 1.83-.323.734-.074 1.67-.658 2.29-.657.76-1.982.718-2.58-.09-.6-.78-.33-1.84-.147-2.714.74-3.005 3.855-5.174 6.934-4.782z"/><path fill="#8cbbce" d="M95.75 75.602c.922 0 1.674-.273 2.05-1.025 1.3-2.53 2.53-4.751 3.657-6.802-.444.991-.512 1.812-.512 2.12 0 1.161 2.324 5.16 10.869 5.16 11.621 0 22.798-8.1 22.798-15.039 0-5.81-6.016-8.476-11.04-9.023 7.143-2.53 17.226-8.545 17.226-15.825 0-5.742-4.853-9.946-16.406-9.946-11.45 0-26.523 6.733-26.523 13.5 0 1.915 1.128 3.453 3.725 3.453 2.188 0 3.828-1.778 3.828-2.359 0-.136-.068-.205-.205-.205-.205 0-.683.24-.991.24-.205 0-.342-.069-.342-.342 0-1.538 9.947-8.477 21.773-8.477 4.067 0 8.681.855 8.681 4 0 5.16-13.09 11.962-22.114 14.56 2.461-3.931 5.332-8.34 8.887-14.15.273-.48.41-.787.41-1.06 0-.616-.752-.684-1.538-.684-2.905 0-4.17.376-4.956 1.333-2.393 2.666-20.03 30.215-22.251 36.094a4.287 4.287 0 0 0-.308 1.572c0 1.607 1.094 2.905 3.281 2.905zm16.61-6.63c-4.477 0-5.229-1.539-5.229-2.461 0-1.538 1.812-1.333 1.812-1.914 0-.24-.445-.513-2.051-.513-2.358 0-3.76.957-4.683 2.222 2.393-4.273 4.478-7.828 6.802-11.553.615 1.128.923 1.435 1.367 1.435.479 0 1.368-.923 6.529-.923 8.34 0 11.347 2.872 11.347 4.239 0 2.87-7.075 9.468-15.893 9.468zm43.238 7.075c4.58 0 9.81-5.606 10.733-7.417.17-.342.205-.889.205-1.47 0-.923-.137-1.948-.205-2.393a.71.71 0 0 0-.718-.649c-.24 0-.513.103-.752.308-.547.478-5.366 6.528-8.1 6.528-.855 0-1.095-1.025-1.095-1.88 0-.376.035-.718.103-.957 1.128-6.152 6.836-15.483 7.349-16.03.307-.308.478-.923.478-1.436 0-1.23-1.162-1.777-2.598-1.777-1.4 0-1.948.137-3.076 1.88-.376-1.128-1.845-2.154-4.477-2.154-7.588 0-20.44 10.767-20.44 20.918 0 .581.034 1.128.137 1.71.342 2.426 2.393 4.682 5.332 4.682 3.418 0 8.955-3.93 12.715-8.818a8.014 8.014 0 0 0-.684 3.247c0 2.87 1.538 5.708 5.093 5.708zm-16.509-5.674c-.478 0-.683-.308-.683-.855 0-2.05 2.94-7.246 5.947-10.356 5.298-5.537 9.775-6.494 12.1-6.494-1.812 2.427-4.136 5.742-5.674 7.69-2.598 3.213-10.39 10.015-11.69 10.015zm28.267 5.605c9.707 0 22.456-15.62 22.456-23.105 0-5.435-4.273-5.674-5.845-5.674-.683 0-3.999.274-6.46 1.538 6.016-10.425 12.886-20.918 14.048-22.661.444-.684.615-1.196.615-1.572 0-.684-.58-.957-1.23-.957-.923-.034-3.452.376-4.478 1.401-1.06 1.025-23.789 34.146-23.789 45.357 0 3.418 3.282 5.673 4.683 5.673zm1.47-5.127c-.923 0-.992-1.025-.992-1.538 0-2.358 2.872-8.476 6.665-15.312.342.342.684.615.957.615 1.128 0 4.717-2.222 7.007-2.222.82 0 1.265.787 1.265 1.949 0 1.23-.444 2.87-1.401 4.546-3.008 5.4-10.357 11.962-13.501 11.962zm22.011 24.917c.308 0 .616-.034.957-.068 3.726-.478 7.349-8.75 8.067-9.502 6.699-7.212 12.031-12.031 19.243-17.568.24-.205.342-.684.342-1.265 0-1.88-.308-3.247-1.06-3.247-.24 0-.513.103-.752.308-4.477 4.067-9.81 8.886-14.629 12.954 4.068-8.408 14.185-24.986 14.766-26.114.308-.615.444-.922.444-1.196 0-.41-.307-.58-.65-1.06-.41-.546-2.29-.751-2.597-.751-1.264 0-2.666 2.358-4.136 4.546-4.99 7.45-15.483 16.918-17.294 16.918-.171 0-.274-.068-.274-.273 0-2.222 8.955-16.304 8.955-18.457 0-1.606-1.948-2.598-2.597-2.598-1.3 0-2.564 4.068-5.777 9.024-4.512 8.271-6.255 9.228-6.665 14.287-.034.137-.034.308-.034.478 0 .89.205 2.325 1.23 3.008.855.581 1.846.923 2.7.923h.24c3.828-.41 7.964-4.477 11.484-8.34-3.11 5.88-4.546 8.75-5.127 9.605-.752 1.06-5.674 4.82-8.545 10.22-.82 1.538-1.435 3.417-1.435 4.99 0 1.777.82 3.178 3.144 3.178z"/><path fill="#b2d9e9" d="M93.402 94.422c5.61 0 9.075-2.625 9.075-4.645 0-2.194-2.943-3.035-5.168-3.61-2.205-.574-2.543-.994-2.543-1.322 0-.8 4.01-3.66 7.578-3.866-.216.267-.4.533-.4.718 0 .215.123.307.184.307.031 0 .062-.02.093-.04.205-.124 2.625-.021 3.23-.544.143-.123.256-.144.379-.38.103-.215.133-.584.133-.82 0-.42-1.015-.984-2.984-.984-3.66 0-10.336 2.645-10.336 5.855 0 1.466 1.241 2.338 3.671 2.902 2.297.543 4.102 1.035 4.102 1.681 0 .923-3.322 2.748-6.45 2.748-1.158 0-2.553-.44-2.553-.84 0-.093.133-.185.133-.277 0-.072-.071-.123-.184-.123-.134 0-1.17.328-1.17 1.322 0 .851.8 1.918 3.21 1.918zm11.772.092c1.179 0 2.47-1.2 3.158-1.794.318-.277.461-.513.461-.903v-.132c-.001-.278-.027-.79-.266-.79-.257 0-2.04 2.05-3.025 2.05-.328 0-.503-.102-.503-.502 0-.113.02-.246.041-.4.144-1.025 3.169-6.193 3.907-7.332.944-.05 1.682-.153 2.625-.246.308-.03.82-.195.82-.605 0-.153-.071-.215-.174-.297-.225-.164-.297-.44-.543-.543-.082-.031-.318-.041-.564-.041-.246 0-.882.05-1.015.061.153-.256 1.035-1.58 1.035-1.743 0-.113-.113-.277-.236-.277-.164 0-.164-.103-.42-.103-.164 0-.318.062-.482.062-.215 0-.236.041-.359.205-.523.574-.964 1.261-1.405 1.897-.963.041.041 0-.922.041-.441.02-.882.03-1.323.062-.339.03-1.18.482-1.282.8-.072.204-.328.348-.328.502 0 .4.564.502.851.502h.092c.226 0 1.764-.195 1.774-.184-.923 1.425-3.773 6.07-3.794 7.68 0 1.323.544 1.805 1.59 2 .092.02.184.03.287.03zm4.02-.113c2.952 0 6.654-4.942 6.654-7.013 0-.76-.574-1.077-1.056-1.077-.082 0-.205 0-.349.02v-.061c0-.123-.338-.44-.953-.44-1.908 0-5.978 3.127-5.978 6.87 0 .922.687 1.701 1.681 1.701zm.286-1.517c-.276 0-.42-.216-.42-.574.01-.616.42-1.672 1.302-2.81.944-1.21 2.123-2.03 3.066-2.348 0 .42.154.523.359.523h.072c.092 0 .143.072.143.205 0 .41-.471 1.425-1.6 2.84-1.24 1.559-2.46 2.164-2.922 2.164zm5.825 1.261c.235 0 .492-.256.625-.44a33.333 33.333 0 0 1 2.164-2.646c.512-.564 3.291-3.487 3.824-3.528l.02.02c-.358.421-.758 1.006-.758 1.6 0 .4.236.79.677.79.266 0 .44-.144.584-.328.4-.533 1.62-2.318 1.62-2.902 0-.564-.42-.923-.963-.923-1.559 0-3.159 1.661-4.122 2.748.297-.482 1.322-1.887 1.322-2.369 0-.174-.04-.4-.246-.4-.543 0-1.21.144-1.558.585-.36.451-.605.964-.903 1.456a279.77 279.77 0 0 0-2.686 4.553c-.226.39-.616.902-.616 1.261 0 .062 0 .123.072.164.103.103.77.359.944.359zm9.997.38c1.661 0 3.169-.985 4.153-1.785.154-.123.359-.318.42-.482.062-.174.062-.38.062-.553 0-.185 0-.81-.267-.81-.082 0-.174.061-.236.102-.943.708-2.368 2.123-3.865 2.123-.544 0-1.364-.082-1.364-.8 0-.462 1.743-1.425 2.164-1.661.317-.175.666-.195.963-.441.134-.113.36-.287.36-.462 0-.164-.267-.584-.442-.676-.061-.02-.143-.02-.205-.02-.523 0-.984.337-1.538.337-.04 0-.205 0-.205-.082 0-.379 1.405-1.302 1.743-1.486.267-.154.544-.298.841-.4-.02.082-.04.164-.04.266 0 .298.04.462.368.462.913 0 1.795-.79 1.795-1.702 0-.441-.677-.626-1.036-.626-1.743 0-5.147 1.446-5.147 3.466 0 .543.05.943.615 1.2-.964.359-1.959 1.004-1.959 2.143 0 1.507 1.6 1.886 2.82 1.886zm12.602.102c2.082 0 4.348-5.127 6.993-8.9.862-1.22 1.867-2.82 2.851-4.082 1.62-.246 3.65-.758 3.65-1.702 0-.174-.071-.348-.184-.523-.185-.317-.605-.482-1.128-.482-.472 0-1.036.144-1.58.441s-1.025.636-1.466.995c-1.917.39-3.62.625-5.752.625-1.61 0-2.061-.123-2.061-.328 0-.143.338-.379.338-.533 0-.082-.082-.143-.235-.143-.585 0-1.662.42-1.723 1.169-.01.123-.02.235-.02.338 0 .543.204.872 1.004 1.097.595.174 1.272.236 1.969.236 1.733 0 3.6-.41 4.737-.697-1.066 1.281-1.927 2.758-2.922 4.276-1.836 2.82-3.169 4.583-3.292 4.747a.165.165 0 0 1-.143.082c-.092 0-.185-.082-.185-.164 0-.072.052-.154.052-.215 0-.082-.041-.134-.113-.134-.062 0-.154.052-.267.144-.318.267-1.702 1.764-1.702 2.666 0 .84.636 1.087 1.18 1.087zm13.443-.123c1.682 0 3.25-1.62 3.558-2.246.051-.102.072-.266.072-.44 0-.277-.051-.585-.072-.718a.213.213 0 0 0-.215-.195.38.38 0 0 0-.226.092c-.184.164-1.763 1.784-2.368 1.948a.997.997 0 0 1-.277.052c-.236 0-.36-.134-.36-.41 0-.81 2.667-5.394 2.667-5.917 0-.297-.062-.585-.349-.697-.154-.062-.512-.164-.738-.164-1.302 0-3.507 2.286-4.645 3.67 2.061-4.173 5.845-9.823 6.009-10.14a.888.888 0 0 0 .061-.329c0-.38-.143-.4-.287-.4-.769 0-1.282.277-1.517.585-.247.318-1.005 1.466-1.764 2.789-3.63 6.327-5.035 9.454-6.132 11.997a.504.504 0 0 0-.04.174c0 .103.07.113.132.113.103 0 .257.174.482.174.205 0 .626-.194.708-.318.85-1.179 4.85-5.71 5.988-6.51-.636 1.096-2.379 4.009-2.379 5.393 0 1.066.677 1.497 1.692 1.497zm5.137.02c1.661 0 3.169-.984 4.153-1.784.154-.123.359-.318.42-.482.062-.174.062-.38.062-.553 0-.185 0-.81-.267-.81-.082 0-.174.061-.235.102-.944.708-2.369 2.123-3.866 2.123-.544 0-1.364-.082-1.364-.8 0-.462 1.743-1.425 2.164-1.661.318-.175.666-.195.964-.441.133-.113.358-.287.358-.462 0-.164-.266-.584-.44-.676-.062-.02-.144-.02-.206-.02-.522 0-.984.337-1.538.337-.04 0-.205 0-.205-.082 0-.379 1.405-1.302 1.743-1.486.267-.154.544-.298.841-.4-.02.082-.04.164-.04.266 0 .298.04.462.368.462.913 0 1.795-.79 1.795-1.702 0-.441-.677-.626-1.036-.626-1.743 0-5.147 1.446-5.147 3.466 0 .543.051.943.615 1.2-.964.359-1.959 1.004-1.959 2.143 0 1.507 1.6 1.886 2.82 1.886zm14.5-.03c1.425 0 2.993-1.713 3.26-2.236.051-.102.062-.266.062-.44 0-.277-.041-.585-.062-.718a.213.213 0 0 0-.215-.195.357.357 0 0 0-.226.092c-.195.164-1.723 1.825-2.584 1.948-.564 0-.543-.42-.543-.646 0-.8 3.312-5.127 3.312-5.844 0-.523-.42-.882-.923-.882-2.471 0-4.214 2.522-5.794 4.122.585-.718 1.58-1.805 1.58-2.82 0-.605-.38-1.046-1.016-1.046-1.19 0-3.373 2-4.214 2.881.328-.42 1.528-1.856 1.702-2.204.041-.113.082-.236.082-.339 0-.194-.04-.4-.256-.4-.492 0-1.251.165-1.548.585-1.498 2.112-2.8 4.686-3.866 7.034-.041.134-.082.257-.082.36 0 .102 0 .122.082.173.123.082.225.205.38.247h.184c.164 0 .338.02.502.02.133 0 .636-.625.718-.759.38-.656.79-1.25 1.24-1.845.472-.626 3.302-3.99 4.071-3.99.165 0 .257.144.257.298 0 .38-3.26 5.609-3.26 5.855 0 .318.737.462.983.462.185 0 .431-.041.554-.206.564-.738 1.097-1.466 1.702-2.184.513-.605 3.938-4.409 4.656-4.409.061 0 .082.02.082.062 0 .164-2.851 3.486-2.851 5.25 0 .8.318 1.61 1.866 1.763.052.01.113.01.164.01zm4.942.03c1.66 0 3.168-.984 4.153-1.784.153-.123.358-.318.42-.482.061-.174.061-.38.061-.553 0-.185 0-.81-.266-.81-.082 0-.174.061-.236.102-.943.708-2.369 2.123-3.866 2.123-.543 0-1.363-.082-1.363-.8 0-.462 1.743-1.425 2.163-1.661.318-.175.667-.195.964-.441.133-.113.359-.287.359-.462 0-.164-.267-.584-.441-.676-.062-.02-.144-.02-.205-.02-.523 0-.985.337-1.538.337-.041 0-.205 0-.205-.082 0-.379 1.404-1.302 1.743-1.486.266-.154.543-.298.84-.4-.02.082-.04.164-.04.266 0 .298.04.462.369.462.912 0 1.794-.79 1.794-1.702 0-.441-.677-.626-1.035-.626-1.744 0-5.148 1.446-5.148 3.466 0 .543.051.943.615 1.2-.963.359-1.958 1.004-1.958 2.143 0 1.507 1.6 1.886 2.82 1.886z"/></g></svg>