<svg xmlns="http://www.w3.org/2000/svg" width="52" height="52" viewBox="0 0 52 52"><g fill="#86a9bc"><path d="M47.806 11.742H36.293a6.69 6.69 0 0 0 2.288-5.032c0-3.7-3.01-6.71-6.71-6.71A6.712 6.712 0 0 0 26 3.469 6.712 6.712 0 0 0 20.129 0c-3.7 0-6.71 3.01-6.71 6.71a6.69 6.69 0 0 0 2.288 5.032H4.194A4.198 4.198 0 0 0 0 15.935v1.678a4.196 4.196 0 0 0 2.516 3.838v26.355A4.198 4.198 0 0 0 6.71 52h38.58a4.198 4.198 0 0 0 4.194-4.194V21.451A4.196 4.196 0 0 0 52 17.613v-1.678a4.198 4.198 0 0 0-4.194-4.193zm-18.451 8.387H21.806v-6.71h8.388v6.71zM31.87 1.677c2.775 0 5.032 2.257 5.032 5.033s-2.257 5.032-5.032 5.032h-5.032V6.71a5.037 5.037 0 0 1 5.032-5.033zM15.097 6.71a5.037 5.037 0 0 1 5.032-5.033 5.037 5.037 0 0 1 5.032 5.033v5.032H20.13a5.037 5.037 0 0 1-5.032-5.032zM1.677 17.613v-1.678a2.52 2.52 0 0 1 2.517-2.516h15.935v6.71H4.194a2.52 2.52 0 0 1-2.517-2.516zm2.517 30.193v-26h17.612v28.517H6.71a2.52 2.52 0 0 1-2.516-2.517zm19.29 2.517V21.806h5.032v28.517zm24.322-2.517a2.52 2.52 0 0 1-2.516 2.517H30.194V21.806h17.612zm2.517-30.193a2.52 2.52 0 0 1-2.517 2.516H31.871v-6.71h15.935a2.52 2.52 0 0 1 2.517 2.516z"/><path d="M33.548 42.774c.215 0 .43-.082.593-.246l11.742-11.741a.838.838 0 10-1.186-1.186L32.955 41.343a.838.838 0 00.593 1.431zM33.548 33.548c.215 0 .43-.082.593-.245l6.71-6.71a.838.838 0 10-1.186-1.186l-6.71 6.71a.838.838 0 00.593 1.431zM17.859 25.407L6.955 36.31a.838.838 0 101.186 1.186l10.904-10.903a.838.838 0 10-1.186-1.186zM14.504 37.149l-7.549 7.548a.838.838 0 101.186 1.186l7.549-7.548a.838.838 0 10-1.186-1.186z"/></g></svg>