<svg xmlns="http://www.w3.org/2000/svg" width="69" height="60" viewBox="0 0 69 60"><g fill="#ff8b99"><path d="M38.038.28c7.937.775 15.373 5.189 20.042 11.62 1.903 2.627 3.396 5.563 4.332 8.67 1.421 4.263 1.613 8.813 1.626 13.268.157 3.667.86 7.423 2.77 10.605.66 1.178 2.139 2.05 1.978 3.563-.019 1.283-1.402 1.777-2.35 2.29-5.051 2.33-10.64 3.016-16.088 3.8-.854.167-1.556.713-2.31 1.11-8.163 4.559-18.607 4.631-26.84.204-.785-.406-1.522-.935-2.388-1.143-5.523-.75-11.23-1.34-16.318-3.788-1.027-.557-2.36-1.203-2.486-2.514-.104-1.229 1.081-1.969 1.667-2.908 2.48-3.755 3.261-8.378 3.148-12.81-.085-2.014.299-4.002.38-6.006.773-5.932 3.139-11.73 7.106-16.245 2.06-2.161 4.222-4.307 6.874-5.74C22.852 2.107 26.97.6 31.23.245c2.259-.318 4.556-.347 6.808.035zM26.576 3.468c-2.47.829-4.874 1.913-7.076 3.308-2.266 1.686-4.528 3.466-6.204 5.766a27.55 27.55 0 0 0-5.76 14.865c5.801.923 11.989.066 17.13-2.867 3.91-2.076 7.102-5.271 9.68-8.835.39.372.784.744 1.109 1.182 3.113 4.093 7.31 7.426 12.149 9.228 4.323 1.702 9.121 1.988 13.686 1.308-.463-7.392-4.152-14.578-9.984-19.166-3.825-3.163-8.63-5.05-13.535-5.665-3.747-.485-7.553-.047-11.195.876M15.64 29.96c-2.366.35-4.764.164-7.142.132-.041 4.733 1.326 9.44 3.689 13.523 4.14 7.14 11.91 12.086 20.177 12.55 7.202.683 14.622-1.897 19.859-6.888 5.135-4.94 8.232-12.036 8.116-19.181-1.034.025-2.064.044-3.09.069-8.706.183-17.383-3.898-22.78-10.735-4.663 5.694-11.49 9.648-18.829 10.53m-8.636 7.017c-.674 3.853-1.74 7.898-4.521 10.797 3.869 2.357 8.5 2.804 12.864 3.636-4.02-3.923-7.149-8.904-8.343-14.433m54.91-.016c-1.244 5.39-4.187 10.306-8.12 14.172 4.217-.618 8.587-1.308 12.364-3.372-2.435-3.106-3.737-6.922-4.244-10.8z"/><path d="M18.888 31.018c2.21-.933 4.812 1.08 4.534 3.44.133 2.745-3.617 4.556-5.573 2.533-2.026-1.594-1.377-5.148 1.04-5.973zM47.57 31.04c1.647-.706 3.613.22 4.35 1.799 1.194 2.12-.718 5.164-3.154 5-1.884-.006-3.563-1.812-3.317-3.708.038-1.327.847-2.628 2.12-3.091zM28.325 43.873c.362-.161.75-.177 1.16-.045.894.949.985 2.61 2.343 3.104 1.714.914 3.954.926 5.564-.22.908-.625 1.217-1.737 1.803-2.616.245-.485.891-.33 1.332-.28.807.554.599 1.692.227 2.448-1.43 3.138-5.517 4.49-8.664 3.333-1.765-.573-3.267-1.903-4.096-3.554-.362-.687-.476-1.742.33-2.17z"/></g></svg>