<svg xmlns="http://www.w3.org/2000/svg" xmlns:xlink="http://www.w3.org/1999/xlink" width="70" height="61" viewBox="0 0 70 61"><defs><path id="b" d="M21.94 3.019C26.625.629 31.99-.263 37.215.066c9.294.693 18.178 5.978 23.019 13.978 2.334 3.684 3.7 7.915 4.36 12.212 1.878 1.106 3.621 2.625 4.44 4.7 1.675 3.419.79 7.778-1.831 10.478-1.931 2.097-4.85 2.866-7.61 2.994-2.653 4.416-6.521 8.047-11.009 10.556-5.087 2.65-10.94 3.975-16.666 3.285-3.015-.435-6.021-1.116-8.8-2.4-4.525-2.16-8.603-5.363-11.478-9.5a68.693 68.693 0 0 0-1.4-1.988c-1.806-.215-3.693-.356-5.306-1.275C2.618 41.753.768 39.481.253 36.812c-1.063-4.168 1.331-8.75 5.178-10.565C6.543 16.38 12.953 7.278 21.94 3.019M8.92 21.256c-.753 2.578-1.421 5.231-1.315 7.94 2.637-.018 5.225-.593 7.794-1.127 4.153-.866 8.222-2.128 12.093-3.866 5.45-2.406 10.847-5.35 14.907-9.8.528-.61 1.475-.284 1.83.347 2.445 3.431 5.545 6.375 8.967 8.819 2.709 1.793 5.684 3.515 8.98 3.793-.421-7.075-4.05-13.768-9.35-18.403C48.64 5.356 43.34 3.05 37.844 2.5c-1.775-.084-3.553-.056-5.328-.028-10.678.803-20.384 8.584-23.593 18.784m20.146 4.866a69.422 69.422 0 0 1-20.243 5.45c-.007 3.347 1.028 6.612 2.443 9.615.22.488.2 1.047.404 1.541.475.534 1.025 1.01 1.425 1.61 2.9 4.268 7.006 7.778 11.815 9.703 5.853 2.44 12.622 2.675 18.606.559 5.522-1.844 10.279-5.697 13.497-10.519 2.735-4.237 4.31-9.294 4.16-14.353-7.341-1.737-13.507-6.747-18.091-12.581-3.975 3.934-8.966 6.675-14.016 8.975m34.525 4.672c.02 3.893-1.25 7.618-2.58 11.222 1.568-.397 3.215-.894 4.362-2.107 2.44-2.353 2.909-6.587.768-9.275-.5-.63-1.056-1.24-1.753-1.65-.825.197-.818 1.135-.797 1.81M2.878 37.356c.99 2.528 3.453 4.338 6.137 4.65-.978-2.434-1.962-4.894-2.36-7.503-.171-.897-.168-1.819-.358-2.71-.407-.84-.947-1.612-1.222-2.512-2.42 1.788-3.422 5.306-2.197 8.075z"/><filter id="a" width="102.9%" height="106.8%" x="-1.4%" y="-1.7%"><feOffset dy="2" in="SourceAlpha" result="shadowOffsetOuter1"/><feColorMatrix in="shadowOffsetOuter1" values="0 0 0 0 1 0 0 0 0 1 0 0 0 0 1 0 0 0 1 0"/></filter><path id="d" d="M20.109 30.81c2.422-.573 4.713 2.227 3.8 4.509-.581 2.365-4.119 3.331-5.662 1.34-1.872-1.84-.766-5.45 1.862-5.85z"/><filter id="c" width="129.4%" height="157.1%" x="-14.7%" y="-14.3%"><feOffset dy="2" in="SourceAlpha" result="shadowOffsetOuter1"/><feColorMatrix in="shadowOffsetOuter1" values="0 0 0 0 1 0 0 0 0 1 0 0 0 0 1 0 0 0 1 0"/></filter><path id="f" d="M48.54 30.819c2.553-.685 4.957 2.453 3.79 4.772-.633 1.825-3.087 2.818-4.743 1.734-1.497-.869-2.212-2.884-1.469-4.475.435-1.006 1.391-1.716 2.422-2.031z"/><filter id="e" width="129.4%" height="156.7%" x="-14.7%" y="-14.2%"><feOffset dy="2" in="SourceAlpha" result="shadowOffsetOuter1"/><feColorMatrix in="shadowOffsetOuter1" values="0 0 0 0 1 0 0 0 0 1 0 0 0 0 1 0 0 0 1 0"/></filter><path id="h" d="M39.884 43.775c.94-.728 2.294.666 1.66 1.628-.954 2.928-4.126 4.663-7.107 4.375-3.01-.084-6.05-2.472-6.175-5.603.606-.422 1.322-.444 2.016-.26.644 1.344 1.419 2.891 3.012 3.263 1.544.216 3.338.366 4.65-.656.969-.663 1.119-1.978 1.944-2.747z"/><filter id="g" width="114.9%" height="164.1%" x="-7.4%" y="-16%"><feOffset dy="2" in="SourceAlpha" result="shadowOffsetOuter1"/><feColorMatrix in="shadowOffsetOuter1" values="0 0 0 0 1 0 0 0 0 1 0 0 0 0 1 0 0 0 1 0"/></filter></defs><g fill="none"><use fill="#000" filter="url(#a)" xlink:href="#b"/><use fill="#61c2ed" xlink:href="#b"/><use fill="#000" filter="url(#c)" xlink:href="#d"/><use fill="#61c2ed" xlink:href="#d"/><g><use fill="#000" filter="url(#e)" xlink:href="#f"/><use fill="#61c2ed" xlink:href="#f"/></g><g><use fill="#000" filter="url(#g)" xlink:href="#h"/><use fill="#61c2ed" xlink:href="#h"/></g></g></svg>