<svg xmlns="http://www.w3.org/2000/svg" width="111" height="61" viewBox="0 0 111 61"><filter id="a" width="129.3%" height="152.9%" x="-13.6%" y="-26.5%"><feOffset dx="2" dy="2" in="SourceAlpha" result="shadowOffsetOuter1"/><feGaussianBlur in="shadowOffsetOuter1" result="shadowBlurOuter1" stdDeviation="2.5"/><feColorMatrix in="shadowBlurOuter1" result="shadowMatrixOuter1" values="0 0 0 0 0.0745098039 0 0 0 0 0.0274509804 0 0 0 0 0 0 0 0 1 0"/><feMerge><feMergeNode in="shadowMatrixOuter1"/><feMergeNode in="SourceGraphic"/></feMerge></filter><g fill="none" filter="url(#a)" transform="translate(3 3)"><path fill="#fec197" d="M53.483 43.635c0 3.72-2.005 6.765-6.017 6.765h-36.77C4.68 50.4 0 45.664 0 39.576V10.824C0 5.074 4.68 0 10.697 0h36.77c3.342 0 6.016 2.706 6.016 6.089v1.014h4.346c0-3.72 2.34-6.426 6.017-6.426h8.69c4.68 0 8.692 3.044 10.029 7.441V42.62c-1.337 4.397-5.348 7.103-10.028 7.103h-8.691c-3.677 0-6.017-2.706-6.017-6.088zm0-22.663a5.971 5.971 0 0 1 0 8.456c-2.34 2.368-6.017 2.368-8.356 0a5.971 5.971 0 0 1 0-8.456c2.34-2.368 6.016-2.368 8.356 0zm-1.671 1.691c-1.337-1.353-3.677-1.353-5.348 0-1.337 1.353-1.337 3.72 0 5.412 1.671 1.353 4.01 1.353 5.348 0 1.337-1.691 1.337-4.059 0-5.412zm-22.73-3.382c3.342 0 6.016 2.706 6.016 6.088 0 3.044-2.674 5.75-6.016 5.75s-6.017-2.706-6.017-5.75c0-3.382 2.674-6.088 6.017-6.088zm0 2.367c-2.006 0-3.677 1.692-3.677 3.721s1.67 3.72 3.677 3.72c2.005 0 3.677-1.69 3.677-3.72s-1.672-3.72-3.677-3.72zm-21.06-.338v-6.427c0-4.397 3.677-7.78 8.023-7.78h35.098V6.09c0-2.03-1.67-3.721-3.677-3.721h-36.77c-4.68 0-8.356 3.72-8.356 8.456v28.752c0 4.735 3.677 8.456 8.357 8.456h36.77c3.008 0 3.676-2.03 3.676-4.397H16.045c-4.346 0-8.023-3.72-8.023-8.118V29.09c-2.005 0-4.01-1.691-4.01-3.72 0-2.369 2.005-4.06 4.01-4.06zm2.34 0h3.009c2.005 0 3.677 1.691 3.677 4.06 0 2.029-1.672 3.72-3.677 3.72h-3.009v6.427c0 3.044 2.34 5.75 5.683 5.75h48.804V9.133H16.045c-3.343 0-5.683 2.706-5.683 5.75zm3.009 2.368H8.022c-1.002 0-1.67.676-1.67 1.691 0 .677.668 1.353 1.67 1.353h5.349c.668 0 1.671-.676 1.671-1.353 0-1.015-1.003-1.691-1.671-1.691zm51.478 24.016v-4.06h-4.68c0 2.03 1.337 4.06 3.677 4.06zm0-40.59v-4.06h-1.003c-2.34 0-3.677 1.692-3.677 4.06zm2.005-4.06V47.694h5.683c4.68 0 8.357-3.72 8.357-8.456V11.5c0-4.736-3.677-8.457-8.357-8.457z"/><path stroke="#fec197" stroke-width="2.4" d="M99.789 25.343c0 4.054-.683 8.102-2.01 10.993-.654 1.426-1.47 2.581-2.419 3.373-.992.83-2.13 1.283-3.405 1.283h-9.922V9.642a227 227 0 0 0 1.247.054s3.848.15 6.414.15c.657 0 1.226-.01 1.614-.036.327-.038.402-.062.495-.093l.12-.004c1.294-.024 2.44.43 3.437 1.264.948.793 1.765 1.948 2.42 3.374 1.326 2.89 2.009 6.939 2.009 10.992z"/></g></svg>