<svg xmlns="http://www.w3.org/2000/svg" width="86" height="62" viewBox="0 0 86 62"><g fill="none"><path fill="#fec197" d="M5 0C2.247 0 0 2.247 0 5v52c0 2.753 2.247 5 5 5h58c2.753 0 5-2.247 5-5V45.437L85.719 27.72a1 1 0 0 0 0-1.438l-7-7a1 1 0 0 0-.844-.281 1 1 0 0 0-.594.281L68 28.563V5c0-2.753-2.247-5-5-5zm0 2h58c1.68 0 3 1.32 3 3v7H2V5c0-1.68 1.32-3 3-3zm46 2c-1.645 0-3 1.355-3 3s1.355 3 3 3 3-1.355 3-3-1.355-3-3-3zm9 0c-1.645 0-3 1.355-3 3s1.355 3 3 3 3-1.355 3-3-1.355-3-3-3zm-9 2c.564 0 1 .436 1 1s-.436 1-1 1-1-.436-1-1 .436-1 1-1zm9 0c.564 0 1 .436 1 1s-.436 1-1 1-1-.436-1-1 .436-1 1-1zM2 14h64v16.563L50.281 46.28A1 1 0 0 0 50 47v7a1 1 0 0 0 1 1h7a1 1 0 0 0 .719-.281L66 47.437V57c0 1.68-1.32 3-3 3H5c-1.68 0-3-1.32-3-3zm76 7.438L83.563 27 79.5 31.063 73.937 25.5zm-5.5 5.5l5.563 5.562-20.5 20.5H52v-5.563z"/><g fill="#461d02"><path d="M9.813 23A1.004 1.004 0 0010 25h36a1 1 0 100-2H10a1 1 0 00-.094 0 1.001 1.001 0 00-.094 0zM9.813 32A1.004 1.004 0 0010 34h24a1 1 0 100-2H10a1 1 0 00-.094 0 1.001 1.001 0 00-.094 0zM9.813 40A1.004 1.004 0 0010 42h32a1 1 0 100-2H10a1 1 0 00-.094 0 1.001 1.001 0 00-.094 0zM9.813 49A1.004 1.004 0 0010 51h24a1 1 0 100-2H10a1 1 0 00-.094 0 1.001 1.001 0 00-.094 0z"/></g></g></svg>