<svg xmlns="http://www.w3.org/2000/svg" width="80" height="80" viewBox="0 0 80 80"><g fill="none"><path fill="#fec197" d="M55.97 79.864c.422.091.844.136 1.27.136 4.914-.001 10.098-5.919 16.257-13.568 1.091-1.353.93-3.358-.374-4.662L60.76 49.407c-1.358-1.357-3.474-1.459-4.821-.23-6.02 5.485-7.455 5.127-9.889 3.875-8.135-4.184-14.92-10.97-19.103-19.103-1.252-2.432-1.61-3.869 3.876-9.888 1.227-1.348 1.126-3.465-.231-4.822L18.228 6.875c-1.303-1.304-3.307-1.463-4.66-.374C5.256 13.194-1.011 18.734.135 24.029 4.962 46.336 33.663 75.037 55.97 79.864zm1.069-29.48c.69-.628 1.84-.549 2.567.178l12.363 12.363c.7.701.814 1.792.256 2.483a196.523 196.523 0 0 1-3.48 4.223L52.89 53.775c1.17-.8 2.516-1.904 4.149-3.392zM14.59 7.772a1.648 1.648 0 0 1 1.042-.353c.51 0 1.039.208 1.44.61l12.364 12.363c.727.727.807 1.879.18 2.567-1.489 1.633-2.592 2.98-3.392 4.15L10.369 11.254a196.827 196.827 0 0 1 4.222-3.481zm-5.46 4.552l16.22 16.22c-1.236 2.373-.952 4.02.144 6.15 4.337 8.435 11.372 15.47 19.809 19.81 2.129 1.096 3.777 1.38 6.15.143l16.22 16.22c-4.269 4.843-8.104 8.105-11.358 7.4C34.508 73.548 6.45 45.491 1.73 23.683c-.705-3.255 2.557-7.089 7.4-11.358z"/><g fill="#461d02"><path d="M45.33 1.633c18.217 0 33.038 14.82 33.038 33.036a.816.816 0 1 0 1.632 0C80 15.553 64.447 0 45.33 0a.816.816 0 1 0 0 1.633z"/><path d="M45.33 14.667c11.03 0 20.003 8.973 20.003 20.002a.816.816 0 101.632 0c0-11.93-9.705-21.634-21.635-21.634a.816.816 0 100 1.632zM44.514 26.885c0 .451.365.816.816.816 3.842 0 6.968 3.126 6.968 6.969a.816.816 0 101.632 0c0-4.743-3.857-8.601-8.6-8.601a.816.816 0 00-.816.816z"/></g></g></svg>