<svg xmlns="http://www.w3.org/2000/svg" xmlns:xlink="http://www.w3.org/1999/xlink" width="90" height="76" viewBox="0 0 90 76"><defs><path id="b" d="M720 397c8.992 0 16.348 7.064 16.696 15.877h6.09c5.36 0 10.052 3.767 11.155 8.957l5.813 27.345c.71 3.34-.13 6.777-2.304 9.428a11.398 11.398 0 0 1-8.85 4.17H691.4c-3.45 0-6.676-1.52-8.85-4.17a11.144 11.144 0 0 1-2.304-9.428l5.813-27.345c1.103-5.19 5.794-8.957 11.155-8.957h6.09C703.652 404.064 711.008 397 720 397zm-8.155 18.224h-14.631c-4.245 0-7.96 2.983-8.834 7.093l-5.813 27.345a8.824 8.824 0 0 0 1.825 7.466 9.027 9.027 0 0 0 7.01 3.303h57.197a9.029 9.029 0 0 0 7.009-3.303 8.828 8.828 0 0 0 1.825-7.466l-5.813-27.345c-.874-4.11-4.589-7.093-8.834-7.093h-14.63v26.298c0 2.496-2.053 4.527-4.576 4.527h-7.16c-2.523 0-4.575-2.03-4.575-4.527zm13.939 0h-11.567v26.298c0 1.202.988 2.18 2.203 2.18h7.16c1.215 0 2.204-.978 2.204-2.18zM720 432.027a1.18 1.18 0 0 1 1.186 1.173v5.098A1.18 1.18 0 0 1 720 439.47a1.18 1.18 0 0 1-1.186-1.173V433.2c0-.648.531-1.173 1.186-1.173zm0-32.68c-7.683 0-13.974 6.011-14.322 13.53h28.644c-.347-7.519-6.638-13.53-14.322-13.53z"/><filter id="a" width="121.2%" height="125.8%" x="-8.1%" y="-9.9%"><feOffset dx="2" dy="2" in="SourceAlpha" result="shadowOffsetOuter1"/><feGaussianBlur in="shadowOffsetOuter1" result="shadowBlurOuter1" stdDeviation="2.5"/><feColorMatrix in="shadowBlurOuter1" values="0 0 0 0 0.0745098039 0 0 0 0 0.0274509804 0 0 0 0 0 0 0 0 1 0"/></filter></defs><g fill="none" fill-rule="evenodd" transform="translate(-677 -394)"><use fill="#000" filter="url(#a)" xlink:href="#b"/><use fill="#fec197" xlink:href="#b"/></g></svg>