<svg xmlns="http://www.w3.org/2000/svg" xmlns:xlink="http://www.w3.org/1999/xlink" width="90" height="91" viewBox="0 0 90 91"><defs><path id="b" d="M703.584 390.133c1.04-.21 2.106-.115 3.158-.088 3.71.167 7.424.033 11.134-.034.555.008 1.146-.008 1.646.266.445.245.717.69 1.057 1.05 1.023 1.17 2.38 2.015 3.835 2.546 1.008.378 2.066.59 3.105.858 3.12.815 6.155 2.056 8.81 3.898.628.424 1.159.967 1.742 1.447.729.687 1.525 1.313 2.157 2.096 1.007 1.322 1.28 3.005 1.523 4.604 1.192 7.794 2.343 15.593 3.52 23.388 1.829 12.485 3.651 24.969 5.518 37.448.09.718.276 1.44.188 2.167-.122.368-.586.417-.919.453-3.714.225-7.432.4-11.15.528-.675.006-1.367.125-2.03-.02-.374-.26-.36-.8-.457-1.202-.849-6.29-1.671-12.583-2.51-18.873-.163-1.088-.247-2.19-.476-3.267-.081-.443-.606-.662-1.002-.478-.4.076-.633.47-.625.857.003.806.096 1.609.094 2.415-.003 3.959.004 7.916-.003 11.875-.032.43.037.919-.22 1.293-.348.24-.802.186-1.202.214-12.466.006-24.931 0-37.396.003-.738-.01-1.479.026-2.215-.042-.201-.03-.467-.05-.548-.272-.114-.357-.094-.738-.107-1.107-.003-4.277.002-8.555-.002-12.832-.017-.707.014-1.466-.338-2.107-.188-.385-.744-.481-1.068-.211-.233.19-.268.507-.32.783-1 7.298-1.974 14.6-2.948 21.901-.055.38-.109.793-.368 1.098-.307.244-.734.198-1.103.212-4.002-.169-8.002-.352-12.003-.522-.35-.038-.816-.004-1.028-.343-.066-.277-.018-.565.013-.842 2.623-17.883 5.286-35.76 7.949-53.638.535-3.512 1.066-7.025 1.6-10.538.228-1.387 1.015-2.613 1.953-3.635 1.824-1.92 4.028-3.464 6.417-4.605 1.762-.855 3.611-1.518 5.49-2.06 1.13-.344 2.282-.596 3.416-.922.771-.262 1.543-.594 2.146-1.155.476-.424.82-.973 1.287-1.406.618-.616 1.431-1.016 2.28-1.201zm4.079 1.17c-.967.061-1.945.127-2.878.405a.764.764 0 0 0-.477.98c.45 1.405.861 2.835 1.542 4.152.425.743 1.346 1.004 2.152 1.033 2.26.075 4.52.019 6.78-.002.497-.005 1.02-.043 1.456-.303.466-.288.749-.794.864-1.318.296-1.28.58-2.562.834-3.851.074-.358-.09-.819-.482-.906-.943-.195-1.909-.215-2.866-.274-2.309-.059-4.62-.059-6.925.083zm-5.681 2.332c-.13.097-.225.232-.313.367a2283.434 2283.434 0 0 0-9.108 15.043c-.26.386-.112.907.261 1.161 6.813 5.565 13.617 11.143 20.434 16.705.49.441 1.43.111 1.48-.56-.026-.38-.197-.728-.312-1.086-.722-2.048-1.441-4.098-2.161-6.147-2.903-8.207-5.742-16.434-8.588-24.662-.114-.302-.175-.681-.495-.84-.375-.162-.836-.191-1.198.019zm17.357.873c-.247.075-.469.265-.53.52-.264.974-.477 1.962-.695 2.947-1.022 4.6-2.037 9.202-3.058 13.802-.384 1.77-.804 3.534-1.157 5.31a7.168 7.168 0 0 0 .054 3.273c.201.907.607 1.748.926 2.617.456 1.313.886 2.635 1.34 3.949.17.545 1.037.647 1.337.163.397-.581.619-1.253.87-1.904 2.187-5.683 4.364-11.37 6.551-17.054.307-.822.688-1.636.762-2.521.033-.842-.337-1.627-.755-2.336-.642-1.124-1.136-2.325-1.786-3.445-.882-1.628-1.78-3.249-2.662-4.877-.214-.427-.758-.591-1.197-.444zm3.605.594c-.375.17-.462.672-.294 1.018.439.958.879 1.918 1.393 2.84a152.343 152.343 0 0 0 2.504 4.672c.22.42.466.837.572 1.304.092.528.02 1.08-.176 1.578-2.45 6.356-4.87 12.724-7.33 19.076-.858 2.171-1.726 4.36-2.165 6.66-.134.664-.207 1.337-.308 2.006-1.24 8.417-2.203 16.871-3.27 25.31-.057.623-.219 1.274.01 1.882.171.448.617.745 1.085.816.93.153 1.877.087 2.815.101h6.881c1.392-.017 2.787.043 4.177-.047.414-.04.875-.108 1.17-.43.471-.445.436-1.154.457-1.75.013-3.57.002-7.142.006-10.713-.018-1.188.049-2.378-.06-3.564-.027-.32-.027-.653-.153-.954-.122-.276-.464-.412-.749-.345-.32.055-.56.29-.835.444-.577.316-1.029.802-1.537 1.21-.756.659-1.547 1.275-2.327 1.907-.244.197-.496.423-.822.459-.218.042-.47-.075-.506-.31.007-.453.265-.87.606-1.157.472-.396.929-.81 1.399-1.208 1.294-1.162 2.666-2.236 3.956-3.402.77-.679 1.032-1.742 1.026-2.731.004-4.183 0-8.367.001-12.55.01-.452-.062-.906.006-1.356.093-.368.423-.603.686-.85.307.252.63.544.705.955.115.608.09 1.232.185 1.844 1.772 13.15 3.542 26.302 5.302 39.454.092.57.162 1.192.56 1.644.38.45 1.014.526 1.568.536 2.457-.123 4.913-.259 7.369-.389.528-.032 1.078-.008 1.573-.22.414-.17.76-.524.86-.966.199-.579.006-1.184-.063-1.767a1694.57 1694.57 0 0 1-2.74-18.059l-6.125-41.183c-.144-1.031-.305-2.078-.745-3.032-.557-1.26-1.509-2.305-2.61-3.12-.673-.598-1.448-1.057-2.19-1.56-3.274-2.01-6.996-3.138-10.724-3.974-.372-.074-.771-.254-1.143-.08zm-28.498.976c-3.13.942-6.207 2.229-8.803 4.241-1.26.987-2.547 2.038-3.307 3.477-.467.858-.584 1.842-.724 2.792-1.793 12.12-3.62 24.235-5.436 36.35-1.246 8.37-2.525 16.735-3.742 25.109-.054.312-.098.685.15.931.193.252.54.26.824.318.841.115 1.675.31 2.527.311 2.067.094 4.132.19 6.197.29.599.02 1.257-.106 1.684-.558.469-.465.593-1.143.713-1.764.601-4.536 1.178-9.076 1.834-13.605 1.266-9.007 2.48-18.022 3.73-27.032.1-.527.143-1.098.491-1.534.325-.018.657.155.717.497.195 1.006.094 2.04.12 3.059v9.948c-.02.84.027 1.716.406 2.482.342.698 1.05 1.088 1.578 1.624.287.297.617.548.927.82l4.273 3.65c.254.208.449.474.638.74.027.315-.17.771-.55.706-.414-.099-.732-.409-1.049-.673-.773-.649-1.538-1.307-2.325-1.938-.864-.688-1.692-1.43-2.65-1.987-.361-.195-1.009-.464-1.153-.051-.128.38-.09 1.17-.097 1.57.003 4.698.001 9.394.001 14.09-.012.666-.002 1.384.357 1.97.426.644 1.268.762 1.982.765 5.393.004 10.785.002 16.178.001.605-.02 1.25.03 1.803-.261.365-.179.567-.566.664-.942.188-.803.27-1.626.375-2.443 1.085-8.606 2.17-17.212 3.253-25.819.1-.83-.06-1.73-.594-2.393-.42-.55-1.014-.926-1.528-1.378-4.089-3.321-8.157-6.666-12.206-10.034-3.29-2.741-6.676-5.37-9.887-8.205-.359-.32-.75-.63-1-1.047-.037-.457.29-.841.485-1.23.543-.983 1.256-1.859 1.772-2.856 1.735-3.149 3.62-6.212 5.491-9.281.068-.116.145-.23.185-.36.197-.625-.467-1.36-1.114-1.164-1.065.261-2.144.479-3.19.814zm13.005 3.3c-.462.137-.598.702-.402 1.102 1.528 4.336 3.035 8.68 4.518 13.033.202.838 1.658.807 1.773-.067.961-4.377 1.905-8.759 2.866-13.137a.81.81 0 0 0-.187-.763c-.224-.215-.557-.24-.85-.245-2.39.003-4.782.003-7.173 0-.184 0-.372.01-.545.077z"/><filter id="a" height="119.8%" x="-8.8%" y="-8.6%"><feOffset dx="1" dy="1" in="SourceAlpha" result="shadowOffsetOuter1"/><feGaussianBlur in="shadowOffsetOuter1" result="shadowBlurOuter1" stdDeviation="2.5"/><feColorMatrix in="shadowBlurOuter1" values="0 0 0 0 0.0745098039 0 0 0 0 0.0274509804 0 0 0 0 0 0 0 0 1 0"/></filter></defs><g fill="none" fill-rule="evenodd" transform="translate(-667 -386)"><use fill="#000" filter="url(#a)" xlink:href="#b"/><use fill="#fec197" xlink:href="#b"/></g></svg>