<svg xmlns="http://www.w3.org/2000/svg" width="175" height="63" viewBox="0 0 175 63"><g fill="none" fill-rule="evenodd"><path fill="#2d1817" fill-rule="nonzero" d="M63.783 49.127a.462.462 0 0 1 .112.685l-6.358 7.828a.494.494 0 0 1-.67.084c-.033-.024-3.4-2.443-8.922-2.443-.736 0-1.487.043-2.234.128-4.767.541-8.256 6.444-8.29 6.504a.485.485 0 0 1-.421.238.486.486 0 0 1-.42-.238c-.035-.06-3.532-5.963-8.29-6.504-.748-.085-1.5-.128-2.235-.128-5.543 0-8.889 2.418-8.922 2.442a.491.491 0 0 1-.67-.083l-6.359-7.828a.46.46 0 0 1 .113-.684c.103-.065 10.254-6.698 10.05-16.986-.232-11.792-9.594-13.51-9.689-13.525a.488.488 0 0 1-.326-.214.463.463 0 0 1-.056-.38l2.487-8.47a.482.482 0 0 1 .465-.342c13.808 0 15.99-8.755 16.01-8.844A.48.48 0 0 1 29.629 0h14.743a.48.48 0 0 1 .47.366c.086.361 2.244 8.845 16.01 8.845.215 0 .405.14.464.341l2.487 8.471a.456.456 0 0 1-.055.38.482.482 0 0 1-.325.213c-.387.067-9.459 1.763-9.69 13.526-.204 10.286 9.947 16.92 10.05 16.985zm-6.724 7.586l5.764-7.097c-1.996-1.43-10.246-7.937-10.055-17.493.213-10.9 7.88-13.74 9.969-14.31l-2.25-7.663C47.871 10.011 44.608 2.682 44.012.941H29.988c-.595 1.74-3.858 9.07-16.475 9.209l-2.25 7.662c2.088.571 9.756 3.41 9.971 14.311.19 9.556-8.061 16.062-10.056 17.493l5.764 7.097c1.076-.668 4.294-2.374 9.113-2.374.773 0 1.564.045 2.347.134 4.288.488 7.488 4.66 8.598 6.313 1.111-1.653 4.31-5.826 8.599-6.313a20.9 20.9 0 0 1 2.347-.134c4.819 0 8.037 1.706 9.113 2.374zM19.156 53.44c.014.017.014.039.014.061 0 .05-.03.093-.07.128a.24.24 0 0 1-.04.028c-.012.006-.019.017-.033.022h-.012a21.81 21.81 0 0 0-.936.305.277.277 0 0 1-.09.015.247.247 0 0 1-.178-.071l-.631-.656a.164.164 0 0 1-.047-.134c.004-.036.031-.064.06-.092.01-.011.01-.026.024-.036a.25.25 0 0 1 .126-.029c.074-.005.146.009.193.058l.524.546c.25-.085.516-.171.795-.255h.009c.117-.04.252.015.292.11zm4.09-1.246v.041c0 .141-.07.256-.17.274-.55.115-1.096.273-1.625.463-.017.008-.029.008-.046.008-.087 0-.168-.083-.192-.207 0-.024-.005-.05-.005-.074 0-.123.063-.231.15-.264a12.171 12.171 0 0 1 1.655-.472c.122-.017.215.082.232.231zm3.892-1.081c.097 0 .183.153.183.335v.011c-.006.184-.092.337-.195.337a9.663 9.663 0 0 0-1.625.01c-.006.01-.012.01-.018.01h-.011c-.103 0-.183-.142-.189-.326v-.02c0-.184.08-.327.177-.337.539-.05 1.077-.06 1.678-.02zm4.129 1.38c.076.039.13.128.13.233 0 .03 0 .06-.013.09-.023.097-.1.164-.187.164-.018 0-.042 0-.06-.007a6.867 6.867 0 0 0-1.59-.51h-.03c-.094-.021-.159-.126-.159-.246v-.037c.018-.142.118-.232.224-.217a7.648 7.648 0 0 1 1.685.53zm1.505.545c.528.407 1.069.895 1.597 1.437.093.1.112.29.04.425-.04.072-.112.118-.178.118a.171.171 0 0 1-.133-.063 14.34 14.34 0 0 0-1.57-1.41.347.347 0 0 1-.113-.263c0-.054.013-.099.027-.144.059-.137.19-.2.297-.128 0 0 .006 0 .006.01.007 0 .02.01.027.018zm-16.718-2.714c-.171.204-.34.4-.502.584l.425.665a.28.28 0 0 1-.032.337.17.17 0 0 1-.12.051.182.182 0 0 1-.152-.091l-.537-.84a.28.28 0 0 1 .022-.326c.202-.226.411-.467.626-.724.001-.002 0-.004.002-.005.053-.06.124-.062.19-.035.028.011.059.014.082.042a.282.282 0 0 1-.004.342zm8.047-18.55c.01.088.01.18.01.268l.01.052v.324c0 .336-.02.677-.05 1.018-.02.104-.163.186-.347.186-.01 0-.02 0-.03-.007-.173-.006-.316-.086-.306-.19v-.012c.03-.318.051-.654.051-.995 0-.093 0-.18-.01-.273V32.1c0-.104 0-.208-.01-.313 0-.11.142-.196.326-.202h.02c.184 0 .326.087.336.19zm-2.44-9.468c0-.007-.01-.013-.01-.013a16.345 16.345 0 0 0-1.4-1.554.177.177 0 0 1-.062-.135c0-.068.045-.142.116-.183.126-.074.324-.054.422.041.52.507 1.006 1.047 1.455 1.608.026.04.044.08.044.121a.248.248 0 0 1-.152.196.376.376 0 0 1-.153.027.347.347 0 0 1-.251-.101zm-3.859-4.693c.444.392.88.824 1.302 1.288a.268.268 0 0 1 .066.184.289.289 0 0 1-.066.192.257.257 0 0 1-.174.08.243.243 0 0 1-.175-.08c-.407-.44-.83-.864-1.258-1.24l-.219-.192-.05-.048a.24.24 0 0 1-.095-.216.26.26 0 0 1 .05-.16.235.235 0 0 1 .343-.048c.094.08.182.16.276.24zm6.16 12.952c-.157 0-.294-.076-.304-.17-.1-.545-.238-1.096-.412-1.629v-.041c-.01-.094.1-.17.238-.193.165-.024.33.052.367.152.174.54.312 1.096.413 1.658v.024c.009.1-.11.187-.266.199zm-.717-4.283a.198.198 0 0 1-.14.195c-.024.006-.043.013-.061.013a.203.203 0 0 1-.195-.147 16.692 16.692 0 0 0-.604-1.603.203.203 0 0 1 .104-.27.207.207 0 0 1 .274.105c.232.526.44 1.077.616 1.645.006.019.006.043.006.062zm-2.037 17.743c0 .04-.02.08-.047.12a28.475 28.475 0 0 1-1.424 1.604.391.391 0 0 1-.26.1c-.065 0-.121-.021-.177-.041-.084-.046-.13-.113-.13-.185a.18.18 0 0 1 .056-.126c.502-.524.967-1.054 1.395-1.578.084-.106.28-.139.428-.08a.228.228 0 0 1 .159.186zm1.91-4.276c.075.025.127.105.127.193 0 .025-.005.05-.011.074-.19.545-.403 1.095-.64 1.633v.006a.207.207 0 0 1-.178.118.126.126 0 0 1-.08-.025c-.07-.031-.11-.105-.11-.186a.21.21 0 0 1 .018-.087c.23-.525.437-1.057.621-1.583 0-.005 0-.012.006-.018v-.013c.04-.099.15-.154.248-.112zm-4.433 7.202a.314.314 0 0 1 .38-.036.231.231 0 0 1 .105.186.22.22 0 0 1-.065.152c-.469.524-.97 1.048-1.496 1.565v.008c-.056.05-.13.079-.202.079s-.137-.03-.186-.065a.232.232 0 0 1-.089-.165c0-.065.024-.13.073-.18a27.345 27.345 0 0 0 1.48-1.544zm5.353-11.29c.13.019.226.101.226.2v.03c-.13.555-.29 1.11-.485 1.659-.032.082-.145.147-.266.147a.285.285 0 0 1-.073-.012c-.113-.017-.202-.1-.194-.188 0-.018 0-.036.008-.048.194-.536.355-1.085.469-1.622.024-.106.161-.183.315-.165zM16.022 16.87c.004 0 .007 0 .01.007a.27.27 0 0 1 .081.2c0 .05-.005.094-.02.13-.03.072-.086.115-.147.115a.128.128 0 0 1-.086-.029l-.005-.007-.01-.005a10.903 10.903 0 0 0-.657-.506c-.073-.052-.11-.17-.087-.282l.208-1.034c.001-.007.004-.008.004-.011a.243.243 0 0 1 .074-.131c.004-.004.008-.005.012-.008a.123.123 0 0 1 .113-.018c.004 0 .007-.003.01-.002.086.036.142.173.117.302l-.172.843c.18.13.363.274.55.429.003.001.003.006.005.007zm1.108-4.372c.017.166-.087.316-.234.335-.329.042-.664.08-1.006.112l-.275 1.1c-.033.134-.14.22-.256.22a.23.23 0 0 1-.072-.012c-.141-.046-.223-.213-.182-.374l.326-1.301c.03-.122.124-.209.234-.219.394-.034.778-.077 1.154-.124.006-.002.012-.007.017-.008.148-.014.279.106.294.271zm11.483-4.346a.28.28 0 0 1-.199-.077c-.05-.046-.074-.107-.074-.176s.024-.139.082-.185c.514-.475 1.011-.982 1.458-1.504.1-.107.282-.13.398-.038a.25.25 0 0 1 .1.192.249.249 0 0 1-.059.168c-.464.538-.969 1.06-1.507 1.543v.008a.31.31 0 0 1-.199.069zm-1.674 1.081c.099-.102.254-.075.332.056.029.047.05.112.05.186a.393.393 0 0 1-.092.252c-.503.512-1.033.997-1.585 1.435a.2.2 0 0 1-.12.047c-.085 0-.163-.056-.206-.15a.39.39 0 0 1-.035-.158c0-.112.042-.214.113-.27.53-.429 1.047-.895 1.543-1.398zm-2.985 1.995c.103-.048.239-.006.284.096a.13.13 0 0 1 .026.084c0 .078-.052.15-.13.18-.51.227-1.06.436-1.616.627-.026.006-.046.012-.072.012a.221.221 0 0 1-.207-.137.2.2 0 0 1-.013-.066c0-.084.059-.162.143-.191.55-.18 1.08-.383 1.585-.605zm-4.578 2.018c-.1 0-.186-.089-.205-.218a.364.364 0 0 1 .038-.203c.03-.065.08-.105.13-.113.528-.13 1.061-.284 1.589-.47.006 0 .012 0 .018-.008h.013c.1-.032.217.057.242.194a.29.29 0 0 1 .006.073c.006.122-.062.235-.149.26a16.53 16.53 0 0 1-1.638.485zM32.294 4.42a10.181 10.181 0 0 1-.458.592c-.007 0-.007.005-.007.005-.042.052-.119.077-.196.077a.365.365 0 0 1-.125-.025c-.07-.031-.112-.088-.112-.15 0-.03.014-.061.036-.086.007-.005.014-.01.014-.016.187-.225.353-.443.5-.649.04-.057.12-.093.207-.093h1.046c.091 0 .155.044.194.1.017.023.041.044.041.072 0 .024-.022.04-.034.061a.225.225 0 0 1-.203.113l-.003-.001zm5.997-.176c.133 0 .237.152.237.336 0 .193-.104.346-.237.346h-2.582c-.133 0-.237-.153-.237-.346 0-.184.104-.336.237-.336zm4.274.75c-.019.027-.035.056-.073.075h-.007a.297.297 0 0 1-.114.025h-.002a.304.304 0 0 1-.1-.019.226.226 0 0 1-.101-.063c-.17-.204-.321-.401-.458-.59h-.909c-.13 0-.235-.078-.235-.173 0-.096.105-.174.235-.174h1.05c.088 0 .168.036.21.093.148.21.317.432.508.662.034.04.043.088.028.131-.004.012-.023.02-.032.032zm4.899 6.214a.24.24 0 0 1-.128-.047 18.056 18.056 0 0 1-1.583-1.434.373.373 0 0 1-.093-.251c0-.074.015-.14.05-.186.077-.13.227-.158.327-.065.007 0 .007.009.007.009.007 0 .007.01.015.01.482.493.993.958 1.526 1.386a.344.344 0 0 1 .113.27.3.3 0 0 1-.035.159c-.043.093-.121.149-.2.149zm2.394.384c-.077-.042-.122-.107-.122-.185 0-.03.006-.06.019-.084.052-.102.188-.144.292-.096.506.222 1.038.425 1.584.61.084.03.143.102.143.186 0 .024 0 .048-.014.072-.026.078-.11.131-.201.131a.251.251 0 0 1-.072-.012c-.571-.191-1.116-.4-1.63-.622zM44.12 6.21c.447.514.936 1.02 1.456 1.504a.224.224 0 0 1 .083.176.25.25 0 0 1-.074.184c-.058.054-.124.077-.199.077s-.14-.023-.199-.07a19.878 19.878 0 0 1-1.506-1.548c-.041-.062-.067-.123-.058-.192a.272.272 0 0 1 .108-.177c.108-.084.298-.06.39.046zm8.826 6.55c-.093-.033-.155-.138-.155-.267 0-.025 0-.049.007-.065.031-.146.148-.227.254-.194.514.178 1.053.34 1.604.469.099.024.167.138.173.267 0 .016 0 .032-.006.049-.019.13-.105.226-.204.226-.013 0-.025 0-.038-.008a16.43 16.43 0 0 1-1.635-.477zm3.969-.087a.284.284 0 0 1-.027-.08c-.005-.025-.021-.042-.021-.068v-.027c.015-.162.148-.288.29-.27h.016l.009.006c.378.05.762.09 1.155.126.11.01.203.096.234.218l.324 1.299c.038.156-.038.316-.17.367-.006.003-.007.01-.013.011-.023 0-.047.01-.07.01-.015 0-.026-.013-.04-.016a.243.243 0 0 1-.146-.088c-.029-.036-.06-.072-.074-.122v-.014l-.27-1.079c-.338-.032-.671-.07-.998-.112l-.007-.002h-.013c-.006-.001-.011-.01-.018-.012a.249.249 0 0 1-.11-.07.279.279 0 0 1-.051-.077zm1.441 2.919c-.025-.13.027-.263.119-.3.09-.037.186.038.212.166l.211 1.039c.023.112-.014.231-.088.283-.215.151-.438.32-.666.507a.132.132 0 0 1-.066.025c-.007.002-.014.009-.021.009-.055 0-.116-.043-.147-.12-.048-.118-.022-.262.06-.334h.005c.188-.156.373-.298.554-.428zm-6.779 26.182a.19.19 0 0 1-.173-.124 18.936 18.936 0 0 1-.639-1.633c-.011-.025-.011-.05-.011-.074 0-.087.046-.167.126-.192.092-.044.213.012.248.117.184.544.398 1.082.627 1.609a.21.21 0 0 1 .018.086.21.21 0 0 1-.11.186.154.154 0 0 1-.086.025zm-.427-15.43a.203.203 0 0 1-.195.147c-.019 0-.037-.007-.061-.013a.199.199 0 0 1-.14-.195c0-.025 0-.043.005-.062.178-.556.385-1.107.623-1.645a.2.2 0 0 1 .268-.104c.08.03.123.104.123.19a.18.18 0 0 1-.019.08 16.686 16.686 0 0 0-.604 1.602zm5.443 22.562a.314.314 0 0 1-.203-.079 33.226 33.226 0 0 1-1.497-1.56s0-.007-.008-.007a.272.272 0 0 1-.056-.159c0-.072.04-.136.105-.18a.293.293 0 0 1 .38.037c.47.524.97 1.05 1.48 1.546.049.042.073.1.073.164a.221.221 0 0 1-.089.173.302.302 0 0 1-.185.065zm-6.317-13.078c.122.537.275 1.08.47 1.622.007.012.007.03.007.048.008.088-.08.17-.194.194-.023 0-.048.006-.073.006-.12 0-.234-.064-.266-.147a13.474 13.474 0 0 1-.477-1.652v-.005c-.008-.013-.008-.024-.008-.036 0-.095.097-.177.226-.195.162-.018.291.059.315.165zm2.076 8.092c.43.524.898 1.055 1.41 1.578.029.04.047.08.047.126.009.073-.046.145-.13.185a.4.4 0 0 1-.44-.059 26.685 26.685 0 0 1-1.429-1.604.201.201 0 0 1-.037-.12c0-.08.055-.145.15-.185.148-.06.344-.026.43.08zm2.477-24.834a.31.31 0 0 1 .072-.192 18.1 18.1 0 0 1 1.278-1.256c.102-.096.196-.176.298-.264h.007a.226.226 0 0 1 .334.048c.08.12.059.288-.043.376-.102.088-.196.168-.29.256-.436.384-.85.8-1.243 1.224a.237.237 0 0 1-.166.08.242.242 0 0 1-.174-.08.27.27 0 0 1-.073-.192zm-5.563 14.536h-.009c-.184 0-.336-.081-.347-.18-.03-.324-.051-.66-.051-1.003 0-.111 0-.221.01-.326 0-.116.011-.226.011-.337.01-.11.153-.191.346-.191h.01c.183.006.327.087.327.191v.013c0 .11-.01.22-.01.33v.012c-.012.104-.012.203-.012.308 0 .313.022.643.051.98v.012c0 .098-.142.185-.316.191zm2.66-11.234c-.1-.04-.153-.115-.153-.196a.19.19 0 0 1 .044-.115 16.04 16.04 0 0 1 1.455-1.618h.009c.098-.095.287-.108.413-.034.071.04.116.108.116.183a.155.155 0 0 1-.062.128 16.577 16.577 0 0 0-1.409 1.57.333.333 0 0 1-.26.11.375.375 0 0 1-.153-.028zm-1.41 6.145c.138.017.238.1.238.193v.041c-.173.51-.31 1.055-.41 1.623-.018.1-.145.176-.3.176h-.036c-.155-.012-.273-.1-.273-.2v-.017c.099-.562.245-1.119.418-1.658.027-.111.191-.182.363-.158zm7.708 21.47c.212.254.42.493.618.716a.28.28 0 0 1 .022.323l-.53.83a.18.18 0 0 1-.15.09c-.034 0-.066-.019-.097-.042-.008-.006-.016-.003-.024-.01a.277.277 0 0 1-.029-.332l.42-.658c-.16-.18-.324-.372-.492-.573l-.007-.004c-.006-.007-.006-.014-.006-.014a.298.298 0 0 1-.063-.169c0-.064.023-.12.057-.17.074-.084.2-.091.267 0 .004 0 .005.006.007.01.002.001.005 0 .007.003zm-1.766 3.049a.266.266 0 0 1 .322-.03c.1.063.116.179.038.26l-.634.648a.252.252 0 0 1-.18.07.262.262 0 0 1-.09-.015 20.816 20.816 0 0 0-.936-.3.213.213 0 0 1-.128-.094l-.003-.005a.152.152 0 0 1-.008-.126c.001-.004-.003-.008-.001-.013.002-.005.01-.006.012-.011a.205.205 0 0 1 .107-.09.273.273 0 0 1 .166-.01h.014l.012.006c.275.081.538.165.784.247zm-12.04-1.087c.106-.022.206.082.223.216v.038c0 .119-.077.224-.17.246a6.855 6.855 0 0 0-1.61.5c-.023.009-.04.016-.064.016-.082 0-.158-.066-.188-.172-.006-.021-.006-.051-.006-.081 0-.105.053-.202.129-.232a7.559 7.559 0 0 1 1.686-.53zm-3.158 1.052c.099-.08.245-.017.297.118.02.046.027.09.027.144 0 .11-.04.209-.106.263-.006.01-.013.02-.02.02-.522.397-1.051.869-1.56 1.394a.174.174 0 0 1-.133.063c-.066 0-.133-.045-.18-.118a.415.415 0 0 1-.039-.181c0-.09.027-.18.08-.236 0 0 0-.009.006-.009l.02-.027a14.013 14.013 0 0 1 1.608-1.431zm7.273-1.882c.103.01.183.153.183.337v.02c-.006.184-.086.327-.189.327h-.017a9.63 9.63 0 0 0-1.631-.02h-.006c-.11 0-.189-.144-.195-.337v-.011c0-.184.08-.325.178-.335.005-.012.01-.012.017-.012h.011c.527-.03 1.116-.02 1.649.03zm-11.442 4.952a.31.31 0 0 1 .352.012.164.164 0 0 1 .065.134c0 .052-.029.104-.073.14l-.007.006-.004.001c-.266.205-.519.41-.759.615a.277.277 0 0 1-.179.062.275.275 0 0 1-.179-.062 20.32 20.32 0 0 0-.758-.614c-.002-.001-.005 0-.006-.002-.095-.077-.095-.2-.007-.275l.002-.001c.032-.027.073-.03.112-.04.083-.02.172-.018.236.03v.003c.207.16.407.32.6.48.187-.156.383-.313.585-.469.005-.004.007-.01.012-.014.008 0 .008-.006.008-.006zm15.56-3.642c.047.015.088.066.112.123.029.066.034.132.023.207-.023.124-.1.206-.186.206-.018 0-.035 0-.053-.008a12.83 12.83 0 0 0-1.613-.454h-.017l-.006-.008c-.093-.025-.157-.132-.157-.273v-.041c.017-.149.116-.256.22-.231h.007c.564.124 1.117.28 1.665.47z"/><path fill="#6c180e" d="M5.118 20.786h64.044c2.764 0 5.004 1.998 5.004 4.464v12.5c0 2.466-2.24 4.464-5.004 4.464H5.118c-2.763 0-5.004-1.998-5.004-4.464v-12.5c0-2.466 2.24-4.464 5.004-4.464z"/><g fill-rule="nonzero"><path fill="#f7c66d" d="M14.736 36l.598-1.716-.104-.052c-.494.45-1.152.676-1.976.676h-2.392v-5.967c0-.59.054-1.025.163-1.306.108-.282.318-.484.63-.605v-.13H8.77v.13c.304.121.51.325.618.611.108.286.162.72.162 1.3v5.018c0 .58-.052 1.012-.156 1.294s-.312.487-.624.617V36zm7.488 0l.585-1.716-.104-.052c-.277.26-.572.438-.884.533s-.74.143-1.287.143h-2.197v-3.653h1.755c.59 0 1.01.07 1.261.208h.065v-1.456h-.065c-.286.156-.706.234-1.26.234h-1.756v-2.314h1.807c.546 0 .975.05 1.287.15s.611.283.897.552l.104-.065-.468-1.664h-5.707v.13c.278.121.477.31.598.565.122.256.182.653.182 1.19v5.33c0 .537-.06.934-.182 1.19a1.14 1.14 0 0 1-.598.565V36zm3.666 0v-.13c-.312-.19-.468-.464-.468-.819 0-.234.065-.533.195-.897l.234-.637h3.627l.234.637c.122.399.182.698.182.897 0 .39-.151.663-.455.819V36h2.808v-.13a1.831 1.831 0 0 1-.656-.656c-.178-.29-.366-.696-.566-1.216l-1.69-4.394c-.424-1.127-.715-2.05-.87-2.769h-2.107v.13c.243.139.364.39.364.754 0 .269-.112.715-.338 1.339l-1.859 4.901c-.355.962-.771 1.599-1.248 1.911V36zm3.224-3.484h-2.886l.56-1.521c.476-1.274.758-2.119.844-2.535h.065c.19.685.481 1.538.871 2.561zM37.655 36v-.13a1.142 1.142 0 0 1-.61-.559c-.122-.251-.183-.646-.183-1.183v-6.201h.754c.546 0 .975.05 1.287.15s.611.283.897.552l.104-.065-.468-1.664h-6.46l-.482 1.664.104.065c.295-.269.596-.453.904-.553.307-.1.734-.149 1.28-.149h.767v6.201c0 .537-.06.932-.182 1.183a1.142 1.142 0 0 1-.61.559V36zm6.058 0v-.13a1.142 1.142 0 0 1-.61-.559c-.122-.251-.183-.646-.183-1.183v-2.873h4.03v2.873c0 .537-.058.932-.175 1.183s-.319.438-.605.559V36h2.886v-.13a1.142 1.142 0 0 1-.61-.559c-.122-.251-.183-.646-.183-1.183v-5.356c0-.537.06-.932.182-1.183s.325-.438.611-.559v-.13H46.17v.13c.286.121.488.308.605.559s.175.646.175 1.183v1.443h-4.03v-1.443c0-.537.06-.932.182-1.183s.325-.438.611-.559v-.13h-2.886v.13c.286.121.488.308.605.559s.175.646.175 1.183v5.356c0 .537-.058.932-.175 1.183s-.319.438-.605.559V36zm12.597 0l.585-1.716-.104-.052c-.277.26-.572.438-.884.533s-.74.143-1.287.143h-2.197v-3.653h1.755c.59 0 1.01.07 1.261.208h.065v-1.456h-.065c-.286.156-.706.234-1.26.234h-1.756v-2.314h1.807c.546 0 .975.05 1.287.15s.611.283.897.552l.104-.065-.468-1.664h-5.707v.13c.278.121.477.31.598.565.122.256.182.653.182 1.19v5.33c0 .537-.06.934-.182 1.19a1.14 1.14 0 0 1-.598.565V36zm4.667 0v-.13a1.231 1.231 0 0 1-.637-.592c-.138-.273-.208-.673-.208-1.202v-1.69h1.586c.338 0 .585.06.741.182s.304.342.442.663l.442.975c.338.815.546 1.413.624 1.794h2.171v-.13c-.286-.087-.537-.277-.754-.572-.216-.295-.437-.72-.663-1.274l-.689-1.56-.598-.299c1.179-.364 1.768-1.166 1.768-2.405v-.338c0-.927-.236-1.58-.708-1.957-.473-.377-1.346-.565-2.62-.565h-3.822v.13c.278.121.477.314.598.578.122.265.182.67.182 1.216v5.252c0 .546-.058.951-.175 1.215s-.319.458-.605.579V36zm.897-4.628h-1.742v-3.471h1.742c.746 0 1.257.121 1.534.364.278.243.416.702.416 1.378 0 .659-.14 1.111-.422 1.359-.282.247-.791.37-1.528.37z"/><path fill="#472713" d="M93.735 31l1.2-3.56-.16-.1c-.466.453-.953.78-1.46.98-.506.2-1.133.3-1.88.3h-3.12v-8.48c0-.867.114-1.527.34-1.98.227-.453.62-.773 1.18-.96V17h-6.08v.2c.547.187.94.507 1.18.96s.36 1.113.36 1.98v7.72c0 .853-.116 1.51-.35 1.97-.233.46-.63.783-1.19.97v.2zm11.96 0l1.2-3.56-.16-.1c-.466.467-.956.797-1.47.99-.513.193-1.183.29-2.01.29h-3.14v-4.26h2.22c.96 0 1.64.12 2.04.36h.1v-2.98h-.1c-.453.267-1.133.4-2.04.4h-2.22v-2.86h2.54c.827 0 1.497.097 2.01.29.514.193 1.004.523 1.47.99l.16-.1-1-3.46h-9.68v.2c.534.187.924.497 1.17.93.247.433.37 1.063.37 1.89v7.96c0 .827-.123 1.457-.37 1.89-.246.433-.636.743-1.17.93v.2zm6.54 0v-.2c-.573-.347-.86-.827-.86-1.44 0-.32.08-.72.24-1.2l.18-.48h5.1l.16.48c.174.52.26.933.26 1.24 0 .653-.286 1.12-.86 1.4v.2h5.64v-.2c-.733-.413-1.4-1.387-2-2.92l-2.66-6.84c-.613-1.547-1.04-2.927-1.28-4.14h-4.48v.2c.494.28.74.773.74 1.48 0 .467-.133 1.053-.4 1.76l-2.86 7.52c-.533 1.427-1.2 2.407-2 2.94v.2zm3.9-5.48h-3.56l.8-2.22c.507-1.36.814-2.387.92-3.08h.1c.2.893.52 1.927.96 3.1zm13.68 5.48v-.2c-.533-.187-.923-.493-1.17-.92-.246-.427-.37-1.053-.37-1.88v-8.72h1c.827 0 1.497.097 2.01.29.514.193 1.004.523 1.47.99l.16-.1-1-3.46h-10.3l-1 3.46.16.1c.467-.467.96-.797 1.48-.99s1.194-.29 2.02-.29h.98V28c0 .827-.123 1.453-.37 1.88-.246.427-.63.733-1.15.92v.2zm9.88 0v-.2c-.52-.187-.903-.493-1.15-.92-.246-.427-.37-1.053-.37-1.88v-3.96h5.2V28c0 .827-.123 1.453-.37 1.88-.246.427-.636.733-1.17.92v.2h6.08v-.2c-.52-.187-.903-.493-1.15-.92-.246-.427-.37-1.053-.37-1.88v-8c0-.827.124-1.453.37-1.88.247-.427.63-.733 1.15-.92V17h-6.08v.2c.534.187.924.493 1.17.92.247.427.37 1.053.37 1.88v1.76h-5.2V20c0-.827.124-1.453.37-1.88.247-.427.63-.733 1.15-.92V17h-6.08v.2c.534.187.924.493 1.17.92.247.427.37 1.053.37 1.88v8c0 .827-.123 1.453-.37 1.88-.246.427-.636.733-1.17.92v.2zm19.26 0l1.2-3.56-.16-.1c-.466.467-.956.797-1.47.99-.513.193-1.183.29-2.01.29h-3.14v-4.26h2.22c.96 0 1.64.12 2.04.36h.1v-2.98h-.1c-.453.267-1.133.4-2.04.4h-2.22v-2.86h2.54c.827 0 1.497.097 2.01.29.514.193 1.004.523 1.47.99l.16-.1-1-3.46h-9.68v.2c.534.187.924.497 1.17.93.247.433.37 1.063.37 1.89v7.96c0 .827-.123 1.457-.37 1.89-.246.433-.636.743-1.17.93v.2zm8.14 0v-.2c-.973-.387-1.46-1.333-1.46-2.84v-2.24h1.72c.414 0 .73.08.95.24s.43.473.63.94l.6 1.34c.507 1.173.82 2.093.94 2.76h4.48v-.2c-.466-.16-.87-.46-1.21-.9s-.69-1.08-1.05-1.92l-.98-2.26-1.1-.52c1.72-.68 2.58-1.907 2.58-3.68v-.6c0-1.427-.41-2.437-1.23-3.03s-2.29-.89-4.41-.89h-6.42v.2c.52.187.907.5 1.16.94.254.44.38 1.073.38 1.9v7.92c0 .827-.126 1.46-.38 1.9-.253.44-.64.753-1.16.94v.2zm.46-7.46h-1.92v-4.4h1.92c.96 0 1.614.15 1.96.45.347.3.52.883.52 1.75 0 .853-.173 1.433-.52 1.74-.346.307-1 .46-1.96.46z"/><path fill="#a59981" d="M89.264 48.24c1.387 0 2.416-.267 3.088-.8s1.008-1.253 1.008-2.16v-.4c0-.875-.221-1.499-.664-1.872s-1.165-.693-2.168-.96l-1.616-.432c-.672-.17-1.123-.379-1.352-.624s-.344-.661-.344-1.248c0-.608.168-1.035.504-1.28.336-.245.872-.368 1.608-.368h.768c.747 0 1.328.059 1.744.176.416.117.768.325 1.056.624l.128-.08-.592-2.048h-3.12c-2.528 0-3.792.987-3.792 2.96v.336c0 .416.053.781.16 1.096.107.315.24.573.4.776.16.203.39.387.688.552s.584.296.856.392c.272.096.627.203 1.064.32l1.216.336c.747.203 1.227.395 1.44.576.213.181.32.528.32 1.04 0 1.184-.821 1.776-2.464 1.776-1.547 0-2.79-.395-3.728-1.184l-.128.08.576 2.064c1.013.235 2.128.352 3.344.352zm11.808-.24v-.16c-.352-.15-.603-.379-.752-.688s-.224-.795-.224-1.456v-7.632h.928c.672 0 1.2.061 1.584.184.384.123.752.35 1.104.68l.128-.08-.576-2.048h-7.952l-.592 2.048.128.08c.363-.33.733-.557 1.112-.68.379-.123.904-.184 1.576-.184h.944v7.632c0 .661-.075 1.147-.224 1.456-.15.31-.4.539-.752.688V48zm8.912.192c.97 0 1.757-.077 2.36-.232s1.059-.413 1.368-.776.515-.765.616-1.208.152-1.027.152-1.752v-3.696c0-.725-.05-1.31-.152-1.752s-.307-.845-.616-1.208-.765-.621-1.368-.776c-.603-.155-1.39-.232-2.36-.232-.96 0-1.741.077-2.344.232-.603.155-1.059.413-1.368.776s-.515.765-.616 1.208-.152 1.027-.152 1.752v3.696c0 .725.05 1.31.152 1.752s.307.845.616 1.208.765.621 1.368.776 1.384.232 2.344.232zm0-1.344c-1.173 0-1.93-.173-2.272-.52s-.512-1.048-.512-2.104v-3.712c0-1.056.17-1.752.512-2.088.341-.336 1.099-.504 2.272-.504 1.184 0 1.947.168 2.288.504.341.336.512 1.032.512 2.088v3.712c0 1.056-.173 1.757-.52 2.104s-1.107.52-2.28.52zM120.208 48v-.16a1.515 1.515 0 0 1-.784-.728c-.17-.336-.256-.83-.256-1.48v-2.08h1.952c.416 0 .72.075.912.224.192.15.373.421.544.816l.544 1.2c.416 1.003.672 1.739.768 2.208h2.672v-.16c-.352-.107-.661-.341-.928-.704-.267-.363-.539-.885-.816-1.568l-.848-1.92-.736-.368c1.45-.448 2.176-1.435 2.176-2.96v-.416c0-1.141-.29-1.944-.872-2.408-.581-.464-1.656-.696-3.224-.696h-4.704v.16c.341.15.587.387.736.712.15.325.224.824.224 1.496v6.464c0 .672-.072 1.17-.216 1.496s-.392.563-.744.712V48zm1.104-5.696h-2.144v-4.272h2.144c.917 0 1.547.15 1.888.448s.512.864.512 1.696c0 .81-.173 1.368-.52 1.672-.347.304-.973.456-1.88.456zM134.944 48l.72-2.112-.128-.064c-.341.32-.704.539-1.088.656s-.912.176-1.584.176h-2.704V42.16h2.16c.725 0 1.243.085 1.552.256h.08v-1.792h-.08c-.352.192-.87.288-1.552.288h-2.16v-2.848h2.224c.672 0 1.2.061 1.584.184.384.123.752.35 1.104.68l.128-.08-.576-2.048H127.6v.16c.341.15.587.381.736.696s.224.803.224 1.464v6.56c0 .661-.075 1.15-.224 1.464s-.395.547-.736.696V48z"/></g></g></svg>