<svg height="63" viewBox="0 0 175 63" width="175" xmlns="http://www.w3.org/2000/svg"><g fill="none" fill-rule="evenodd" transform="translate(-1)"><path d="m64.7832622 49.127059c.1129922.0728805.1899997.1878074.2108709.3188522.0208712.1296431-.0143939.2627902-.0985984.365804l-6.3585138 7.8283461c-.163371.2011221-.4613251.2361608-.6700369.0840929-.033106-.0245271-3.3998438-2.4435989-8.9220709-2.4435989-.7355292 0-1.4868918.043448-2.2339362.1282416-4.7672661.5416983-8.2563521 6.4443176-8.2908975 6.5038833-.0856438.1471626-.246136.2382632-.4203024.2382632-.1741665 0-.333939-.0911006-.4203025-.2382632-.0345454-.0595657-3.5315481-5.9628857-8.2901778-6.5038833-.7470444-.0847936-1.4991266-.1282416-2.2346559-.1282416-5.5423786 0-8.8882451 2.418371-8.9213512 2.4428981-.2101512.154871-.5081053.11773-.6707566-.0833921l-6.3585138-7.8283461c-.0834847-.1030138-.1194695-.2354601-.0978787-.365804.0208712-.130344.0978787-.2452709.210871-.3181514.1029165-.065172 10.254228-6.6979977 10.0498344-16.9853597-.2317421-11.7919238-9.5942669-13.5102216-9.6885471-13.5256386-.1345831-.0231255-.2533329-.1009114-.3267419-.213736-.0726893-.1135254-.0928408-.2515779-.0554166-.3798195l2.4872692-8.4709559c.0597348-.2018229.2490148-.34127692.4649236-.34127692 13.807367 0 15.9887655-8.75547009 16.0096367-8.84376761.049659-.21443684.2454163-.36720557.4714008-.36720557h14.7422521c.2245451 0 .4210221.15206795.4706811.36580402.0856439.36159937 2.2432924 8.84516916 16.008917 8.84516916.2159088 0 .4059085.13945402.4649236.34127692l2.4872692 8.4709559c.0381439.1282416.0179924.2662941-.0554165.3791187-.0719696.1128246-.1907195.1906105-.3253026.213736-.3864768.0665736-9.4582443 1.7631474-9.6892667 13.5256386-.2043937 10.2866612 9.9469178 16.9194869 10.0498344 16.9853597zm-6.7241194 7.5858783 5.7640449-7.0967381c-1.9957169-1.4309804-10.2463114-7.9376668-10.0555919-17.49272.2137497-10.8998385 7.8806707-13.7400754 9.9692284-14.3112062l-2.2497695-7.6622627c-12.6162702-.1387532-15.878652-7.46814828-16.4745603-9.20887085h-14.0239955c-.5959083 1.74072257-3.85829 9.07011765-16.4752799 9.20887085l-2.2497696 7.6622627c2.087838.5711308 9.7554787 3.4099662 9.9706678 14.3112062.1892801 9.5550532-8.0613144 16.0617396-10.0563116 17.49272l5.7640449 7.0967381c1.0759455-.6678376 4.2944258-2.3742222 9.11351-2.3742222.7729534 0 1.5631796.0448495 2.3469285.1338478 4.2872288.4884395 7.4877168 4.6608477 8.5982077 6.3132728 1.1104908-1.6531258 4.3102591-5.8255341 8.5982076-6.3132728.7844686-.0889983 1.5739751-.1338478 2.3469285-.1338478 4.8190842 0 8.0375645 1.7063846 9.11351 2.3742222zm-37.9028954-3.2720069c.0135639.0167053.0135639.038979.0135639.0612527 0 .0501158-.0291624.0924358-.0698542.1275168-.0115293.01058-.0250933.0189327-.0400136.0278421-.0122075.0066821-.0189895.0172621-.0325534.0222737h-.0122076c-.3357072.1019022-.6469993.2026906-.9365892.3051496-.0291624.0100231-.0596813.0150347-.0895219.0150347-.0678196 0-.1342829-.0250579-.1783657-.0712758l-.6307226-.6554033c-.037979-.0395358-.0522211-.0879811-.0467956-.1347558.003391-.0350811.0311971-.06348.0596813-.091879.0108512-.0111368.010173-.0261716.0244151-.0356379.0373008-.0239442.0820618-.0267284.1261445-.0289558.0732452-.0050115.1458123.0089095.1926078.0579116l.5242458.5457054c.2502545-.0851969.5154293-.1709506.7948462-.2544769.003391-.0011137.0061038-.0005568.0088165-.0011137.1166498-.0395358.2522891.0161484.2923027.1108116zm4.0890356-1.2458467v.0413709c0 .1406613-.0696662.2556726-.1683599.2730484-.551524.1158387-1.0972424.2738758-1.6255443.4633549-.0174165.0082742-.0290276.0082742-.0464441.0082742-.0870827 0-.16836-.082742-.191582-.2068549 0-.0239951-.0058055-.0496451-.0058055-.0744677 0-.1232855.0638606-.23085.1509434-.2639468.5457184-.1985806 1.1030479-.3557903 1.6545718-.471629.1219158-.0173758.2148041.0819145.2322206.23085zm3.8923044-1.0811892c.0973077 0 .1831673.1528302.1831673.3352075v.0112076c-.005724.1833962-.0915836.3362264-.1946152.3362264-.497986-.0407547-1.0474878-.0407547-1.6256095.0101887-.005724.0101887-.011448.0101887-.0171719.0101887h-.011448c-.1030316 0-.1831673-.1416227-.1888912-.3260378v-.0203773c0-.1833963.0801356-.3260378.1774433-.3362264.5380538-.0509434 1.0761077-.0611321 1.6771252-.0203774zm4.1294454 1.3806581c.0763417.0381191.1291936.1270637.1291936.2324519 0 .0298974 0 .0597947-.0117449.0896921-.0234897.0971664-.0998314.1644355-.187918.1644355-.0176173 0-.041107 0-.0587243-.0074744-.5285194-.2399263-1.0629112-.4118361-1.5914306-.5090025h-.0293622c-.093959-.0216756-.1585558-.1270638-.1585558-.2466532v-.0373717c.0176173-.141265.1174487-.2317045.2231526-.2167558.563754.1053881 1.127508.2840249 1.6853896.5306781zm1.5045438.5448307c.5281219.4067434 1.0694468.8948355 1.5975687 1.4362562.0924214.10033.1122259.2901436.0396092.4257248-.0396092.071406-.1122259.1175036-.1782412.1175036-.0462106 0-.0924213-.0180775-.1320304-.0632712-.5149189-.5332858-1.0430408-1.0042043-1.5711627-1.4100439-.0660152-.0551363-.1122259-.1545625-.1122259-.2621235 0-.0542325.0132031-.0994262.0264061-.1446199.0594137-.136485.1914442-.1997562.2970686-.1274463 0 0 .0066015 0 .0066015.0099427.0066015 0 .0198046.0090387.0264061.0180775zm-16.7180694-2.714784c-.1708728.2047973-.3388592.3996045-.5016502.5844216l.4248729.665056c.0663864.1041826.0525319.2547479-.03175.3368095-.0357909.0349654-.0779319.0513778-.1200728.0513778-.05715 0-.1137228-.0313975-.1518228-.0913382l-.5368639-.839883c-.0635-.0991876-.0536864-.2419035.0219364-.3261058.2014683-.2254912.4110184-.4673946.6257639-.7242832.0011546-.0014272.0005773-.0035679.0017319-.0049951.0536863-.0599406.1246909-.0613678.1905001-.0349653.0282863.0114172.0588818.0142715.0813954.0421011.0756228.0977604.073891.2497529-.0040409.3418046zm8.0478819-18.5487644c.0101887.086786.0101887.1787792.0101887.2667224l.0101887.0520716v.3245797c0 .3355727-.0203774.676931-.0509434 1.0182894-.0203774.1035646-.1630189.1851435-.3464151.1851435-.0101887 0-.0203774 0-.0305661-.0063643-.1732075-.0057857-.315849-.0862074-.3056603-.1909293v-.0115714c.030566-.3182154.0509434-.6537881.0509434-.9951464 0-.0925718 0-.1799364-.0101887-.2725081v-.0462859c0-.1041433 0-.2077079-.0101887-.3124297 0-.109929.1426415-.196715.3260377-.2025007h.0203774c.1833962 0 .3260377.086786.3362264.1909292zm-2.440513-9.4688158c0-.0067547-.0089768-.0135094-.0089768-.0135094-.4219101-.5336216-.8887042-1.0537337-1.4003824-1.5535817-.044884-.0405282-.0628377-.0878112-.0628377-.1350941 0-.067547.0448841-.1418488.1166986-.182377.1256753-.0743017.3231651-.0540376.42191.0405282.520655.5066028 1.0054027 1.046979 1.4542432 1.6076194.0269305.0405282.0448841.0810564.0448841.1215846-.0089768.0810565-.0628377.1553582-.1526058.1958864-.044884.0202641-.0987449.0270188-.1526057.0270188-.098745 0-.1974899-.0405282-.2513507-.1013205zm-3.8586425-4.6928051c.4437353.3920622.8801963.8241307 1.3021086 1.2882043.0436461.0480076.0654691.1120177.0654691.1840291 0 .0720115-.021823.1440229-.0654691.1920305-.0509205.0480076-.1091153.0800127-.1745844.0800127-.0654692 0-.1309383-.0320051-.1745844-.0800127-.4073636-.4400698-.8292759-.864137-1.2584625-1.2401966l-.2182305-.1920305-.0509205-.0480076c-.0654691-.0480076-.1018409-.1280203-.0945665-.2160342 0-.0560089.0145487-.1120178.0509204-.1600254.0800179-.1120178.2400536-.1360216.3418945-.0480076.0945665.0800127.1818587.1600253.2764253.240038zm6.1588213 12.9518237c-.1558851 0-.2934308-.0761817-.3026005-.1699438-.1008668-.5449923-.2384125-1.0958448-.412637-1.6291169v-.0410209c-.0091697-.0937621.1008668-.1699439.2384125-.1933844.1650548-.0234405.3301096.0527412.3667885.1523635.1742245.5391322.3117702 1.0958448.412637 1.6584175v.0234405c.0091698.0996223-.1100365.1875243-.2659216.1992445zm-.7157719-4.2834542c0 .091757-.054909.1712797-.1403231.1957483-.024404.0061171-.042707.0122342-.0610101.0122342-.091515 0-.1708281-.0611713-.1952321-.1468111-.1769292-.5505419-.3782624-1.0888496-.6039996-1.6026887-.012202-.0244685-.018303-.0550541-.018303-.0795227 0-.0856398.048808-.1590454.1220201-.1896311.1037171-.048937.2257372 0 .2745453.1039913.2318382.5260733.4392724 1.0766152.6162015 1.6455085.006101.0183514.006101.0428199.006101.0611713zm-2.0377358 17.7437784c0 .0391051-.0186095.0795358-.0465237.1193037-.4280176.5236104-.9118635 1.0671049-1.4236237 1.6039713-.0651331.058989-.1581804.0994197-.2605324.0994197-.0651331 0-.1209615-.0205467-.1767899-.0404307-.0837425-.045733-.1302662-.1126757-.1302662-.1849206 0-.0463959.0186095-.085501.0558284-.1259317.5024554-.5236105.9676919-1.0538489 1.3957095-1.5774594.0837426-.1060477.2791419-.1391876.4280176-.0795358.0930473.03314.1488756.1060477.1581804.1855835zm1.9110969-4.2760056c.0748321.0247338.1266389.1051188.1266389.192924 0 .0247338-.0057563.0494677-.0115126.0742015-.1899584.5441446-.4029421 1.0944727-.6389511 1.6324339v.0061834c-.0345379.0680181-.1036137.1174858-.1784458.1174858-.0287816 0-.0575631-.0061835-.0805884-.0247338-.0690758-.0309173-.10937-.1051189-.10937-.1855039 0-.0315356.0057563-.062453.0172689-.0871868.2302527-.5255942.4374801-1.0573719.6216822-1.5829662 0-.0055651 0-.0123669.0057563-.0185504v-.0123669c.0402942-.0989354.1496642-.1545865.2475216-.1119206zm-4.434008 7.2017782c.0889488-.0933671.2668464-.1141951.3800539-.0366287.0646901.0438107.1051213.1149133.1051213.1867341 0 .0574567-.0242587.1077312-.06469.1515419-.4690027.5242919-.9703504 1.0485838-1.4959569 1.5656936v.0071821c-.0566038.0502746-.12938.0790029-.2021563.0790029s-.1374663-.0287283-.1859838-.0646387c-.0566038-.0430925-.0808626-.1005492-.0889488-.1651879 0-.0646387.0242587-.1292775.0727763-.179552.5175202-.5027457 1.0188679-1.0198555 1.4797843-1.5441473zm5.3532132-11.2892272c.1293152.0176975.2263016.1002856.2263016.1999811v.0294958c-.1293152.5551098-.2909592 1.1096296-.4849321 1.6582503-.0323288.0825881-.1454796.1474787-.2667126.1474787-.0242466 0-.0484932-.0058991-.0727398-.0123882-.1131508-.0171075-.2020551-.1002855-.1939729-.1881828 0-.0176974 0-.0353949.0080822-.0471932.1939729-.5368224.3556169-1.0854431.4687677-1.6222655.0242466-.1055948.1616441-.1828736.3152059-.1651762zm-8.0162162-18.7937389c.0040475.000718.0075891 0 .0106247.0064615.0505936.0430766.0809497.1220504.0809497.2010241 0 .050256-.0050593.0933326-.0202374.1292298-.0303562.0717943-.0860091.1148709-.1467215.1148709-.0303561 0-.0607123-.0071794-.0860091-.0287177l-.0050594-.0071794c-.0065771-.0043077-.0080949-.0043077-.0096128-.0050256-.2251415-.1873832-.4452237-.354664-.657211-.5054321-.0733607-.0524098-.1097881-.1708705-.0875269-.2821517l.2084457-1.0345562c.0010118-.0071794.0035415-.0078973.0040474-.0107691.0131544-.0567175.039969-.1026659.0738667-.1313836.0040475-.0035897.0075891-.0050256.0116366-.0078974.0344036-.0236921.0733607-.0315895.1133296-.0179486.0035416.000718.0065772-.0028717.0101188-.0014359.0860091.0358972.1416621.1723064.1163653.3015362l-.1720183.8428653c.1796073.1306657.3632621.2742544.5509644.4293301.0020238.0014359.0020238.0057435.0040475.0071794zm1.108706-4.3720178c.0166104.1660511-.0877978.3158581-.2341274.3348096-.3290439.0424152-.6644156.0803182-1.0061151.111904l-.2752578 1.1000885c-.0332208.1335629-.1400019.2201982-.2554837.2201982-.0237291 0-.0482492-.0036098-.0727693-.0117318-.1407928-.0460251-.2222628-.2138811-.1819233-.3745175l.32588-1.3013353c.0308479-.1218309.1241825-.2084663.2349184-.2183933.3931126-.0342931.7775244-.0767084 1.1540266-.1245383.0055368-.0018049.0110736-.0063172.0166104-.0072196.1479116-.0144392.2784218.1055868.2942412.2707355zm11.4826384-4.3462072c-.0745514 0-.1408192-.02302709-.1988035-.07675696-.0497009-.04605417-.0745514-.10745974-.0745514-.176541s.0248505-.13816252.0828348-.18421669c.5135757-.47589313 1.0105845-.98248905 1.4578923-1.50443635.0994018-.10745974.2816383-.13048683.397607-.03837848.0579844.04605418.0994018.11513544.0994018.19189239 0 .06140557-.016567.12281113-.0579844.16886531-.4638748.53729869-.969167 1.05924599-1.5075932 1.54281482v.0076757c-.0579843.04605417-.1242521.06908126-.1988034.06908126zm-1.6742983 1.08108373c.0990566-.10250339.254717-.07454792.3325472.05591095.0283019.04659245.0495283.11182189.0495283.18636981 0 .09318491-.0353773.18636982-.0919811.25159925-.5023585.51251696-1.0330189.99707856-1.5849057 1.43504756-.0353773.0279555-.0778302.0465925-.120283.0465925-.0849057 0-.1627358-.055911-.2051887-.1490959-.0212264-.0465924-.0353773-.1025034-.0353773-.1584143 0-.1118219.0424528-.2143253.1132075-.2702363.5306604-.4286505 1.0471698-.89457507 1.5424528-1.39777357zm-2.9850404 1.99527357c.1035041-.0478618.2393531-.0059827.2846361.0957235.019407.0239309.025876.0538445.025876.0837581 0 .0777754-.051752.1495681-.12938.1794817-.5110512.2273434-1.0609165.4367386-1.6172507.6281857-.025876.0059827-.045283.0119654-.071159.0119654-.0905661 0-.1746631-.0538445-.2070081-.1376026-.006469-.0179481-.012938-.041879-.012938-.0658099 0-.0837581.058221-.1615335.1423181-.1914471.5498652-.1794816 1.0803234-.3828941 1.5849056-.6042548zm-4.5774553 2.0179823c-.0993069 0-.1862005-.0890741-.2048205-.2186364-.0062067-.0728788.0062067-.1457577.0372401-.2024412.0310334-.0647812.0806869-.1052694.1303403-.113367.5275681-.1295624 1.0613429-.2834176 1.588911-.4696635.0062066 0 .0124133 0 .01862-.0080977h.0124134c.0993069-.0323905.2172339.0566836.2420606.1943436.0062067.0242929.0062067.0485858.0062067.0728788.0062067.1214647-.0620668.2348317-.1489604.2591246-.5213614.1862459-1.0737562.3481988-1.6385644.4858588zm12.9174841-8.82539076c-.134686.18763208-.2861204.38297508-.4543034.58448679-.0020936.00257031-.0034893.00514061-.0034893.00771091-.0069785 0-.0069785.00514061-.0069785.00514061-.0418713.05140605-.1186354.07710907-.1953994.07710907-.0418713 0-.0837425-.01028121-.1256138-.02570302-.0697855-.03084363-.1116568-.08739029-.1116568-.14907755 0-.03084363.0139571-.06168726.0355906-.08687623.0069786-.0051406.0139571-.01028121.0139571-.01542181.1870251-.2251585.3531145-.44312016.499664-.64925842.0397777-.05706072.120031-.09253089.2072629-.09253089h1.0467821c.0907211 0 .1542259.04369514.1933057.09921368.0167485.02364678.0411735.0442092.0411735.07196847 0 .0246749-.0223314.04112484-.0341949.06168726-.0362885.06271538-.1032825.11257925-.2030757.11257925-.0013958 0-.0020936-.00102812-.0027915-.00102812zm5.9973637-.17630733c.1325924 0 .2372706.15283018.2372706.33622641 0 .19358491-.1046782.3464151-.2372706.3464151h-2.5820626c-.1325924 0-.2372706-.15283019-.2372706-.3464151 0-.18339623.1046782-.33622641.2372706-.33622641zm4.2742988.74948792c-.0189075.02790004-.0350139.05735007-.0735291.07543343-.0021009.00051666-.0042017.00051666-.0063025.00103333-.0343136.01446669-.0735292.02480003-.1141453.02480003h-.0028011c-.0350138 0-.0679269-.00826667-.0994394-.01911669-.0413164-.01446668-.0777308-.03461671-.1015402-.06355008-.1687669-.20356691-.3207271-.40093382-.4572813-.59003406h-.9089602c-.1302516 0-.2352933-.07750009-.2352933-.17308354 0-.09558346.1050417-.17308355.2352933-.17308355h1.0504163c.0875347 0 .1673663.03565004.2086827.09300011.1484589.2102836.3172257.43193387.5084015.66133415.0343136.04081672.0427169.08835011.0280111.1312335-.0042017.01240001-.0231091.02015002-.0315125.03203337zm4.898479 6.21447437c-.0426008 0-.0852015-.018619-.1278023-.0465474-.5538097-.4468548-1.0934192-.9309474-1.5833278-1.43365903-.056801-.06516632-.0923016-.14895158-.0923016-.2513558 0-.07447579.0142002-.13964211.0497008-.18618948.0773914-.13033264.226494-.15826107.3266058-.06516632.0071001 0 .0071001.00930947.0071001.00930947.0071001 0 .0071001.00930948.0149103.00930948.4820984.49340213.9933074.95887588 1.5258168 1.38711168.0710013.0558568.113602.158261.113602.2699747 0 .0558569-.0071001.1117137-.0355006.1582611-.0426008.0930947-.1207021.1489516-.1988035.1489516zm2.3940834.3846995c-.0772509-.0418791-.1220434-.107689-.1220434-.1854644 0-.0299136.0058425-.0598272.0188258-.0837581.0519334-.1017062.1882585-.1435853.2921252-.0957235.5063505.2213607 1.0380184.4247732 1.583968.6102375.0843918.0299136.1428168.1017063.1428168.1854644 0 .0239309 0 .0478618-.0136325.0717926-.0259667.0777754-.1103584.1316199-.2012418.1316199-.0259667 0-.0519334-.0059827-.0714084-.0119654-.5712672-.1914471-1.1165676-.4008423-1.6294097-.622203zm-5.7366519-5.38180982c.4470865.51388908.9355699 1.02010817 1.455515 1.5033173.0587836.04601992.0836218.11504979.0836218.17640968 0 .06902988-.0248382.13805976-.0745145.18407967-.0579556.05368991-.1241907.07669987-.1987051.07669987s-.1407494-.02300996-.1987051-.06902988c-.5290524-.49087912-1.0349225-1.0047682-1.5068472-1.54933722-.040569-.06135989-.066235-.12271978-.0571277-.19174966.0082794-.06902987.0496763-.13038976.1076319-.17640968.107632-.08436985.2980577-.06135989.3891309.04601992zm8.8254403 6.54919102c-.0929057-.032377-.1548428-.1376023-.1542281-.2671103 0-.0242828 0-.0485655.0068177-.064754.0309686-.1456965.1480297-.2266391.2533228-.1942621.5140781.1780736 1.0529311.3399586 1.6047908.4694666.09848.0242828.1666109.1376023.1728046.2671104 0 .0161885 0 .032377-.0061937.0485655-.0185812.129508-.1052931.226639-.2043925.226639-.0123875 0-.0247749 0-.0371623-.0080942-.5642472-.1376023-1.1154875-.2913931-1.6357593-.4775609zm3.9691496-.0864549c-.0125655-.025225-.0219897-.0522518-.0267017-.0810804-.0047121-.0243241-.0212043-.0414411-.0212043-.0666661v-.0270268c.0149215-.1621608.1484299-.2882859.290577-.2702681h.0157068c.0031414.0009009.0054974.0045045.0086388.0054054.37775.0495491.7617827.0909902 1.1552396.1261251.1107334.0099098.2034038.0963956.2340322.2180162l.3235613 1.2990884c.0384818.1558546-.0376964.3162137-.1704194.3675646-.0054974.0027027-.0062827.0090089-.0117801.0108107-.0235603 0-.0471206.0090089-.0706809.0090089-.0149215 0-.0259163-.0126125-.0400525-.0153151-.0581154-.0108108-.105236-.0405403-.1452885-.0882876-.0290577-.0351349-.059686-.0711706-.0746076-.1216206-.0007853-.0045045 0-.0099099-.0007853-.0144143l-.2685873-1.0783695c-.3384829-.0324322-.6714683-.0702697-.9989564-.1126117-.002356 0-.0039267-.0018018-.0062827-.0018018h-.0133508c-.0062828-.0009009-.0109948-.0099098-.0180629-.0117116-.0424085-.0135134-.0793197-.0360358-.109948-.0693688-.022775-.0225224-.0353405-.0468465-.0510473-.0774769zm1.4413503 2.9183841c-.0255862-.1289156.0271213-.2628726.1187199-.2988825.0900634-.0374504.1857558.0374503.2123654.1656457l.2108303 1.0385269c.0225158.112351-.0143283.2311838-.0885283.2830381-.214924.1512418-.4375239.3197684-.665241.5070201-.020469.0165645-.0434966.0216059-.0665241.0252069-.0071642.0014404-.0133049.0086424-.0209807.0086424-.0552662 0-.1156496-.0432119-.1468648-.1202732-.0475903-.1173924-.0214924-.2614322.0598717-.3334521.0015352-.0007202.0035821.0007202.0051173-.0007202.1878026-.1548428.3730467-.2974421.5536852-.4277981zm-6.778735 26.1820278c-.0748321 0-.1439079-.0494831-.1732651-.1237078-.236009-.5257584-.4489927-1.0762583-.6389511-1.6329436-.0115126-.0247415-.0115126-.0494831-.0115126-.0742247 0-.0865955.0460505-.1670056.1266389-.1917471.0921011-.0439163.2129837.0117522.2475216.1169039.1842021.5443145.3977615 1.0824436.6274385 1.6088205.0115126.0247415.0172689.0556685.0172689.0865955 0 .0804101-.0460505.1546348-.1087944.1855617-.0287815.0185562-.0575631.0247416-.0863447.0247416zm-.4275363-15.42983c-.0244187.0856398-.1037793.1468111-.1947387.1468111-.0189245 0-.0372384-.0061171-.0616571-.0122342-.0848548-.0244686-.1397967-.1039913-.1397967-.1957483 0-.0244685 0-.0428199.0054942-.0611713.1776456-.556659.3845936-1.1072009.6232859-1.6455085.0421221-.1039913.17032-.1529283.2679946-.1039913.0793606.0305857.1220932.1039913.1220932.1896311 0 .0244686-.0054942.0550542-.018314.0795227-.2258724.5138391-.4273262 1.0521468-.6043614 1.6026887zm5.442891 22.5619055c-.0727762 0-.1455525-.0287634-.2029649-.0783803-.5264151-.5105504-1.0277628-1.0419542-1.4967655-1.5604145 0 0 0-.0071909-.0080863-.0071909-.032345-.0431451-.0557951-.1006719-.0557951-.1581987 0-.0726276.0404312-.1366261.1051213-.1797712.1132075-.0862902.2911051-.0647177.3800539.0359542.4690027.524213.9703504 1.0498642 1.4797843 1.5460328.0485176.0424261.0727763.0999529.0727763.1646705 0 .0647177-.032345.1287162-.0889488.1725804-.0557951.0431451-.1204851.0647177-.1851752.0647177zm-6.3164462-13.0776117c.1212326.5366631.2747938 1.0792236.4687658 1.6223738.0080822.0117948.0080822.029487.0080822.0471792.0080821.088461-.0800135.1710245-.1939721.1946141-.0234383 0-.048493.0058974-.0727395.0058974-.1204243 0-.2343829-.0642816-.2667115-.1474349-.1939721-.5425605-.3556155-1.0969158-.476848-1.6512711v-.0058974c-.0080821-.0123846-.0080821-.0235896-.0080821-.0359742 0-.0943583.096986-.1769219.2263007-.1946141.1616433-.0176922.290958.058974.3152045.1651272zm2.0757956 8.0921265c.4299998.5236482.8973909 1.0545877 1.4105863 1.5775731.0280435.0397708.0467391.0795415.0467391.1259407.0084131.0729131-.0467391.1451633-.1308695.1855969-.0560869.0265138-.1121738.0397707-.1776086.0397707-.102826 0-.1963043-.0391079-.261739-.098764-.5047824-.5236482-.9899344-1.0671818-1.429282-1.604087-.0280435-.0404336-.0373913-.0795415-.0373913-.1199751 0-.0795415.0551522-.1451632.1495652-.1855968.1486303-.0596561.3449346-.025851.4299998.0795415zm2.4770388-24.8337278c0-.0720114.0283244-.1360215.0719004-.1920304.4067097-.4400698.8359336-.864137 1.2782303-1.2561992.1016774-.0960152.1960922-.1760279.2977696-.2640418h.0072627c.1024036-.088014.2549198-.0640102.3340829.0480076.0798894.120019.0581014.2880456-.043576.3760596-.1016775.088014-.1960922.1680266-.2905069.2560406-.4357604.3840609-.8497327.8001268-1.241917 1.2241941-.0428497.0480076-.1082138.0800127-.1663152.0800127-.065364 0-.1307281-.0320051-.1743041-.0800127-.051565-.0560089-.0726267-.120019-.0726267-.1920305zm-5.5630189 14.5356137-.0091698.0005804c-.1844151 0-.3362264-.0818344-.347434-.1805001-.0295471-.3244359-.0509434-.6610598-.0509434-1.0034877 0-.1108537 0-.2211271.0101887-.3255966 0-.1160773.0112076-.2263506.0112076-.336624.0101886-.109693.1528302-.1915274.3464151-.1915274h.0101886c.1823774.0063842.3260378.0870579.3260378.1915274v.0121881c0 .109693-.0101887.2205468-.0101887.3302397v.0121881c-.0112075.1038892-.0112075.2025548-.0112075.3076047 0 .3134086.0213962.6436483.0509433.9802723v.0116077c0 .0986656-.1426415.1851432-.315849.1915274zm2.6599186-11.2340411c-.0996426-.0406114-.1526058-.1150657-.1535035-.1962886 0-.0406114.0179536-.0812229.0448841-.1150657.4398636-.5617916.9246114-1.1032774 1.4542432-1.617689h.0089768c.0987449-.09476.2872579-.1082972.4129332-.0338429.0718145.0406115.1166986.1082972.1166986.1827515 0 .04738-.017056.09476-.06194.1286029-.5027014.4941058-.9784723 1.0220545-1.4093592 1.570309-.0538608.0676857-.1526058.1082971-.2603275.1082971-.0538608 0-.1077217-.0067685-.1526057-.0270743zm-1.409804 6.1447982c.1373652.0175782.2374326.0996102.2374326.1933609v.041016c-.1728437.5097697-.3102089 1.054696-.4093666 1.62306-.0181941.0996101-.1455526.1757826-.3002022.1757826h-.0363881c-.1546496-.0117188-.272911-.0996101-.272911-.1992203v-.0175783c.0991576-.5625045.2456199-1.1191497.4184636-1.6582165.0263814-.111329.1910377-.1816421.3629717-.1582044zm7.7077781 21.469859c.2120584.2539422.4190001.4937764.6179825.7166812.0744763.083942.0835726.2243156.0216038.3223655l-.5292932.8302497c-.0380909.0592532-.093806.0902906-.1500896.0902906-.0346797 0-.0665169-.0190457-.0972171-.0423237-.0079593-.0056432-.0159186-.0028216-.0238779-.0098756-.0801614-.0846474-.0966485-.2327803-.0289945-.332241l.419-.657428c-.1591859-.1805811-.3234885-.3724485-.4912022-.573486-.0022741-.0021162-.0051167-.0014108-.0073908-.003527-.0056852-.0070539-.0056852-.0141079-.0056852-.0141079-.040365-.0493776-.0574206-.1058092-.0631058-.1692947 0-.0634856.0227408-.1199172.0574206-.1692948.0739077-.0846474.1989824-.0917013.2672049 0 .0034111 0 .0045482.0049378.0068223.0084647.0017055.0021162.0045481.0014108.0068222.003527zm-1.7661731 3.0491251c.0789748-.0809437.2226271-.094159.3220264-.0302851.0993993.063874.1157389.1795078.0381258.2599009l-.6338406.6481003c-.0449339.0457029-.1109732.0704816-.1797357.0704816-.0306368 0-.0612735-.0044051-.0898678-.0148672-.2913897-.1013173-.6032038-.2009827-.9368041-.2995468-.0585503-.0170698-.1028034-.0517599-.1273128-.094159-.0013616-.0016519-.0020425-.0038545-.0034041-.0055064-.0211053-.0390952-.0231478-.0825956-.0081698-.1255453.0013616-.0044051-.0034041-.0088102-.0013616-.013766.0027232-.0049557.0102122-.006057.0129355-.0110127.022467-.0401965.0599119-.0726841.1062074-.0903045.0524229-.0203736.1102924-.0231268.1668002-.0088102.0020424.0005506.0047657-.0011013.0068082-.0005507h.0068081c.0040849.0016519.007489.0044051.0115739.006057.2750501.0814944.5378454.1646406.7843011.2472363zm-12.0400095-1.0865015c.1063218-.022408.206182.0821628.2226295.2158642v.0373467c0 .1195096-.0763637.2248274-.1697623.2464885-.5410074.0971015-1.0814274.2621741-1.6095118.5004462-.0234965.0082163-.0411189.0156857-.0646154.0156857-.0816504 0-.1580141-.0664772-.1879722-.171795-.0058741-.0216611-.0058741-.0515385-.0058741-.0814159 0-.1053178.0528672-.2024193.1292309-.2322967.5521682-.2464885 1.1219589-.4250059 1.6858754-.5303237zm-3.1581595 1.0514647c.0992404-.0806277.244793-.0172127.2977212.1177707.019848.0462024.0264641.0905929.0264641.1449486 0 .1087114-.0396962.2083636-.1058564.2627193-.0059545.0099652-.0125705.0190245-.0198481.0190245-.522666.3977027-1.0512865.8696916-1.5607204 1.3951302-.0396962.0443906-.0860084.0625091-.1323205.0625091-.0661603 0-.1329822-.0452964-.1792943-.1177707-.0264641-.0534498-.0396962-.1177707-.0396962-.1811857 0-.0905929.0264641-.1802799.0793923-.2355415 0 0 0-.0090593.006616-.0090593.0059545-.0081534.0132321-.0172126.0198481-.0271779.5292821-.5435572 1.0651801-1.0236994 1.6076942-1.4313673zm7.2730935-1.8818858c.1030316.0101887.1831672.1528302.1831672.3372453v.0203774c-.0057239.1833962-.0858596.3260377-.1888912.3260377h-.0171719c-.5214544-.0509434-1.0646598-.0611321-1.6313335-.0203774h-.005724c-.109328 0-.1888912-.1436603-.1946152-.3362264v-.0112075c0-.1833963.0801357-.3250189.1774433-.3352076.0051516-.0112075.0108755-.0112075.0171719-.0112075h.011448c.5266059-.0305661 1.1161755-.0203774 1.6485054.030566zm-11.4420344 4.9519786c.0949215-.0701021.2555578-.0642603.3519396.0116836.0445401.0350511.0657149.0812016.0657149.1343624 0 .0525765-.0292066.1045689-.0730166.13962l-.0073016.006426c-.0007302.0005842-.0029207.0005842-.0036508.0011684-.2665103.2044644-.5191475.4106813-.7593718.6145616-.0467306.0397245-.1109851.0619235-.1788905.0619235-.0679053 0-.13289-.022199-.1788904-.0619235-.2402244-.2038803-.4928615-.409513-.7586417-.6139775-.0014603-.0011683-.004381-.0005841-.0058413-.0017525-.0949215-.0765281-.0949215-.1992068-.0073016-.2751507.0007301-.0005842.0021905-.0005842.0029206-.0011684.0313971-.0262882.0722864-.0297933.1117153-.0397245.0832388-.0198622.172319-.0175255.2358433.0297934v.0035051c.207367.1588981.4074322.3201329.5994657.4796151.1876524-.1559771.3833367-.3125385.5855924-.4685156.0051112-.0040893.0073017-.0105153.0124128-.0146046.0073017 0 .0073017-.0058418.0073017-.0058418zm15.5605864-3.6422705c.0465681.0156836.0873151.0660362.1111813.1238179.029105.0660362.034926.1320724.023284.2063632-.023284.1238179-.0989571.2063632-.1862723.2063632-.017463 0-.034926 0-.0523891-.0082546-.5180698-.1815996-1.0600057-.3384356-1.6130015-.453999h-.016881l-.0064031-.0082545c-.0931361-.0247636-.1571672-.1320724-.1571672-.2723994v-.0412726c.017463-.1485815.1164202-.2558904.2211983-.2311268h.005821c.5646379.1238179 1.1176338.2806539 1.6648086.4705081z" fill="#2d1817" fill-rule="nonzero"/><path d="m6.11780411 20.7856h64.04436509c2.7633647 0 5.00346 1.998825 5.00346 4.4645v12.4998c0 2.4657-2.2400953 4.464525-5.00346 4.464525h-64.04436509c-2.76328763 0-5.00346-1.998825-5.00346-4.464525v-12.4998c0-2.465675 2.24017237-4.4645 5.00346-4.4645z" fill="#6c180e"/><g fill-rule="nonzero"><path d="m15.7361961 36 .598-1.716-.104-.052c-.494.4506667-1.1526667.676-1.976.676h-2.392v-5.967c0-.5893333.0541668-1.0248333.1625-1.3065.1083333-.2816667.3185-.4831667.6305-.6045v-.13h-2.88599998v.13c.30333328.1213333.50916678.325.61749998.611.1083333.286.1625.7193333.1625 1.3v5.018c0 .5806667-.052 1.0118333-.156 1.2935s-.312.4875-.62399998.6175v.13zm7.488 0 .585-1.716-.104-.052c-.2773332.26-.572.4376667-.884.533s-.741.143-1.287.143h-2.197v-3.653h1.755c.5893333 0 1.0096668.0693333 1.261.208h.065v-1.456h-.065c-.286.156-.7063332.234-1.261.234h-1.755v-2.314h1.807c.546 0 .975.0498333 1.287.1495s.611.2838333.897.5525l.104-.065-.468-1.664h-5.707v.13c.2773333.1213333.4766668.3098333.598.5655.1213333.2556667.182.6521667.182 1.1895v5.33c0 .5373333-.0606667.9338333-.182 1.1895-.1213332.2556667-.3206667.4441667-.598.5655v.13zm3.666 0v-.13c-.312-.1906667-.468-.4636667-.468-.819 0-.234.065-.533.195-.897l.234-.637h3.627l.234.637c.1213333.3986667.182.6976667.182.897 0 .39-.1516667.663-.455.819v.13h2.808v-.13c-.26-.1473333-.4788332-.3661667-.6565-.6565-.1776667-.2903333-.3661667-.6955-.5655-1.2155l-1.69-4.394c-.4246667-1.1266667-.715-2.0496667-.871-2.769h-2.106v.13c.2426668.1386667.364.39.364.754 0 .2686667-.1126667.715-.338 1.339l-1.859 4.901c-.3553332.962-.7713332 1.599-1.248 1.911v.13zm3.224-3.484h-2.886l.559-1.521c.4766668-1.274.7583333-2.119.845-2.535h.065c.1906668.6846667.481 1.5383333.871 2.561zm8.541 3.484v-.13c-.286-.1213333-.4896667-.3076667-.611-.559-.1213332-.2513333-.182-.6456667-.182-1.183v-6.201h.754c.546 0 .975.0498333 1.287.1495s.611.2838333.897.5525l.104-.065-.468-1.664h-6.461l-.481 1.664.104.065c.2946668-.2686667.5958333-.4528333.9035-.5525.3076668-.0996667.7345-.1495 1.2805-.1495h.767v6.201c0 .5373333-.0606667.9316667-.182 1.183-.1213332.2513333-.325.4376667-.611.559v.13zm6.058 0v-.13c-.286-.1213333-.4896667-.3076667-.611-.559-.1213332-.2513333-.182-.6456667-.182-1.183v-2.873h4.03v2.873c0 .5373333-.0585.9316667-.1755 1.183s-.3185.4376667-.6045.559v.13h2.886v-.13c-.286-.1213333-.4896667-.3076667-.611-.559-.1213332-.2513333-.182-.6456667-.182-1.183v-5.356c0-.5373333.0606668-.9316667.182-1.183.1213333-.2513333.325-.4376667.611-.559v-.13h-2.886v.13c.286.1213333.4875.3076667.6045.559s.1755.6456667.1755 1.183v1.443h-4.03v-1.443c0-.5373333.0606668-.9316667.182-1.183.1213333-.2513333.325-.4376667.611-.559v-.13h-2.886v.13c.286.1213333.4875.3076667.6045.559s.1755.6456667.1755 1.183v5.356c0 .5373333-.0585.9316667-.1755 1.183s-.3185.4376667-.6045.559v.13zm12.597 0 .585-1.716-.104-.052c-.2773332.26-.572.4376667-.884.533s-.741.143-1.287.143h-2.197v-3.653h1.755c.5893333 0 1.0096668.0693333 1.261.208h.065v-1.456h-.065c-.286.156-.7063332.234-1.261.234h-1.755v-2.314h1.807c.546 0 .975.0498333 1.287.1495s.611.2838333.897.5525l.104-.065-.468-1.664h-5.707v.13c.2773333.1213333.4766668.3098333.598.5655.1213333.2556667.182.6521667.182 1.1895v5.33c0 .5373333-.0606667.9338333-.182 1.1895-.1213332.2556667-.3206667.4441667-.598.5655v.13zm4.667 0v-.13c-.286-.1213333-.4983332-.3185-.637-.5915-.1386667-.273-.208-.6738333-.208-1.2025v-1.69h1.586c.338 0 .585.0606667.741.182s.3033333.3423333.442.663l.442.975c.338.8146667.546 1.4126667.624 1.794h2.171v-.13c-.286-.0866667-.5373332-.2773333-.754-.572-.2166667-.2946667-.4376667-.7193333-.663-1.274l-.689-1.56-.598-.299c1.1786668-.364 1.768-1.1656667 1.768-2.405v-.338c0-.9273333-.2361667-1.5795-.7085-1.9565-.4723332-.377-1.3455-.5655-2.6195-.5655h-3.822v.13c.2773333.1213333.4766668.3141667.598.5785.1213333.2643333.182.6695.182 1.2155v5.252c0 .546-.0585.9511667-.1755 1.2155s-.3185.4571667-.6045.5785v.13zm.897-4.628h-1.742v-3.471h1.742c.7453333 0 1.2566668.1213333 1.534.364.2773333.2426667.416.702.416 1.378 0 .6586667-.1408332 1.1115-.4225 1.3585-.2816667.247-.7908332.3705-1.5275.3705z" fill="#f7c66d"/><path d="m94.7353292 31 1.2-3.56-.16-.1c-.4666666.4533334-.9533335.78-1.46.98-.5066666.2-1.1333335.3-1.88.3h-3.12v-8.48c0-.8666666.1133334-1.5266666.34-1.98.2266665-.4533334.62-.7733334 1.18-.96v-.2h-6.08v.2c.5466665.1866666.94.5066666 1.18.96s.36 1.1133334.36 1.98v7.72c0 .8533334-.1166666 1.51-.35 1.97-.2333335.46-.63.7833334-1.19.97v.2zm11.9599998 0 1.2-3.56-.16-.1c-.466666.4666666-.956666.7966666-1.47.99-.513333.1933334-1.183333.29-2.01.29h-3.14v-4.26h2.22c.96 0 1.64.12 2.04.36h.1v-2.98h-.1c-.453333.2666666-1.133333.4-2.04.4h-2.22v-2.86h2.54c.826667 0 1.496667.0966666 2.01.29.513334.1933334 1.003334.5233334 1.47.99l.16-.1-1-3.46h-9.6799998v.2c.5333334.1866666.9233334.4966666 1.17.93.2466665.4333334.37 1.0633334.37 1.89v7.96c0 .8266666-.1233335 1.4566666-.37 1.89-.2466666.4333334-.6366666.7433334-1.17.93v.2zm6.54 0v-.2c-.573333-.3466666-.86-.8266666-.86-1.44 0-.32.08-.72.24-1.2l.18-.48h5.1l.16.48c.173334.52.26.9333334.26 1.24 0 .6533334-.286666 1.12-.86 1.4v.2h5.64v-.2c-.733333-.4133334-1.4-1.3866666-2-2.92l-2.66-6.84c-.613333-1.5466666-1.04-2.9266666-1.28-4.14h-4.48v.2c.493334.28.74.7733334.74 1.48 0 .4666666-.133333 1.0533334-.4 1.76l-2.86 7.52c-.533333 1.4266666-1.2 2.4066666-2 2.94v.2zm3.9-5.48h-3.56l.8-2.22c.506667-1.36.813334-2.3866666.92-3.08h.1c.2.8933334.52 1.9266666.96 3.1zm13.68 5.48v-.2c-.533333-.1866666-.923333-.4933334-1.17-.92-.246666-.4266666-.37-1.0533334-.37-1.88v-8.72h1c.826667 0 1.496667.0966666 2.01.29.513334.1933334 1.003334.5233334 1.47.99l.16-.1-1-3.46h-10.3l-1 3.46.16.1c.466667-.4666666.96-.7966666 1.48-.99s1.193334-.29 2.02-.29h.98v8.72c0 .8266666-.123333 1.4533334-.37 1.88-.246666.4266666-.63.7333334-1.15.92v.2zm9.88 0v-.2c-.52-.1866666-.903333-.4933334-1.15-.92-.246666-.4266666-.37-1.0533334-.37-1.88v-3.96h5.2v3.96c0 .8266666-.123333 1.4533334-.37 1.88-.246666.4266666-.636666.7333334-1.17.92v.2h6.08v-.2c-.52-.1866666-.903333-.4933334-1.15-.92-.246666-.4266666-.37-1.0533334-.37-1.88v-8c0-.8266666.123334-1.4533334.37-1.88.246667-.4266666.63-.7333334 1.15-.92v-.2h-6.08v.2c.533334.1866666.923334.4933334 1.17.92.246667.4266666.37 1.0533334.37 1.88v1.76h-5.2v-1.76c0-.8266666.123334-1.4533334.37-1.88.246667-.4266666.63-.7333334 1.15-.92v-.2h-6.08v.2c.533334.1866666.923334.4933334 1.17.92.246667.4266666.37 1.0533334.37 1.88v8c0 .8266666-.123333 1.4533334-.37 1.88-.246666.4266666-.636666.7333334-1.17.92v.2zm19.26 0 1.2-3.56-.16-.1c-.466666.4666666-.956666.7966666-1.47.99-.513333.1933334-1.183333.29-2.01.29h-3.14v-4.26h2.22c.96 0 1.64.12 2.04.36h.1v-2.98h-.1c-.453333.2666666-1.133333.4-2.04.4h-2.22v-2.86h2.54c.826667 0 1.496667.0966666 2.01.29.513334.1933334 1.003334.5233334 1.47.99l.16-.1-1-3.46h-9.68v.2c.533334.1866666.923334.4966666 1.17.93.246667.4333334.37 1.0633334.37 1.89v7.96c0 .8266666-.123333 1.4566666-.37 1.89-.246666.4333334-.636666.7433334-1.17.93v.2zm8.14 0v-.2c-.973333-.3866666-1.46-1.3333334-1.46-2.84v-2.24h1.72c.413334 0 .73.08.95.24s.43.4733334.63.94l.6 1.34c.506667 1.1733334.82 2.0933334.94 2.76h4.48v-.2c-.466666-.16-.87-.46-1.21-.9s-.69-1.08-1.05-1.92l-.98-2.26-1.1-.52c1.72-.68 2.58-1.9066666 2.58-3.68v-.6c0-1.4266666-.41-2.4366666-1.23-3.03s-2.29-.89-4.41-.89h-6.42v.2c.52.1866666.906667.5 1.16.94.253334.44.38 1.0733334.38 1.9v7.92c0 .8266666-.126666 1.46-.38 1.9-.253333.44-.64.7533334-1.16.94v.2zm.46-7.46h-1.92v-4.4h1.92c.96 0 1.613334.15 1.96.45.346667.3.52.8833334.52 1.75 0 .8533334-.173333 1.4333334-.52 1.74-.346666.3066666-1 .46-1.96.46z" fill="#472713"/><path d="m90.2640228 48.24c1.3866669 0 2.4160003-.2666668 3.0880004-.8000001s1.0080001-1.2533334 1.0080001-2.1600002v-.4000001c0-.8746669-.2213332-1.4986669-.664-1.8720002s-1.1653334-.6933334-2.1680003-.9600002l-1.6160002-.432c-.6720001-.1706668-1.1226669-.3786668-1.3520002-.6240001s-.344-.6613333-.344-1.2480001c0-.6080001.168-1.0346669.504-1.2800002.3360001-.2453333.8720001-.3680001 1.6080002-.3680001h.7680001c.7466669 0 1.3280002.0586668 1.7440002.1760001.4160001.1173332.7680001.3253333 1.0560002.624l.128-.08-.5920001-2.0480002h-3.1200004c-2.5280003 0-3.7920005.9866668-3.7920005 2.9600004v.336c0 .416.0533333.7813333.1600001 1.0960001.1066667.3146668.24.5733334.4.7760001.16.2026668.3893333.3866668.6880001.5520001s.5840001.296.8560001.3920001c.272.096.6266668.2026667 1.0640001.32l1.2160002.336c.7466668.2026668 1.2266669.3946668 1.4399994.5760001.2133341.1813333.3200008.5280001.3200008 1.0400001 0 1.1840002-.8213333 1.7760003-2.4640003 1.7760003-1.5466669 0-2.7893336-.3946668-3.7280005-1.1840002l-.128.08.5760001 2.0640003c1.0133334.2346668 2.1280003.352 3.3440004.352zm11.8080012-.24v-.16c-.352-.1493333-.602667-.3786668-.752-.6880001s-.224-.7946669-.224-1.4560002v-7.632001h.928c.672 0 1.2.0613333 1.584001.1840001.384.1226667.752.3493333 1.104.68l.128-.08-.576-2.0480002h-7.9520014l-.5920001 2.0480002.128.08c.3626668-.3306667.7333334-.5573333 1.1120002-.68.3786668-.1226668.9040001-.1840001 1.5760002-.1840001h.9440001v7.632001c0 .6613333-.0746668 1.1466669-.224 1.4560002-.1493333.3093333-.4000001.5386668-.7520001.6880001v.16zm8.912001.192c.970667 0 1.757334-.0773332 2.360001-.232s1.058667-.4133333 1.368-.7760001.514667-.7653334.616-1.2080002.152-1.0266668.152-1.7520002v-3.6960004c0-.7253334-.050667-1.3093335-.152-1.7520003s-.306667-.8453333-.616-1.2080001-.765333-.6213334-1.368-.7760001c-.602667-.1546668-1.389334-.2320001-2.360001-.2320001-.96 0-1.741333.0773333-2.344.2320001-.602667.1546667-1.058667.4133333-1.368.7760001s-.514667.7653333-.616 1.2080001-.152 1.0266669-.152 1.7520003v3.6960004c0 .7253334.050667 1.3093334.152 1.7520002s.306667.8453334.616 1.2080002.765333.6213333 1.368.7760001 1.384.232 2.344.232zm0-1.3440001c-1.173333 0-1.930667-.1733333-2.272-.5200001s-.512-1.0480001-.512-2.1040003v-3.7120004c0-1.0560002.170667-1.7520003.512-2.0880003.341333-.3360001 1.098667-.5040001 2.272-.5040001 1.184001 0 1.946667.168 2.288001.5040001.341333.336.512 1.0320001.512 2.0880003v3.7120004c0 1.0560002-.173333 1.7573335-.52 2.1040003s-1.106667.5200001-2.280001.5200001zm10.224002 1.1520001v-.16c-.352-.1493333-.613334-.3920001-.784-.7280001-.170667-.3360001-.256-.8293334-.256-1.4800002v-2.0800003h1.952c.416 0 .72.0746668.912.2240001.192.1493332.373333.4213333.544.8160001l.544 1.2000001c.416 1.0026669.672 1.738667.768 2.2080003h2.672001v-.16c-.352-.1066668-.661334-.3413333-.928001-.7040001-.266666-.3626668-.538666-.8853334-.816-1.5680002l-.848-1.9200003-.736-.368c1.450667-.4480001 2.176-1.4346669 2.176-2.9600004v-.416c0-1.1413334-.290666-1.9440003-.872-2.4080003-.581333-.4640001-1.656-.6960001-3.224-.6960001h-4.704001v.16c.341334.1493333.586667.3866668.736.7120001.149334.3253333.224.8240001.224 1.4960002v6.4640008c0 .6720001-.072 1.1706669-.216 1.4960002s-.392.5626668-.744.7120001v.16zm1.104-5.6960007h-2.144v-4.2720006h2.144c.917333 0 1.546667.1493333 1.888.4480001s.512.8640001.512 1.6960002c0 .8106669-.173333 1.3680002-.52 1.6720002-.346667.3040001-.973333.4560001-1.88.4560001zm13.632002 5.6960007.72-2.1120003-.128-.064c-.341334.3200001-.704.5386668-1.088.6560001s-.912001.176-1.584001.176h-2.704v-4.4960005h2.16c.725334 0 1.242667.0853332 1.552.256h.08v-1.7920002h-.08c-.352.192-.869333.288-1.552.288h-2.16v-2.8480004h2.224c.672 0 1.2.0613333 1.584.1840001.384001.1226667.752001.3493333 1.104001.68l.128-.08-.576-2.0480002h-7.024001v.16c.341333.1493333.586667.3813333.736.6960001s.224.8026668.224 1.4640002v6.5600008c0 .6613333-.074667 1.1493334-.224 1.4640002s-.394667.5466668-.736.6960001v.16z" fill="#a59981"/></g></g></svg>