<svg height="40" viewBox="0 0 152 40" width="152" xmlns="http://www.w3.org/2000/svg"><g fill="#fff" fill-rule="evenodd" transform="translate(-1 -9.993902)"><path d="m61.8209065 47.9939021v-1.092c-1.246.056-1.862.14-1.862-.938v-3.794h1.862v-1.176h-1.862v-1.96l-1.218.364v1.596h-1.386v1.176h1.386v3.794c0 1.736.952 2.31 3.08 2.03zm2.702 0v-3.71c0-1.568.812-2.31 2.03-2.31 1.078 0 1.736.658 1.736 1.792v4.228h1.218v-4.298c0-1.778-1.078-2.884-2.716-2.884-1.022 0-1.778.392-2.268 1.19v-3.808h-1.218v9.8zm10.038.182c1.372 0 2.394-.532 3.08-1.582l-1.036-.588c-.42.686-1.092 1.022-2.016 1.022-1.33 0-2.296-.728-2.534-1.974h5.866c.028-.182.042-.364.042-.546 0-1.022-.322-1.89-.98-2.604-.644-.728-1.484-1.092-2.506-1.092-1.078 0-1.96.35-2.646 1.05s-1.022 1.582-1.022 2.632c0 1.064.35 1.946 1.036 2.646.7.686 1.61 1.036 2.716 1.036zm2.17-4.186h-4.676c.21-1.232 1.12-2.03 2.422-2.03 1.12 0 2.044.7 2.254 2.03zm3.85 4.004v-3.892c0-1.414.77-2.128 1.792-2.128.91 0 1.484.63 1.484 1.708v4.312h1.218v-3.892c0-1.442.672-2.128 1.722-2.128.938 0 1.54.63 1.54 1.708v4.312h1.218v-4.354c0-1.736-1.064-2.828-2.632-2.828-.98 0-1.708.392-2.198 1.19-.434-.798-1.12-1.19-2.058-1.19-.91 0-1.61.378-2.086 1.12v-.938h-1.218v7zm14.028.182c1.372 0 2.394-.532 3.08-1.582l-1.036-.588c-.42.686-1.092 1.022-2.016 1.022-1.33 0-2.296-.728-2.534-1.974h5.866c.028-.182.042-.364.042-.546 0-1.022-.322-1.89-.98-2.604-.644-.728-1.484-1.092-2.506-1.092-1.078 0-1.96.35-2.646 1.05s-1.022 1.582-1.022 2.632c0 1.064.35 1.946 1.036 2.646.7.686 1.61 1.036 2.716 1.036zm2.17-4.186h-4.676c.21-1.232 1.12-2.03 2.422-2.03 1.12 0 2.044.7 2.254 2.03zm4.9839995 4.186c.77 0 1.386-.196 1.876-.574s.742-.896.742-1.526c.014-1.498-1.442-1.904-2.534-2.142-.77-.21-1.386-.504-1.386-1.05 0-.602.56-.938 1.246-.938.742 0 1.246.294 1.498.896l1.022-.574c-.448-.91-1.386-1.456-2.52-1.456-.714 0-1.302.196-1.7779995.588-.462.392-.7.896-.7 1.498 0 1.484 1.4279995 1.848 2.5339995 2.142.77.182 1.386.49 1.386 1.036 0 .658-.588.952-1.386.952-.854 0-1.512-.42-1.736-1.092l-1.0499995.602c.406.994 1.4279995 1.638 2.7859995 1.638z" fill-opacity=".347001" fill-rule="nonzero"/><path d="m62.9499065 31.9939021v-10.872l4.728 7.776h.384l4.728-7.8v10.896h3.288v-16.8h-3.408l-4.8 7.944-4.824-7.944h-3.408v16.8zm21.816.336c1.776 0 3.288-.6 4.512-1.824s1.848-2.736 1.848-4.512-.624-3.264-1.848-4.488-2.736-1.848-4.512-1.848-3.288.624-4.512 1.848-1.824 2.712-1.824 4.488.6 3.288 1.824 4.512 2.736 1.824 4.512 1.824zm0-3.024c-.936 0-1.704-.312-2.328-.936-.6-.624-.912-1.416-.912-2.376s.312-1.752.912-2.376c.624-.624 1.392-.936 2.328-.936s1.704.312 2.328.936.936 1.416.936 2.376-.312 1.752-.936 2.376-1.392.936-2.328.936zm11.64 2.688v-6.744c0-1.752.888-2.712 2.256-2.712 1.272 0 2.0159995.84 2.0159995 2.28v7.176h3.096v-6.744c0-1.752.816-2.712 2.232-2.712 1.272 0 2.016.84 2.016 2.28v7.176h3.096v-7.392c0-3-1.776-4.944-4.536-4.944-1.584 0-2.784.576-3.576 1.728-.696-1.152-1.8-1.728-3.2639995-1.728-1.512 0-2.616.528-3.336 1.608v-1.272h-3.096v12zm18.8879995-13.44c1.056 0 1.92-.864 1.92-1.896s-.864-1.92-1.92-1.92c-1.032 0-1.896.888-1.896 1.92s.864 1.896 1.896 1.896zm1.56 13.44v-12h-3.096v12zm11.928 0v-2.904h-5.328l5.088-7.032v-2.064h-9v2.904h4.824l-5.064 7.032v2.064zm7.488.336c1.68 0 2.976-.576 3.912-1.752v1.416h3.096v-12h-3.096v1.416c-.936-1.176-2.232-1.752-3.912-1.752-1.608 0-2.976.624-4.128 1.848-1.128 1.224-1.704 2.712-1.704 4.488s.576 3.288 1.704 4.512c1.152 1.224 2.52 1.824 4.128 1.824zm.576-2.952c-.96 0-1.752-.312-2.376-.936-.624-.648-.936-1.464-.936-2.448s.312-1.8.936-2.424c.624-.648 1.416-.96 2.376-.96s1.752.312 2.376.96c.648.624.96 1.44.96 2.424s-.312 1.8-.96 2.448c-.624.624-1.416.936-2.376.936zm16.104 2.616v-2.808c-1.776.096-2.712.072-2.712-1.224v-4.992h2.712v-2.976h-2.712v-3.36l-3.096.936v2.424h-2.088v2.976h2.088v4.992c0 3.288 1.56 4.512 5.808 4.032z" fill-rule="nonzero"/><path d="m42.9999106 32.1379654v9.2162527c0 .4364554-.1733535.8551366-.4819886 1.1637713-.308635.3086348-.7273166.4819881-1.1637724.4819881h-9.2162618v-10.8620121zm-12.0689439.0000059v10.8620121h-10.8620228v-10.8620121zm-12.068944.000006v10.862012h-9.21626168c-.43645582 0-.85513743-.1733533-1.16377248-.481988-.30863505-.3086348-.48198854-.727316-.48198854-1.1637714v-9.2162526zm12.0689499-12.0689499v10.8620121h-10.8620228v-10.8620121zm-12.0689439.0000059v10.8620121h-10.86202278v-9.2162527c0-.4364553.1733535-.8551365.48198855-1.1637713.30863505-.3086347.72731665-.4819881 1.16377247-.4819881zm24.1378878-.0000118v10.8620121h-10.8620227v-10.8620121zm-1.6456775-12.0690215c.4364558 0 .8551374.17335332 1.1637725.48198807.308635.30863475.4819885.72731594.4819885 1.16377134v9.21625269h-10.8620227v-10.8620121zm-10.4232605.0000835v10.8620121h-10.8620227v-9.21625269c0-.43645539.1733535-.85513659.4819885-1.16377133.3086351-.30863475.7273167-.48198808 1.1637725-.48198808z" transform="matrix(.70710678 .70710678 -.70710678 .70710678 25.499996 -10.562447)"/></g></svg>