<svg xmlns="http://www.w3.org/2000/svg" xmlns:xlink="http://www.w3.org/1999/xlink" width="120" height="53" viewBox="0 0 120 53"><defs><path id="b" d="M778.416 425.16a1.259 1.259 0 0 0-1.196-.094 6.27 6.27 0 0 0-1.63-2.997c-3.691-3.837-12.295-3.807-18.58-3.785-1.74.005-3.242.01-4.377-.065-5.12-.345-12.696-4.683-14.946-6.036l.102-1.24a1.286 1.286 0 0 0-.478-1.112c-12.368-9.866-22.497-12.676-22.922-12.791-.516-.14-1.017.098-1.37.503-3.151 3.618-7.984 7.334-8.01 7.354-5.537 4.119-12.166 5.261-19.702 3.397-5.728-1.417-9.852-4.13-9.892-4.156a1.261 1.261 0 0 0-1.33-.044c-.4.23-1.46.841-4.174 10.96-1.81 6.75-.55 11.004.565 13.166-.076.047-.61.428-.61 1.093v8.967c0 .708.57 1.282 1.271 1.282h28.473c.7 0 1.27-.574 1.27-1.282v-1.946c9.357.136 15.756.872 21.948 1.626 10.797 1.314 20.928 1.62 21.428 1.62 14.895 0 31.319-5.6 34.265-7.965.302-.243.479-.613.479-1.003v-4.374c0-.436-.22-.842-.584-1.078zm-41.969-2.92c.28-.22.455-.548.484-.904l.522-6.319c3.174 1.835 9.952 5.42 15.011 5.76 1.223.081 2.767.075 4.555.07 5.498-.02 13.808-.048 16.748 3.007a3.768 3.768 0 0 1 1.05 2.225c-3.824 1.53-11.824 4.408-20.868 5.752-2.684.4-5.835.602-9.363.602-6.676 0-13.222-.699-17.554-1.162-.707-.075-16.804-1.83-22.378-2.184 5.016-10.674 30.538-6.636 30.807-6.592.35.057.707-.036.986-.256zm-64.084-6.516c1.394-5.199 2.304-7.643 2.796-8.753a38.384 38.384 0 0 0 9.462 3.792c8.2 2.05 15.757.745 21.856-3.774.53-.338 2.906-2.167 8.07-7.218.821.273 2.233.781 4.088 1.594l-1.1 2.104a1.287 1.287 0 0 0 .531 1.732 1.268 1.268 0 0 0 1.716-.536l1.166-2.231a72.384 72.384 0 0 1 3.432 1.783l-1.09 2.279a1.287 1.287 0 0 0 .591 1.711 1.27 1.27 0 0 0 1.696-.596l1.015-2.12a80.74 80.74 0 0 1 3.25 2.052l-.94 2.35a1.286 1.286 0 0 0 .703 1.668 1.27 1.27 0 0 0 1.653-.709l.733-1.83a84.871 84.871 0 0 1 3.21 2.396l-.69 8.35c-5.847-.767-28.223-2.865-32.545 9.166-2.144-.108-4.42-.191-6.868-.24-11.972-.233-18.583-.448-21.672-.566-.344-.391-3.301-4.055-1.063-12.404zm104.097 14.211c-1.671 1.007-5.917 2.665-11.44 4.123-7.236 1.908-14.61 2.96-20.764 2.96-.478 0-11.562-.563-21.132-1.604-6.548-.711-13.304-1.574-23.504-1.657h-.01c-.679 0-1.271.21-1.271 1.282v1.96h-25.932v-6.347c2.607.108 9.32.192 22.643.605 14.694.456 31.013 2.488 31.715 2.563 4.385.468 11.011 1.176 17.821 1.176 3.652 0 6.927-.212 9.733-.63 9.98-1.483 18.542-4.698 22.14-6.185z"/><filter id="a" width="115.5%" height="139.9%" x="-5.9%" y="-15.3%"><feOffset dx="2" dy="2" in="SourceAlpha" result="shadowOffsetOuter1"/><feGaussianBlur in="shadowOffsetOuter1" result="shadowBlurOuter1" stdDeviation="2.5"/><feColorMatrix in="shadowBlurOuter1" values="0 0 0 0 0.0745098039 0 0 0 0 0.0274509804 0 0 0 0 0 0 0 0 1 0"/></filter></defs><g fill="none" fill-rule="evenodd" transform="translate(-666 -394)"><use fill="#000" filter="url(#a)" xlink:href="#b"/><use fill="#fec197" xlink:href="#b"/></g></svg>