<svg xmlns="http://www.w3.org/2000/svg" xmlns:xlink="http://www.w3.org/1999/xlink" width="89" height="67" viewBox="0 0 89 67"><defs><path id="b" d="M751.895 172a5.38 5.38 0 0 1 5.375 5.374v13.732h.085A2.648 2.648 0 0 1 760 193.75v13.648a2.648 2.648 0 0 1-2.645 2.644h-.085v13.733a5.38 5.38 0 0 1-5.375 5.373h-65.52a5.38 5.38 0 0 1-5.375-5.373v-46.401a5.38 5.38 0 0 1 5.375-5.374zm0 2.558h-65.52a2.818 2.818 0 0 0-2.816 2.816v.084h2.816a1.28 1.28 0 0 1 0 2.56h-2.816v41.112h2.817a1.28 1.28 0 0 1 0 2.56h-2.817v.085a2.819 2.819 0 0 0 2.816 2.815h65.52a2.819 2.819 0 0 0 2.816-2.815v-13.733h-16.466c-5.222 0-9.47-4.247-9.47-9.468 0-5.22 4.248-9.468 9.47-9.468h16.466v-13.732a2.818 2.818 0 0 0-2.816-2.816zm-55.964 46.572a1.28 1.28 0 0 1 0 2.56h-4.095a1.28 1.28 0 1 1 0-2.56zm9.555 0a1.28 1.28 0 0 1 0 2.56h-4.095a1.28 1.28 0 1 1 0-2.56zm9.555 0a1.28 1.28 0 0 1 0 2.56h-4.095a1.28 1.28 0 1 1 0-2.56zm9.555 0a1.28 1.28 0 0 1 0 2.56h-4.095a1.28 1.28 0 1 1 0-2.56zm9.555 0a1.28 1.28 0 0 1 0 2.56h-4.095a1.28 1.28 0 1 1 0-2.56zm9.555 0a1.28 1.28 0 0 1 0 2.56h-4.095a1.28 1.28 0 1 1 0-2.56zm6.825-1.364c.707 0 1.28.573 1.28 1.28v1.364a1.28 1.28 0 0 1-1.28 1.28h-1.365a1.28 1.28 0 1 1 0-2.56h.086v-.084c0-.707.573-1.28 1.28-1.28zm0-8.188c.707 0 1.28.572 1.28 1.279v2.73a1.28 1.28 0 0 1-2.56 0v-2.73c0-.707.574-1.28 1.28-1.28zm6.824-17.913h-19.11c-3.81 0-6.91 3.1-6.91 6.91s3.1 6.908 6.91 6.908h19.11a.086.086 0 0 0 .086-.085V193.75a.086.086 0 0 0-.086-.085zm-19.11 2.9a4.014 4.014 0 0 1 4.01 4.01 4.014 4.014 0 0 1-4.01 4.008 4.014 4.014 0 0 1-4.01-4.009 4.014 4.014 0 0 1 4.01-4.008zm0 2.559c-.8 0-1.45.65-1.45 1.45s.65 1.45 1.45 1.45c.8 0 1.45-.65 1.45-1.45s-.65-1.45-1.45-1.45zm12.285-14.842c.707 0 1.28.573 1.28 1.28v2.73a1.28 1.28 0 1 1-2.56 0v-2.73c0-.707.574-1.28 1.28-1.28zm0-6.824c.707 0 1.28.574 1.28 1.28v1.365a1.28 1.28 0 0 1-2.56 0v-.085h-.085a1.28 1.28 0 1 1 0-2.56zm-54.6 0a1.28 1.28 0 0 1 0 2.56h-4.095a1.28 1.28 0 1 1 0-2.56zm9.555 0a1.28 1.28 0 0 1 0 2.56h-4.095a1.28 1.28 0 1 1 0-2.56zm9.555 0a1.28 1.28 0 0 1 0 2.56h-4.095a1.28 1.28 0 1 1 0-2.56zm9.555 0a1.28 1.28 0 0 1 0 2.56H720.5a1.28 1.28 0 1 1 0-2.56zm9.555 0a1.28 1.28 0 0 1 0 2.56h-4.095a1.28 1.28 0 1 1 0-2.56zm9.555 0a1.28 1.28 0 0 1 0 2.56h-4.095a1.28 1.28 0 1 1 0-2.56z"/><filter id="a" width="121.5%" height="129.7%" x="-8.2%" y="-11.4%"><feOffset dx="2" dy="2" in="SourceAlpha" result="shadowOffsetOuter1"/><feGaussianBlur in="shadowOffsetOuter1" result="shadowBlurOuter1" stdDeviation="2.5"/><feColorMatrix in="shadowBlurOuter1" values="0 0 0 0 0.0745098039 0 0 0 0 0.0274509804 0 0 0 0 0 0 0 0 1 0"/></filter></defs><g fill="none" fill-rule="evenodd" transform="translate(-678 -169)"><use fill="#000" filter="url(#a)" xlink:href="#b"/><use fill="#fec197" xlink:href="#b"/></g></svg>