<svg height="93" viewBox="0 0 70 93" width="70" xmlns="http://www.w3.org/2000/svg"><g fill="none" fill-rule="evenodd"><path d="m57.55891 48.7259716c-1.4238863 0-2.5770617-1.2099052-2.5770617-2.701801 0-1.4922275 1.1531754-2.7024644 2.5770617-2.7024644 1.4235545 0 2.5770616 1.2102369 2.5770616 2.7024644 0 1.4918958-1.1535071 2.701801-2.5770616 2.701801zm-44.4802228 0c-1.423455 0-2.5770948-1.2099052-2.5770948-2.701801 0-1.4922275 1.1536398-2.7024644 2.5770948-2.7024644 1.4229242 0 2.5770948 1.2102369 2.5770948 2.7024644 0 1.4918958-1.1541706 2.701801-2.5770948 2.701801zm56.5431137 32.3568862-7.0089573-40.8580711h-55.65169194l-6.86567299 40.8825214c-.16531279.988327-.11279621 1.9558199.13309953 2.8801848 1.15884834 4.3847535 6.61612796 7.7884787 13.3148957 7.7884787h42.6350095c8.1229858 0 14.418673-5.0080853 13.4433175-10.6931138z" fill="#5a626f"/><path d="m46.0049289 46.5290995v.8071564c0 .767346-.8827962 1.3897157-1.9719431 1.3897157h-18.5481754c-.3909715 0-.7543744-.0789574-1.0605829-.2192891-.5484882-.2448342-.911891-.6774408-.911891-1.1704266v-.8071564c0-.7673459.8827962-1.3897156 1.9724739-1.3897156h18.5481754c1.0891469 0 1.9719431.6223697 1.9719431 1.3897156z" fill="#f2f2f2"/><path d="m56.1784834 91.7759716h-42.6350095c-6.69876774 0-12.15604736-3.4037252-13.31490531-7.7884787-.02357807-.0892085 43.38906171 6.1542275 51.28545981-43.4120427l11.0988152-.3506635 7.0089573 40.8580711c.0666825.3889147.0998628.7741469.0998628 1.1552322.0062984 5.1910806-5.9752182 9.5378816-13.5431803 9.5378816zm-1.1966351-45.751801c0 1.4918958 1.1531754 2.701801 2.5770617 2.701801 1.4235545 0 2.5770616-1.2099052 2.5770616-2.701801 0-1.4922275-1.1535071-2.7024644-2.5770616-2.7024644-1.4238863 0-2.5770617 1.2102369-2.5770617 2.7024644z" fill="#464d58"/><path d="m56.510237 92.1077251-44.6255308-.3317535c-6.69876781 0-10.49727966-3.4037252-11.656128-7.7884787 6.39312322 4.8347441 21.8013175 3.4710379 29.6635118 1.1666114 17.7935024-5.2152654 34.7046399-28.1747678 30.5195688-44.3746256l2.2011848-.554692 7.0089573 40.8580711c.0666825.3889147.0998631.7741469.0998631 1.1552322.0062981 5.1910806-5.6434649 9.8696351-13.211427 9.8696351z" fill="#3e444d"/><path d="m44.984455 49.2707109h-19.4055593c-.9950616 0-1.8248104-.702654-2.0218388-1.6385308.1128294.3669194.4320426.6800948.8671706.8745024.3062085.1403317.6696114.2192891 1.0605829.2192891h18.5481754c1.0891469 0 1.9719431-.6223697 1.9719431-1.3897157v-.8071564c0-.7673459-.8827962-1.3897156-1.9719431-1.3897156h-18.4852749 19.4367441c1.141564 0 2.0658294.9249289 2.0658294 2.0658294 0 1.1409004-.9242654 2.0654976-2.0658294 2.0654976z" fill="#798291"/><g fill="#3e444d"><path d="m13.0786872 48.7259716c-1.423455 0-2.5770948-1.2099052-2.5770948-2.701801 0-1.4922275 1.1536398-2.7024644 2.5770948-2.7024644 1.4229242 0 2.5770948 1.2102369 2.5770948 2.7024644 0 1.4918958-1.1541706 2.701801-2.5770948 2.701801zm0-5.948673c-1.7104218 0-3.09698578 1.4537441-3.09698578 3.246872 0 1.793128 1.38656398 3.2465403 3.09698578 3.2465403s3.0969858-1.4534123 3.0969858-3.2465403c0-1.7931279-1.386564-3.246872-3.0969858-3.246872z"/><path d="m57.561564 48.7259716c-1.422891 0-2.5770616-1.2099052-2.5770616-2.701801 0-1.4922275 1.1541706-2.7024644 2.5770616-2.7024644 1.4232227 0 2.5770616 1.2102369 2.5770616 2.7024644 0 1.4918958-1.1538389 2.701801-2.5770616 2.701801zm0-5.948673c-1.7105213 0-3.0969195 1.4537441-3.0969195 3.246872 0 1.793128 1.3863982 3.2465403 3.0969195 3.2465403 1.7101896 0 3.0969194-1.4534123 3.0969194-3.2465403 0-1.7931279-1.3867298-3.246872-3.0969194-3.246872z"/><path d="m15.3739905 43.844218c-.0498957.2275829-.1065592.445545-.1699905.651564.28491.4345971.451782.9607583.451782 1.5283886 0 1.4918958-1.1541706 2.701801-2.5770948 2.701801-1.423455 0-2.5770948-1.2099052-2.5770948-2.701801 0-.6260189.2032654-1.2019431.5443081-1.6600948-.0587204-.2027014-.1107062-.4153554-.1559574-.6369668-.5614597.5875355-.90824168 1.3996683-.90824168 2.2970616 0 1.793128 1.38656398 3.2465403 3.09698578 3.2465403s3.0969858-1.4534123 3.0969858-3.2465403c0-.8390047-.3036209-1.6033649-.8016825-2.1799526z"/><path d="m14.593109 43.8385782c.0416019-.1847867.0790237-.3778673.111801-.5782464-.4731138-.3062086-1.0298958-.4830332-1.6262228-.4830332-.5469289 0-1.0600521.1492891-1.506128.4097156.0301564.1977251.0655214.3874882.1045024.5699526.4039431-.2750237.8853839-.4352606 1.4016256-.4352606.5661706 0 1.0891801.1917535 1.5144218.516872z"/></g><path d="m11.5039526 40.2247867h-.7741137c.0680758-.6973459.1928483-1.3482464.3722275-1.9069194.1372464.3748815.3124454.7205687.5313364 1.006872-.053545.2843128-.0987962.5855451-.1294502.9000474z" fill="#798291"/><path d="m15.6172986 41.4346919c0 .857583-.0847299 1.6843128-.2438057 2.4095261-.0493981.2282465-.1071232.4452133-.1700237.6509005-.0343033.1111374-.0712275.2192891-.1081185.3227962-.1611659.4326066-.6493412 1.7509953-1.9511753 1.7509953-1.3012702 0-1.790474-1.3183887-1.9511422-1.7509953-.0519858-.1439811-.1013507-.2969194-.1466019-.4531754.1767583-.2375355.3894123-.444218.6306303-.6087677.2958247 1.3572038.8422228 2.268199 1.4671138 2.268199.6124502 0 1.1505213-.8751659 1.4489336-2.1862559.0410711-.1841232.0785261-.3772038.1112701-.5775829.0904692-.558673.140365-1.1760664.140365-1.8256399 0-.7607109-.068109-1.4786255-.1902607-2.1099526-.0712275-.3679147-.159109-.707962-.264109-1.009526-.309327-.9030332-.7533128-1.468673-1.246199-1.468673-.4933508 0-.9368389.5656398-1.2461659 1.468673-.127891-.3164929-.2334218-.6827488-.3103555-1.0851659.3015308-.4661138.7865877-.92891 1.5565214-.92891.7699668 0 1.2550237.4627962 1.5565545.92891.2090047.3214692.3296303.6462559.3946208.8230806.0322133.0859241.0613412.1741706.090436.2657346.2802323.8718483.4315119 1.965308.4315119 3.1158293z" fill="#798291"/><path d="m15.6172986 35.6475829c0 .7746446-.1122986 1.7984361-.4315119 2.6712797-.0290948-.091564-.0582227-.1798105-.090436-.2657346-.0649905-.1768247-.1856161-.5016114-.3946208-.8230806.0930568-.4836967.1440142-1.0188152.1440142-1.5824645 0-2.1666824-.7605782-3.9236493-1.7005687-3.9236493-.9394266 0-1.7005356 1.7569669-1.7005356 3.9236493 0 .5636493.0509574 1.0987678.1440142 1.5824645.0769337.4024171.1824645.768673.3103555 1.0851659.309327.7729858.7528151 1.2560189 1.2461659 1.2560189.4928862 0 .936872-.4830331 1.246199-1.2560189.105.301564.1928815.6416113.264109 1.009526-.3665213.4783887-.8578152.7912323-1.510308.7912323-.6524598 0-1.1442512-.3128436-1.5107726-.7912323-.218891-.2863033-.39409-.6319905-.5313364-1.006872-.3186825-.8718483-.4315119-1.8956398-.4315119-2.6702844 0-1.6600947.5209194-4.4690521 2.4736209-4.4690521 1.9527346 0 2.4731232 2.8089574 2.4731232 4.4690521z" fill="#464d58"/><path d="m59.757109 43.7330806-.0179147-.0165877h.0209005z" fill="#3e444d"/><path d="m59.1423697 40.23109h.7736493c-.0670143-.6976777-.1927489-1.3485782-.3722275-1.9075829-.137346.3748815-.3118484.7199052-.5314692 1.0072038.0537441.2843128.0988625.5852133.1300474.9003791z" fill="#616a7a"/><path d="m55.0286256 41.4403318c0 .8582464.0852607 1.683981.2441706 2.409526.0494313.2279147.1068247.4445498.1701896.6509005.0341706.1114692.0706635.2189573.1081516.3227962.1605688.4326066.64891 1.7509953 1.9507109 1.7509953 1.301801 0 1.790474-1.3183887 1.9510427-1.7509953.0524171-.143981.1018483-.2965877.1469668-.4538389-.1761611-.2375355-.3891469-.4432227-.6309952-.6077725-.2952607 1.3565403-.8423223 2.2678673-1.4670143 2.2678673-.6120853 0-1.1501895-.8748341-1.448436-2.1862559-.0418009-.1837915-.0792891-.376872-.1114692-.5775829-.0909004-.5593365-.1403317-1.1757346-.1403317-1.8256398 0-.7607109.0680095-1.4786256.189763-2.1096209.071327-.3682464.1592417-.7086256.2647393-1.0091943.3091944-.9040284.7527489-1.4693365 1.2457346-1.4693365.4933176 0 .9372038.5653081 1.2460664 1.4693365.1283886-.3171564.2338862-.6837441.3108531-1.0854976-.3022275-.4664455-.7872512-.9285782-1.5569195-.9285782-.7696682 0-1.2550237.4621327-1.5565876.9285782-.208673.3211374-.3290996.6462559-.3941233.822417-.0328436.0862559-.0620379.1745024-.0909004.2660664-.28.8718483-.4316114 1.965308-.4316114 3.1158294z" fill="#798291"/><path d="m55.0495261 35.6475829c0 .7746446.1127962 1.7984361.4312796 2.6712797.0291943-.091564.0583886-.1798105.0909005-.2657346.0650237-.1768247.185782-.5016114.3941232-.8230806-.0925593-.4836967-.1433176-1.0188152-.1433176-1.5824645 0-2.1666824.7603792-3.9236493 1.6999053-3.9236493.9405213 0 1.7005687 1.7569669 1.7005687 3.9236493 0 .5636493-.0507583 1.0987678-.1433176 1.5824645-.0769668.4024171-.1824644.768673-.310853 1.0851659-.3088626.7729858-.7530806 1.2560189-1.2463981 1.2560189-.4926541 0-.9368721-.4830331-1.2457346-1.2560189-.1048342.301564-.1934124.6416113-.2640759 1.009526.366256.4783887.8579147.7912323 1.5098105.7912323.6525592 0 1.144218-.3128436 1.5108056-.7912323.2199527-.2863033.3941233-.6319905.531801-1.006872.3181517-.8718483.4309479-1.8956398.4309479-2.6702844 0-1.6600947-.5208531-4.4690521-2.4735545-4.4690521-1.952038 0-2.472891 2.8089574-2.472891 4.4690521z" fill="#464d58"/><path d="m11.6276635 33.9247867-.068109-.002654c1.056436-5.0877725 2.1159573-10.1888152 3.9969337-15.1564929 2.6004834-6.8686256 6.5714075-13.82218008 13.3434597-17.06938388 4.1419763-1.98654028 12.5662606-3.48672985 19.3960711 3.07402844 1.4258767 1.37876777 2.5588151 2.87829384 3.529526 4.41398104 4.7185308 7.5228436 6.5999052 16.2605687 7.2590995 24.426019-.9849763.0175829-1.9696208.0358293-2.9549289.0534123-.2693838-4.4939337-.5417535-8.9991469-1.5472985-13.441327-1.0048816-4.4411849-2.7648342-8.83891-5.8527962-12.77516591-3.6356873-4.6342654-10.5534124-8.31241706-18.0090095-5.21582938-3.2976635 1.36981042-5.6569289 3.63402843-7.5160427 5.99279621-6.1424834 7.78990518-7.6647346 16.92938388-8.6005118 25.81805688-.9919763-.0388152-1.9839195-.0786256-2.9763934-.1174408z" fill="#3e444d"/></g></svg>