<svg height="85" viewBox="0 0 70 85" width="70" xmlns="http://www.w3.org/2000/svg"><g fill="none" fill-rule="evenodd"><path d="m22.2630476 5.63818182c.14525-.01352273.3064621-.09969697.3137007-.10049243 1.1296516-.13337121 1.7956326.34814394 2.3315569.53375.2562159-.02041666.2479697-.04162878.3551439.01856061-.0365114.78962121-.2001364 1.60655303-.1662765 2.37098485.0311553.70371212.0316591 1.58534095.1388598 2.27553035-1.5694318-.97708338-2.7078068-3.2382955-2.9729848-5.09833338z" fill="#3e444d"/><path d="m28.7652256 9.9569697c.5613258 1.1632197 1.210947 2.2932955 2.0535985 3.2788636 1.1085985 1.3323864 2.4343561 2.4871212 3.9115152 3.3934091 1.5036742.9216667 3.1433712 1.6229924 4.8575757 2.0406061.6488258.1484848 1.3013636.302803 1.9700758.327197-.225644-.5040531-.4815152-.9959091-.7890909-1.4546213-.3478788-.4889394-.7851137-.9017803-1.1658713-1.363409.5369319.1699621 1.0879167.329053 1.5816288.6064015 1.1489016.7906818 1.8372349 2.0403409 2.7936364 3.0248485.8810985.9198106 2.0000379 1.6126515 3.2401515 1.9210227-.3929545-.3600758-.5321591-.8763258-.5462121-1.3925758-.047197-1.1817803.2510985-2.3526894.7116667-3.4339773.2587878.5483334.4740909 1.118144.8002272 1.6325379.615947.9701894 1.0560985 2.0469697 1.774394 2.9524621.378106.51625.8134848.9871591 1.2411742 1.4620455.1842803.1919697.390303.3987879.6639394.4467803.1710227.0310227.2988258-.1110985.4239773-.2031061.4446591-.0235984.9150379-.0837878 1.333447.1081819-.0546213.0074242-.1646591.0225378-.2200758.0310227.668447.6591667.7861742 1.6473864.8132197 2.5396212-.0026515 1.6229924-.5931439 3.2385606-1.6370455 4.4815909-.4314015.4955682-.9457954.9391667-1.5635984 1.1817803-.3205682.1344318-.6761364.1129546-1.0155304.1458333.2858334.2049622.6355682.2784091.981591.2998864-.097841.1148106-.2219319.2192803-.251894.374394-.4072727 1.8239772-1.1809848 3.5440151-2.09125 5.169659-.8179924 1.3050758-1.7433712 2.5510228-2.8331439 3.6426516-.7636364.7015909-1.5392046 1.3992045-2.4025379 1.9756439-1.8025 1.1979545-3.7996212 2.9516667-5.935947 3.365303-1.8544697.4382955-3.80625.3367425-5.6511742-.0941288-1.9305682-.3855303-3.6972727-2.0732197-5.3918561-3.0455303.4947728.83125 1.1998106.7193561 1.9483334 1.3239016 1.1414772.9638257 2.4908333 1.6935227 3.9409469 2.065 1.8878788.477803 3.9003788.4213257 5.7752652-.0893561 1.5052651-.4457197 2.9702273-1.1809849 4.0470076-2.3479167.505909-.5557576.9807954-.3685606 1.2326894-1.085.089356 2.2331061.014053 4.4709849.0564772 6.7062121.0074243.7050379.1917046 1.4114016.5912879 1.9989773.1476894.2744318.3979924.4653409.6676515.6122349 0 0-4.2116666 1.9668939-9.7989394 1.9668939-4.8925757 0-9.4448826-1.8881439-9.6397689-1.9509848l-.0601894-.0206819c.7136818-.4616287 1.0267992-1.3360984 1.1669053-2.1363257.0723333-1.2223485.0197538-2.4494697.0310492-3.6739394-.0207083-1.1470455.0526856-2.2962121-.0432727-3.4414015-.7324811-.5114773-1.4762576-1.0163258-2.1147159-1.6473864-.517178-.5191667-1.0531288-1.020303-1.5279886-1.5779167-1.0804129-1.3286742-1.9859053-2.7992045-2.6760947-4.3667803-.4964697-1.2043181-.9083296-2.4436363-1.2073409-3.7102651.291481-.0620455.5613522-.1919697.819928-.3367424-.466375-.0591288-.9591061-.0639016-1.3822349-.2951137-.9102121-.4682575-1.5458333-1.3154166-2.0517159-2.180606-.7202841-1.4498485-1.0192954-3.1433712-.6554015-4.7342803.0959053-.4457197.3977538-.7957197.6441061-1.1650758.0526591-.0790151.1043636-.1590909.1579772-.2370454.3074697.605606.6121288 1.2186363 1.0267993 1.7603409.2397765.302803.5857992.5867803.9929659.5724621.3121629-.0167046.5340682-.2744318.6892348-.5207576.602716-.9723106.7277879-2.140303 1.1913523-3.1717424.4184356.6122348.7287424 1.3323863 1.3427538 1.7828788.0836818-1.0399243.213447-2.077197.3892689-3.1049243.276447-1.7187121.6996023-3.4114394 1.2270947-5.0691666.2651781.2595833.3309887.6366287.4532235.97125.2059432.5812121.2538826 1.1990151.378 1.7987878.8406364-1.387803 1.4443068-2.9158712 1.7818712-4.5020075.0940228-.488144.1447993-.9826516.2425872-1.4697349.4644394 1.0107576.9854621 2.017803 1.7366363 2.8482576.5671591.5472727 1.1990152 1.0229545 1.7452273 1.5919697-.2529545-1.1133712-.4372348-2.2407955-.5904924-3.3711364-.0790152-1.0680303-.25375-2.1344697-.1850758-3.2072727z" fill="#ecf0f4"/><path d="m3.7904188 71.7505568c1.8527197-.1064053 3.72307197-.0994318 5.56311742.1303485.92389398.1072008 1.84086738.2746174 2.74479548.5099924-.0037652.2774015-.0056477.5557311-.0150606.8340606-.1532576.7973637-.1842803 1.6135531-.3742349 2.405269-.2360113.9797879-.3187651 1.9868598-.5077651 2.9760606l-.2691818 1.3258901c-6.0197349-2.6867007-9.12184853-5.9339848-10.45505686-7.6651325l.44884848-.1096932.04600379-.0083788c.90416666-.1876743 1.82079545-.2951932 2.73334091-.3955796z" fill="#ecf0f4"/><path d="m69.7422711 84.1557765c-.0039773.1520379-.0230682.2916932-.0639015.4289356l-.0657576.0002121z" fill="#f2f2f2"/><path d="m65.8739756 71.7448826.1787121.0056742c.9988258.1061402 1.998447.2351894 2.9834849.4502273-1.3485606 1.6688636-4.4890152 4.8821818-10.328447 7.5785076-.2039015-1.1648637-.37625-2.3369925-.5499242-3.5068409-.0827273-.5058826-.1723485-1.010572-.2558712-1.516216l-.2179546-1.5218901c-.0159091-.2858333-.0103409-.5716932.0018561-.8556705l1.0285227-.2297007 1.0367424-.179428.0132576-.001697c2.02125-.3007879 4.0756439-.3377235 6.1096212-.2229659z" fill="#ecf0f4"/><path d="m12.0994188 80.428303-1.0199583-.4277689-.1473712-.0683561.2691818-1.3258901c.189-.9892008.2717538-1.9962727.5077651-2.9760606.1899546-.7917159.2209773-1.6079053.3742349-2.405269z" fill="#e3e7eb"/><path d="m57.9019302 74.7562348c.0835227.505644.1731439 1.0103334.2558712 1.516216.1736742 1.1698484.3460227 2.3419772.5499242 3.5068409l-1.0142045.455981c-.0530303-2.3308674-.0241288-4.6670644-.0095455-7.000928z" fill="#e3e7eb"/><path d="m57.9019302 74.7562348c.0835227.505644.1731439 1.0103334.2558712 1.516216.1736742 1.1698484.3460227 2.3419772.5499242 3.5068409-.2039015-1.1648637-.37625-2.3369925-.5499242-3.5068409-.1654546-1.0117652-.3590152-2.0188106-.4738258-3.0381061z" fill="#e3e7eb"/><path d="m.47703244 72.2670455-.00928031-.0112955-.45812879-.6336856c-.0147159-1.0224242-.01357575-2.0463864.01055303-3.0685189.11754167-2.6488107 1.34651894-5.1847993 3.20737879-7.0513069 1.60506818-1.6718333 5.3180644-3.5199659 7.50800384-4.2562916.9649128-.3242803 2.2419356-.5204925 3.3768901-.8307197 2.4974356-.7182955 4.9929886-1.4434849 7.4913523-2.1580682.2566932.1514015.518106.2972348.7964356.4080682 1.7696477.7167045 3.6493068 1.1085985 5.5260492 1.4209469.9826515.1344319 1.9623864.3102273 2.9572349.3290531 1.8740909.1569697 3.755606.0506439 5.6344697.0882954 2.0994697-.0458712 4.20875-.1606818 6.2726894-.5724621 1.6876894-.2980303 3.3623863-.7071591 4.9617803-1.3278788.1993939-.0790151.5928788-.1946212.7646969-.3224242 3.7415531 1.1056818 10.4077273 3.1192424 11.0737879 3.3509848 3.109697 1.082269 7.1755303 3.4097424 8.8115152 6.3143447.7776894 1.3502576 1.2345454 2.8763637 1.3522727 4.4269167l.0071591 2.8396136-.3049243.4489546-.4207954.5392121-.1887879-.0436174c-.3738636-.0760455-.7501136-.1409015-1.1401515-.194144-.5520455-.0883485-1.1032955-.1538939-1.6545455-.2124659l-.1787121-.0056742c-1.9464773-.1087387-3.9109848-.0803674-5.8500379.1899545l-.2728409.0347084-.1002272.0173409-.9365152.1620871-1.0285227.2297007c-.012197.2839773-.0177652.5698372-.0018561.8556705-.0074242 1.1714924-.0182954 2.3435682-.0204166 3.5123561l-.0018561.3113674.0318182 3.1772045c-5.4480682 2.33625-13.0701137 4.1778599-23.4910985 4.0774735-9.7542083-.0939432-16.9195833-1.7604204-22.1030038-3.8844432l-.0040833-1.8220151-.0120644-5.3813296c.0094129-.2783295.0112954-.5566591.0150606-.8340606-.9039281-.235375-1.8209015-.4027916-2.74479548-.5099924-1.84081439-.2299394-3.70954924-.2374697-5.56311742-.1303485l-.08519318.0028371c-.58214015.0640341-1.16595076.1309849-1.74010985.2215606l-.11804546.0150341-.38531818.07-.18775379.0317122-.06241666.0137348-.28570076.0519167z" fill="#464d58"/><path d="m.47703244 72.2670455-.00928031-.0112955-.45812879-.6336856c-.0147159-1.0224242-.01357575-2.0463864.01055303-3.0685189.11754167-2.6488107 1.34651894-5.1847993 3.20737879-7.0513069 1.60506818-1.6718333 5.3180644-3.5199659 7.50800384-4.2562916.9649128-.3242803 2.2419356-.5204925 3.3768901-.8307197 2.4974356-.7182955 4.9929886-1.4434849 7.4913523-2.1580682.2566932.1514015.518106.2972348.7964356.4080682 1.7696477.7167045 3.6493068 1.1085985 5.5260492 1.4209469.9826515.1344319 1.9623864.3102273 2.9572349.3290531 1.8740909.1569697 3.755606.0506439 5.6344697.0882954 2.0994697-.0458712 4.20875-.1606818 6.2726894-.5724621 1.6876894-.2980303 3.3623863-.7071591 4.9617803-1.3278788.1993939-.0790151.5928788-.1946212.7646969-.3224242 3.7415531 1.1056818 10.4077273 3.1192424 11.0737879 3.3509848 3.109697 1.082269 7.1755303 3.4097424 8.8115152 6.3143447.7776894 1.3502576 1.2345454 2.8763637 1.3522727 4.4269167l.0071591 2.8396136-.3049243.4489546-.4207954.5392121-.1887879-.0436174c-.3738636-.0760455-.7501136-.1409015-1.1401515-.194144-.5520455-.0883485-1.1032955-.1538939-1.6545455-.2124659l-.1787121-.0056742c-1.9464773-.1087387-3.9109848-.0803674-5.8500379.1899545l-.2728409.0347084-.1002272.0173409-.9365152.1620871-1.0285227.2297007c-.012197.2839773-.0177652.5698372-.0018561.8556705-.0074242 1.1714924-.0182954 2.3435682-.0204166 3.5123561l-.0018561.3113674.0318182 3.1772045c-5.4480682 2.33625-13.0701137 4.1778599-23.4910985 4.0774735-9.7542083-.0939432-16.9195833-1.7604204-22.1030038-3.8844432l-.0040833-1.8220151-.0120644-5.3813296c.0094129-.2783295.0112954-.5566591.0150606-.8340606-.9039281-.235375-1.8209015-.4027916-2.74479548-.5099924-1.84081439-.2299394-3.70954924-.2374697-5.56311742-.1303485l-.08519318.0028371c-.58214015.0640341-1.16595076.1309849-1.74010985.2215606l-.11804546.0150341-.38531818.07-.18775379.0317122-.06241666.0137348-.28570076.0519167z"/><g fill="#3e444d"><path d="m.47703244 72.2670455.44884848-.1096932.28570076-.0519167z"/><path d="m1.96511577 71.9749545-.50336364.0850341.38531818-.07z"/><path d="m3.7904188 71.7505568c1.8527197-.1064053 3.72307197-.0994318 5.56311742.1303485-1.84081439-.2299394-3.70954924-.2374697-5.56311742-.1303485z"/><path d="m58.7143544 72.1489735-1.0285227.2297007c.6469697-.1617954 1.300303-.291375 1.9650379-.3917878z"/><path d="m67.7072332 71.9630227c.379697.0538523.7599242.1178599 1.1401515.194144l.1887879.0436174z"/></g><path d="m65.8739756 71.7448826c-1.9464773-.1087387-3.9109848-.0803674-5.8500379.1899545 1.9310985-.270481 3.8998485-.300178 5.8500379-.1899545z" fill="#343535"/><path d="m57.663559 76.7467008.0299621 3.4885719-.0318182-3.1772045z" fill="#e3e7eb"/><path d="m51.794165 20.7815152c.566894-.3733334 1.5357576-1.7682955 1.543447-1.6977652-.1034091 1.6407576-.2497727 2.0374242-.4565909 2.7406061-.1373485.477803-.2802652.9741666-.5934091 1.3710984-.1251515.0920076-.2529546.2341288-.4239773.2031061-.2736364-.0479924-.4796591-.2548106-.6639394-.4467803-.4276894-.4748864-.9359848-1.0592803-1.3140909-1.5755303.6883333-.0487879 1.3414015-.1858712 1.9085606-.5947348z" fill="#3e444d"/><path d="m34.5850362 16.5274242c.4984849-.0450757.9993561.0859091 1.4676137.2107955.9797348.2728409 1.7452272.4658712 2.7578409.5289773.5369318.0365909 1.2602651.0877651 1.7667045.0148485.3717424.4046212.7551515 1.2109469.9807955 1.715-.6687122-.024394-1.32125-.1787122-1.9700758-.327197-1.7142045-.4176137-3.4992045-1.2210227-5.0028788-2.1424243z" fill="#3e444d"/><path d="m43.9782938 19.8102652c-.206553-.5289773 1.779697-.0251894 2.6504545-.0289016.036591.0882955.0076894.467197.0434849.5573485.014053.51625.1532576 1.0325.5462121 1.3925758-1.2401136-.3083712-2.359053-1.0012121-3.2401515-1.9210227z" fill="#3e444d"/><path d="m20.6549302 20.3723864c.3487007-.2590531.9297538-.155644 1.351-.2025758-.1758485 1.0277273-.3353637 2.2612121-.4190455 3.3011364-.6140114-.4504925-.9243182-1.170644-1.3427538-1.7828788-.4635644 1.0314394-.5886363 2.1994318-1.1913523 3.1717424-.1551666.2463258-.3770719.504053-.6892348.5207576-.4071667.0143182-.7531894-.2696591-.9929659-.5724621-.4146705-.5417046-.7193296-1.1547349-1.0267993-1.7603409-.0752234-.1532576-.1457537-.3102273-.2134469-.4664016-.132019-.6305303.3573712-.9948484.8040189-1.0192424.8161629-.0217424 2.0114659.4414773 2.6047955-.0888257.403375-.3478788.6873788-.7824622 1.1157841-1.1009091z" fill="#3e444d"/><path d="m28.4942408.92431818c.4767424-.3232197.9253788-.70503788 1.4641666-.92431818-.3094318.76655303-.7145833 1.49625-.9648863 2.2832197.4213257-.23996212.8134848-.53215909 1.2573485-.7344697 1.4882954-.70901515 3.1367424-.97787879 4.7578787-1.18575758.9996213-.16545454 2.015947-.16810606 3.0240531-.25852272 1.3915151-.11931818 2.7814394.05647727 4.1681818.15431818 1.3626136.19727273 2.7185985.48522727 4.0122727.96462121.4345834.16731061.8829546.31420455 1.2759091.57272727-1.1271591.33647728-2.2734091.60746212-3.4093182.91477273.0026515.04242424.0074243.12700758.0103409.16943182.6204546.65810606 1.4601894 1.03435606 2.2726137 1.39708333 2.7700379 1.25178031 5.2751894 3.17068182 7.0389772 5.66257576.6207197.9129167 1.1595076 1.9305682 1.2751137 3.0455303.0837879.6029545-.0413637 1.2082955-.1935606 1.7905682-1.1457197-1.6370455-2.1137879-1.6033712-2.4749243-1.7865909.2821212.5846591.6178031 1.148106.8076516 1.7741288.2876893.9516288.4664015 1.9361363.5387878 2.9283333.0959849.6589015-.0206818 1.3199242-.0639015 1.9782955-.0074242-.0705304-.0217424-.213447-.0291667-.2850379-.4080681.5276515-.7869696 1.0993182-1.3541287 1.4726515-.566894.4088636-1.2607955.582803-1.9491288.631856-.7182955-.9054924-1.158447-1.9822727-1.774394-2.9524621-.3261363-.5143939-.5414394-1.0842045-.8002272-1.6325379-.4605682 1.0812879-.7588637 2.252197-.7116667 3.4339773-.0357955-.0901515-.0715909-.1805682-.1081818-.2688636-.8707576.0037121-1.7264015-.1495455-2.5857576-.2595833-.9564015-.9845076-1.6447348-2.2341667-2.7936364-3.0248485-.4937121-.2773485-1.0446969-.4364394-1.5816288-.6064015.3807576.4616287.8179925.8744696 1.1658713 1.363409-.5218182-.1635984-1.0738637-.0941287-1.6105303-.1307197-1.0128788-.063106-2.0254925-.1975378-3.0052273-.4701136-.4682576-.1251515-.9243182-.3574242-1.422803-.3123485-1.4771591-.9062879-2.8029167-2.0610227-3.9115152-3.3934091-.8426515-.9855681-1.4922727-2.1156439-2.0535985-3.2788636-.0686742 1.072803.1060606 2.1392424.1850758 3.2072727.1532576 1.1303409.3375379 2.2577652.5904924 3.3711364-.5462121-.5690152-1.1780682-1.044697-1.7452273-1.5919697-.7511742-.8304546-1.2721969-1.8375-1.7366363-2.8482576-.0977879.4870833-.1485644.9815909-.2425872 1.4697349-.3375644 1.5861363-.9412348 3.1142045-1.7818712 4.5020075-.1241174-.5997727-.1720568-1.2175757-.378-1.7987878-.1222348-.3346213-.1880454-.7116667-.4532235-.97125-.5274924 1.6577272-.9506477 3.3504545-1.2270947 5.0691666-.4212462.0469318-.8612916.111894-1.2157992.3629925-.4391174.3065151-.7795189.7278409-1.1828939 1.0757196-.5933296.5303031-1.3286478.97125-2.1448106.9929925-.4466478.0243939-.8632008-.1702273-1.3023182-.2163637l-.0122235-.001856c-.3093788-.7588637-.5876818-1.5628031-.5087197-2.3948485-.4456932.3873864-.7785644.8818939-1.0559394 1.3981439-.1316477-.8818939.0319773-1.7725378.1965038-2.6393182.2980833-1.3559848.8453295-2.6377272 1.3107765-3.9409469.2548371-.7278409.5500833-1.4413637.7983182-2.1721212-1.0249167.1551136-2.0714697.1739394-3.0945038-.0092803.567-.6620834 1.2496591-1.2112122 1.890928-1.7987879 1.1631402-1.0128788 2.3864697-1.9578788 3.6558826-2.83500002.2839773-.18799242.5764129-.36776515.8312235-.59526515-.403375-.06575757-.8124243-.08829545-1.2205189-.10340909.0677196-.13549242.1730378-.24738636.2971553-.33382576.6365757-.47859848 1.2957159-.945 2.0376098-1.24674242.4184356-.18162879.8630947-.31844697 1.3117311-.36590909.2651515 1.86003788 1.1546818 3.6492803 2.5482121 4.92068183-.1072008-.69018941-.2285076-1.38143941-.2369659-2.08196971-.0338599-.76443182.0564242-1.53363636-.0583068-2.29435606-.1071743-.06018939-.214375-.12011364-.3215758-.17765151.1871174-.36484849.2200227-.78405304.4146705-1.14704546.7578825-1.61636364 2.1597651-2.80981061 3.5796515-3.83753788" fill="#4c535d"/><path d="m15.1392483 24.2364394c.2256705-.4223864.5604243-.8331061 1.0465531-.9516288-.2463523.3693561-.5482008.7193561-.6441061 1.1650758-.3638939 1.5909091-.0648826 3.2844318.6554015 4.7342803.5058826.8651894 1.1415038 1.7123485 2.0517159 2.180606.4231288.2312121.9158599.2359849 1.3822349.2951137-.2585758.1447727-.528447.2746969-.819928.3367424-.9120947.0649621-1.7470834-.4785985-2.3319546-1.1359091-1.0108106-1.1772727-1.6210568-2.6854545-1.739553-4.2312879-.0545152-.8124242.0188257-1.6595833.3996363-2.3929924z" fill="#e3e7eb"/><path d="m53.4009832 23.3346591c.0554167-.0084849.1654545-.0235985.2200758-.0310227.7013257.4616288 1.0812878 1.274053 1.1780681 2.0891288.2004546 1.7574242-.2951136 3.5768939-1.3305303 5.0081818-.5849242.8047348-1.4413636 1.5675757-2.4889772 1.5824242-.3460228-.0214773-.6957576-.0949242-.981591-.2998864.339394-.0328787.6949622-.0114015 1.0155304-.1458333.617803-.2426136 1.1321969-.6862121 1.5635984-1.1817803 1.0439016-1.2430303 1.634394-2.8585985 1.6370455-4.4815909-.0270455-.8922348-.1447727-1.8804545-.8132197-2.5396212z" fill="#e3e7eb"/><path d="m37.4648468 45.7155682c2.1363258-.4136364 4.133447-1.371894 5.935947-2.5698485l-.0347348.0922727c-.251894.7164394-.7267804 1.324697-1.2326894 1.8804546-1.0767803 1.1669318-2.5417425 1.9021969-4.0470076 2.3479166-1.8748864.5106819-3.8873864.5671591-5.7752652.0893561-1.4501136-.3714773-2.7994697-1.1011742-3.9409469-2.065-.7485228-.6045455-1.4535606-1.2881061-1.9483334-2.1193561 1.6945834.9723106 3.4708334 1.8645455 5.4011364 2.2500758 1.8449242.4308712 3.7874242.5324242 5.6418939.0941288z" fill="#e3e7eb"/><path d="m33.9836726 3.48488636c1.1642803-.05462121 2.3282954.03181819 3.4830303.17871212.9723106.17102273 1.9650379.26409091 2.9036742.59049243.7379167.19276515 1.4827273.36193182 2.1983712.63079545.6639394.20310606 1.258144.57087122 1.9059091.81162879.4852273.17871212.9224622.45791667 1.37375.70424243 1.0232197.57272727 2.0103788 1.21306818 2.9158712 1.95867424.3489394.31208333.6376894.68435606.9320076 1.04655303.1954167.23598485.3213637.5425.2678031.85272725-.2829167.3330303-.741894.4099243-1.1547349.4401515-.3054545.024394-.6787879.0930682-.8124242.4117803-.2039016.3921591 0 .8386743.238106 1.1650758.3401894.4446591.7662879.8378788.9786743 1.3689773.2237878.5406439.4139015 1.1679924.2089394 1.7433712-.2219319-.1354924-.4260985-.2980303-.6196591-.4701137-.9948485-.8301893-2.2418561-1.2411742-3.4604925-1.6174242-2.3309469-.5462121-4.7493939-.6148864-7.0681439-1.2223485-.8010227-.2847727-1.6529545-.4457197-2.3967045-.8726136-1.1003788-.5000758-2.1326137-1.1592424-3.0174243-1.98492426-.8079166-.62893939-1.4970454-1.40291667-2.0753409-2.24636364-.3075757-.47859848-.6262879-1.01632575-.5539015-1.60973485.0310227-.49742424.3282576-.9460606.7400379-1.2167803.8670454-.62443182 1.9822727-.67984848 3.0126515-.66287879z" fill="#5c646f"/><path d="m25.2427673 52.5713258c.1961591.063106 4.9110568 1.4156439 9.6397689 1.414053 4.7692803-.0015909 9.5523485-1.3575758 9.7276137-1.4074243.3364772.2651516.6488257.5660985 1.0314394.7670834 1.0918939.5743182 2.1814015.70875 3.078409.9937879-.1720833.127803-5.5496212 2.647803-13.8374621 2.6472728-8.2875757-.0007956-13.0220416-2.577538-13.2787348-2.7289395.8585076-.2603788 1.7602348-.4306061 2.5454015-.8866667.4014924-.2123863.7456591-.5114772 1.0935644-.7991666z" fill="#717d90"/><path d="m9.07404001 57.9014015c.59887121-.2617045.90639394-.3926894 1.52194319-.6024242.093625.4088636.3824545 1.4256136.5028068 2.0828977.4127879 2.0018939.7202576 4.0282348.8556705 6.0696364.1626704 1.7188447.1438712 3.4480568.1598598 5.1725757.0140796.5463182.0770796 1.0926364.0272576 1.6389281-.2200227-.7277879-.251072-1.4931743-.3930341-2.2360228-.4250379-2.3018598-.8284129-4.6084129-1.3042008-6.9008598-.4193901-1.7564697-.8526742-3.5207349-1.37030299-5.2247311z" fill="#3e444d"/><path d="m59.1781044 57.51375c.4194697.1317803.8354924.2651515 1.5728788.5610606-.1564394.353553-.3926894.9572765-.5414394 1.537428-.3006818 1.0258712-.5395833 2.0686591-.7511742 3.1170947-.4992803 2.3037425-.9195455 4.6244015-1.3286743 6.9469167-.1683712.8256023-.2020454 1.6737424-.4091288 2.4918144-.1145454-.9487652.0198864-1.9022235.0198864-2.8528712.014053-3.9370493.4465151-7.9847727 1.4376515-11.8014432z" fill="#3e444d"/></g></svg>