<svg xmlns="http://www.w3.org/2000/svg" width="16" height="16" viewBox="0 0 16 16"><path fill="#6d7278" d="M8 0a8 8 0 1 0 0 16A8 8 0 0 0 8 0zm6.231 5.143H11.51A10.38 10.38 0 0 0 9.48 1.306a6.883 6.883 0 0 1 4.751 3.837zM7.97 14.589a9.269 9.269 0 0 1-2.283-3.732h4.628A9.269 9.269 0 0 1 8.03 14.59a.051.051 0 0 1-.06 0zM5.397 9.714a9.429 9.429 0 0 1 0-3.428h5.206a9.429 9.429 0 0 1 0 3.428zM1.143 8c-.001-.578.072-1.154.217-1.714h2.877a10.571 10.571 0 0 0 0 3.428H1.36A6.792 6.792 0 0 1 1.143 8zM8 1.4a.043.043 0 0 1 .031 0 9.269 9.269 0 0 1 2.283 3.743H5.686A9.269 9.269 0 0 1 7.97 1.41.043.043 0 0 1 8 1.4zm3.763 4.886h2.877a6.874 6.874 0 0 1 0 3.428h-2.877a10.571 10.571 0 0 0 0-3.428zM6.52 1.306a10.423 10.423 0 0 0-2.029 3.837H1.77A6.883 6.883 0 0 1 6.52 1.306zm-4.751 9.551H4.49a10.38 10.38 0 0 0 2.029 3.837 6.883 6.883 0 0 1-4.751-3.837zm7.714 3.837a10.423 10.423 0 0 0 2.026-3.837h2.722a6.883 6.883 0 0 1-4.751 3.837z"/></svg>