<svg height="87" viewBox="0 0 60 87" width="60" xmlns="http://www.w3.org/2000/svg"><g fill="none" fill-rule="evenodd"><path d="m10.6464706 74.9864253c.088371.1606154.1719638.3241629.1983258.5085611.132543 1.1225159.3648869 2.3710317.494905 3.4943892.1476651 1.4768416.5518099 3.3160181.2122805 4.4368506l-1.1568597-.4606425-.71611768-.3865792.08443439-8.7650497.60792759.243638z" fill="#e3e7eb"/><path d="m59.8311312 85.9214932c.0051584.2315294.040181.4733756-.0138461.709276l-.199819-.0023077z" fill="#f2f2f2"/><path d="m53.1640724 73.3051493c.4118552-.0344253.8242534-.0575837 1.2363801-.0713755 1.8428959-.0544073 3.6836199.220914 5.4551131.7146244-.0040724-.4631131-.0135746-.9253846-.0076018-1.387629.0119457-.5115475-.0619005-1.0213846-.0092308-1.5312217.0008145-.4019457-.0561991-.8055746.0152037-1.2049412l.0738461.2975023c.0062443.1031403.000543.2085068.0027149.310914-.0127601 1.0749231.0051584 2.1506878-.0016289 3.2264525-.0847059.5104887-.0939367 1.0264616-.0925792 1.5398552l-.0152036-.0622262s-2.6174661 4.4704344-10.3248869 7.7791221l-.4778281.1592037.1862444-6.2299005.1273303-2.7224253c.0086878-.1444616.1493213-.0124073.181629-.1517647.7905882-.2387783 1.6004524-.4093575 2.4184615-.5271584z" fill="#ecf0f4"/><path d="m4.35586425 73.2530498c1.09677828-.0530769 2.20083258-.0057557 3.29068779.1499185l.34848868.0443077 1.03170136.1935204c.44695928.1011041.93385521.1605882 1.33322172.382371l.0410226 1.4021539-.0180543.0517466.0121901 7.4885158c-7.91837107-3.3166154-10.29219912-7.8513937-10.29219912-7.8513937l-.08082353.2814299c-.00714027-.4646606-.01574661-.9329864.00502262-1.4004977l.67726697-.2319638c.89891403-.2177919 1.81417195-.3703168 2.73146606-.4482353l.37487783-.037629z" fill="#ecf0f4"/><path d="m49.5032579 79.0196471-.0070588 3.8965791-1.1638914.4742444s-.0382806-2.1265249.1903167-4.2638009c.2033485-1.9040905.6743892-3.8166787.7009955-4.2418643l.1428054.112181.0260634-.3033665c.0160181-.0998552.040724-.198.077647-.2931584z" fill="#e3e7eb"/><path d="m51.9320362 73.444181c-.8180091.1178009-1.6278733.2883801-2.4184615.5271584-.0323077.1393574-.0350227.2846606-.043439.4291221-.036923.0951584-.0616289.1933032-.077647.2931584l-.0260634.3033665-.1428054-.112181-.0714027.672543c-.0947511.669095-.2438009 1.3302896-.3024434 2.0058462-.2880543 1.8889683-.4316743 3.7957737-.5123077 5.7034479l-.0051584.1238281c-4.5431674 1.761828-10.6838009 3.0813937-18.8397285 3.0028235-7.7655475-.0747964-13.6025159-1.3211403-17.9405973-2.9670679-.0667873-1.4793122-.2200724-2.9578099-.3677647-4.4346244-.129991-1.1233575-.3577466-2.2339547-.4902896-3.3564706-.0263348-.1843982-.0968688-.3577466-.1852398-.5183348l-.037819.1083258-.110905-1.2019548c-.39936651-.2217828-.88626244-.2812669-1.33322172-.382371l-.51453394-.0965159-.51716742-.0970045-.34848868-.0443077c-1.09240724-.1526606-2.19735747-.2030497-3.29068779-.1499185l-.54513122.0242443-.37487783.037629c-.91729411.0779185-1.83255203.2304434-2.73146606.4482353l-.67726697.2319638c-.04588235-.3619819-.01612669-.7282263-.02462443-1.0910498.00510407-1.4377738-.0441991-2.8797828.13680543-4.3099005.40447059-2.5152217 1.55332126-4.9284977 3.33608145-6.7596651 1.02648868-1.106362 2.2696561-2.004543 3.62584615-2.6614751 1.05366516-.5055204 2.17702262-.8370136 3.27320363-1.2304073 2.2432941-.7824434 4.4823801-1.5762896 6.7273846-2.3546606 1.0706606-.3958371 2.1693937-.7145701 3.2230588-1.1573756l.0798733.0051584c.0433303.040724.1300181.1232579.1725068.1639819.3135475.2975566.7358824.4265158 1.1148597.6171041 2.0495838.8554751 4.2342625 1.3984615 6.4530408 1.5480543 1.1834389.1248869 2.3818099.1292307 3.5644344-.0076018 2.2577375-.1333032 4.4630769-.7495928 6.5473303-1.6069684.379819-.178371.8014479-.2980995 1.1114932-.5945701.0841629-.0893213.1979185-.1240724.3195475-.0952941.679819.339095 1.4215385.5209955 2.1293213.7895023 3.2869683 1.1530316 6.5771945 2.3000904 9.8638914 3.4542081 3.0912217 1.1453484 5.6907692 3.5467059 7.0444344 6.555638.4425339.9712398.7536651 2.0011222.9464253 3.050552.0741176.5030498.098552 1.0120453.1819005 1.5142534-.0714028.3993666-.0143892.8029955-.0152037 1.2049412-.0526697.5098371.0211765 1.0196742.0092308 1.5312217l.0076018 1.387629c-1.3286878-.3702896-2.6961991-.6177014-4.0745701-.6953484l-1.380543-.019276-1.2363801.0713755z" fill="#464d58"/><g fill="#606261"><path d="m58.5149321 73.6208145c-.4512217-.0945883-.9059728-.1737014-1.360181-.235276l1.360181.235276c.4506788.094371.8978281.2041629 1.3406335.3275837z"/><path d="m53.1640724 73.3051493-1.2320362.1390317c.818009-.1178009 1.6444344-.1827964 2.4684163-.2104072z"/><path d="m1.7301991 73.5442805c.34180995-.063095.68527601-.1168778 1.03656108-.16219l-1.03656108.16219c-.34142987.0630408-.68481448.1362625-1.02580996.2188779z"/><path d="m4.35586425 73.2530498c1.09677828-.0530769 2.20083258-.0057557 3.29068779.1499185-1.09240724-.1526606-2.19735747-.2030497-3.29068779-.1499185z"/><path d="m9.71120362 73.786724c.11375566.0276108.2260181.0590226.33483258.0973574l-.33483258-.0973574c-.22751131-.0552217-.46099548-.0953756-.68446154-.1459276z"/></g><path d="m24.5498009 1.41285068c2.3622624-.89049774 4.8765339-1.49809955 7.4174389-1.40280543 2.0953846.07710407 4.1663349.63366516 6.0295928 1.59230769 1.5575565.77239819 2.9470588 1.83638009 4.2157466 3.01656109 1.720724 1.65773755 3.1661538 3.58941176 4.3615384 5.65574657 1.3300453 2.3291403 2.3131222 4.8879638 2.6291403 7.5619005.0933937 1.417466.1020815 2.8509502-.1504072 4.2529412-.0849774.4563801-.0347512.976561-.2940272 1.3740271-.5019909-.6244344-5.7399095 3.7745701-5.6761086 4.2548416-.0418099-.1973755-.0570135-.398552-.1020814-.5948416-.8522172-.2074208-1.6333032-.6152036-2.4320362-.9646154-.9133032-.420543-1.7809955-.9295927-2.6690498-1.3995475-.6024434-.3933936-1.2293213-.7460633-1.8268778-1.1470588-1.0968326-.7699548-2.2134842-1.5152036-3.2484163-2.3698643-.8744796-.6822624-1.7326697-1.3816289-2.5884163-2.0861538-.9236199-.8361991-1.9202715-1.5882353-2.8254299-2.4439819-1.1122534-.9515837-2.1557375-1.9780996-3.1821991-3.0206335-.1028416-.080905-.2056561-.2361991-.3526425-.1718552-.8234118 2.6690498-2.0189864 5.2379186-3.6513394 7.5108597-.8828959 1.300181-1.9051221 2.4990951-2.9817556 3.641267-.4545882.3993665-.8573756.8709502-1.3927059 1.1666063.0992036-.158009-1.9789412-.2277828-3.3307602-1.0748416-1.0909412-.6833484-1.4734479-2.1950226-1.6810045-2.1719457-.1300181-.318733-.1257828-.6686878-.164009-1.0053394-.3008145-3.777828.3084434-7.599095 1.5686063-11.1638009.5820814-1.52959273 1.3723439-3.0105882 2.5517918-4.16552033.8599276-.84868778 1.8779186-1.58307692 3.048-1.92705882.1359638.46126697 2.728534.13764706 2.6376109-.51339367l-.0034208-.0559276c1.2040995-1.02895927 2.6257194-1.76823529 4.0932217-2.3478733" fill="#4c535d"/><path d="m48.5413575 27.9876923c.1707692.0135747.4639819.0659729.6355656.0838914.3211764.7153846.4354751 1.4752941.4202715 2.2571946.0363801 1.5847059-.3988236 3.2557466-1.1915837 4.6297737-.5321267.8956561-1.0840724 1.7318552-2.1504978 1.9629496-.2820814.0026613-.8280543-.0983342-1.0973755-.1713659-.1495928-.0866063-.4311313-.2899547-.522896-.4379185.2880543.0092308.6507693.01819.9301358-.0708597.6961086-.1675113 1.2339366-.7908598 1.6764706-1.3126697 1.2958371-1.7877828 1.4877828-6.0325792 1.4877828-6.0325792-.0646154.0431674-.1224435-.0654299-.1802715-.0146606.0738461-.2956561.0382805-.5980996-.0076018-.8937557z" fill="#e3e7eb"/><path d="m10.2520724 29.6459729c-.0218824-.1322172.3524525-.3559277.4523348-.4411765.1540724.1647964.3889412.3638009.5658462.5098642.0342353.9054299.1123439 1.8561991.3891041 2.7282353.3671402 1.0539367.933095 2.3123077 1.7786335 3.1341177.5935113.6255203 1.2283167.7726697 2.1680361.7734841-.0475656.1254299-.265466.3931222-.3253846.5150227-.5877828-.0195475-1.3943077.1186425-1.9478552-.1330317-.5877828-.3149321-.9264163-.7468778-1.3049592-1.2629864-1.3934118-1.6512218-1.8394752-3.7916742-1.7757557-5.8235294z" fill="#e3e7eb"/><path d="m22.8868507 47.5903167c.0314389-.0143891.0951583-.0415384.1265973-.0561991 1.0732398.7723982 2.1965972 1.4888688 3.412561 2.0174661 1.1471132.4504073 2.3674752.7715837 3.6062987.7791855 2.5645249-.037466 5.0245249-1.117466 7.0333032-2.6638914.1104977.0331222.1020814.1995475-.0051584.241086-.3619005.3518552-.5997285.8133937-.9532127 1.1780091-.4180995.4026244-.7962896.8546606-1.2866063 1.1742081-1.3153846 1.0995475-3.0133032 1.7147511-4.7245249 1.7590045-1.0069683.0347512-1.998733-.2633484-2.8976471-.6977375-.8106787-.4300453-1.5873393-.9347512-2.2654479-1.5548417-.3730317-.3917647-.832724-.6944796-1.1700815-1.1209954-.2923167-.3518552-.6067059-.6866064-.8760814-1.0552942z" fill="#e3e7eb"/><path d="m19.6960724 3.94751131c.2583258-.01954751.5293846.00515837.7639276-.13085973.0909231.65104073-.0509864 1.30696833.0331222 1.95800905.1334117 1.07809955.5897375 2.07502263.8990226 3.10751132.1079185.35266968.2897647.68307692.3551946 1.04850678-.2863439-.17239819-.4732942-.47076923-.700181-.71049773-.4189141-.59809955-.9287512-1.1242534-1.3553213-1.71556562-.4529321-.60244343-.8471946-1.24642533-1.2567692-1.87873303-.2005521-.43330316-.476715-.83457013-.6126788-1.2958371.5897376-.26171946 1.2406154-.30841629 1.8736833-.38253394z" fill="#3e444d"/><path d="m49.0528507 28.0463348c.2117647-.0290497.4232579-.0662443.6355656-.1028959.0662443.0578281.1240724.1240724.1718552.199819 1.4809955 3.680905 2.9364706 7.4231674 5.1893213 10.7158371.9133031 1.2985521 1.9262443 2.5417195 3.1354751 3.5774661.2006335.1658823.398552.4080543.3399095.6874208-.0331222.2380995-.2413575.3790045-.4213575.5074208-.5991855.4009955-1.3009955.6116742-2.0030769.7417195-.2514027.0485973-.200362.3961086-.0040724.4903167.2090498.1053394.158009.3874208-.0143892.499819-.7324886.440905-1.6145701.5845249-2.4575565.4979186-.1284163-.0067874-.2720362-.0323077-.3705882.0686878-.1341177.1862443.018733.4224434-.0363801.6306787-.3084163.1639819-.6909503.1476923-1.0333032.1911312-.6076018-.021448-1.2323077-.0917647-1.7861539-.359457-.1707692-.0638009-.3442533-.1922172-.5345701-.1300453-.1333032.2063349-.0450679.461267-.0135746.6849774.1954751.7935747.5590045 1.5371946 1.037647 2.1982806.1153846.1308597.1639819.4121267-.0526697.4696832-.9570135.0781901-1.9664253-.0160181-2.8153846-.498733-.2106787-.0993665-.4009955-.3160181-.6551131-.2361991-.1504073.0993665-.0961086.3067873-.0646154.4547511.0646154.3551131.2923982.6874208.2057919 1.061267-.400181.1061538-.7802715-.1148416-1.1557466-.2150226-.282896-.0689593-.6040724-.2481448-.8769231-.0561991-.2106788.1658823-.1571946.4946606.0008145.6817194.2166515.3176471.6051583.4189141.9195475.6073303.1664253.0901358.1707692.3714028.0024434.4658824-.881267.2250679-1.8040724.2742081-2.7073303.1824434-.5098643.0019005-.9874208-.2777375-1.4997285-.1995475-.2497738.4672398-.042353 1.0365611.1352036 1.4989141.0507692.1810859.260905.4129411.0730317.579638-.3152036.1248868-.6730317.0423529-1.0053394.0678733-.9532127.0263348-1.899095-.139276-2.8083258-.4172851-.1061538-.0559276-.2150226-.1053394-.3076018-.18.1248869-.0993665.2006335-.2397285.2234389-.3961086.3024435-1.398733.8438009-2.7293213 1.4030769-4.040362.7178281-1.6962896 1.6525792-3.2877828 2.660362-4.8257918.6901358-1.0180996 1.3620815-2.0503168 1.9656109-3.122715.7161991-1.2882353 1.1359276-2.7149321 1.4554751-4.1476018 1.0664253-.2313122 1.8100453-1.1063348 2.3419005-2.0019909.7927601-1.3740272 1.1913122-2.9638914 1.1549321-4.5485973.0152036-.7819005-.1064254-1.5670588-.4276018-2.2824435z" fill="#4c535d"/><path d="m10.510371 28.8961086c.0696923.140905.1342806.2853394.1997104.4297738-.0892398.0849773-.1699547.1870588-.1504072.318733-.0569321 2.0231674.3415928 4.1543891 1.5864434 5.798552.3381991.5142082.8132037.9179186 1.338353 1.2314932-.002552.1835294.0815837.3483258.1571946.5114932.582923 1.4199095 1.4641086 2.6894118 2.3444524 3.9385521 1.8133304 2.4013574 2.8831494 5.2683258 3.6462353 8.1548416.2948417 1.2958371.6084163 2.5900453.7851584 3.9089593.0611674.3092308.0322806.638009.1750317.9276923-.3517738-.2250679-.5812127-.6363801-.9780543-.8139367-.2489593-.1607239-.5973665-.1528506-.8208326.0502263-.1512489.1180995-.3280181.320362-.5370407.200362-.3815294-.2717647-.6670588-.6567421-.9024163-1.0552941-.0552489-.1088688-.1912127-.2038914-.307629-.1224435-.541276.3279638-1.1131493.6279638-1.7351674.7631674-.2625611.0442534-.6364344.0355657-.7052851-.2880543-.0730588-.579638.3246245-1.1234389.1733485-1.7038914-.0135747-.1485067-.1988417-.2055203-.3237285-.1919457-.5056019.0773756-.9797647.2788236-1.465819.4316742-.1096019.0390951-.2906064.1113123-.3458281-.0442533-.1045249-.282896.0331222-.5869684-.0314389-.8761086-.0849774-.5310408-.4954208-1.0009955-1.0145973-1.1454299-.5744253-.1767421-1.1403529.2253394-1.71988235.1156561-.10110408-.0977376-.05864254-.2625339-.05353847-.3866063.09602715-.4631675.16229865-.942353.07647964-1.4114932-.05861538-.2785521-.41125792-.1808145-.60160181-.120543-.46227149.1213574-.90073303.4962896-1.39952036.3439819-.29486878-.2258824-.19544796-.640724-.17421719-.9591856.12323076-.8856108-.04161991-1.9246153-.79365611-2.499095-.31780996-.3084163-.77750227-.3135746-1.17347512-.4419909-.12323077-.2266969.0679819-.4639819.15635295-.6678733.19797285-.440905.41380995-.9008145.44524886-1.3876018-.18608144-.2294118-.5599819-.102896-.82425339-.1656109-.56421719-.1172851-1.16413575-.0741176-1.70628054-.2771946-.08242534-.1672398-.01357466-.3703167.14701357-.458009 1.52443439-.9754751 2.71238009-2.4062444 3.60629864-3.9648869.82170136-1.4674208 1.39696833-3.0580995 1.86857919-4.6675113.31609955-1.0808145.62280539-2.300905.93464249-3.3800905 0 0 .102896-.0510407.1241267-.0961086z" fill="#4c535d"/><path d="m23.8555656 13.519819c.1469864-.0643439.2498009.0909502.3526425.1718552 1.0264616 1.0425339 2.0699457 2.0690498 3.1821991 3.0206335.9051584.8557466 1.90181 1.6077828 2.8254299 2.4439819.8557466.7045249 1.7139367 1.4038914 2.5884163 2.0861538 1.0349321.8546607 2.1515837 1.5999095 3.2484163 2.3698643.5975565.4009955 1.2244344.7536652 1.8268778 1.1470588.8880543.4699548 1.7557466.9790045 2.6690498 1.3995475.798733.3494118 1.579819.7571946 2.4320362.9646154.0450679.1962896.0602715.3974661.1020814.5948416.0985521.5106788.4392761.9695023.8877828 1.2276923.4208145.2158372.9024435.1308598 1.322172-.0399095-.0263349.4053394.0749321.8497738.4191855 1.1038914.3347511.3176471.8318552.3355657 1.2643439.2777376.7316742-.1504072 1.2695023-.7536652 1.5727602-1.4063348.057828-.0507693.118914-.0985521.1835294-.1417195.0282353.0195475.0825339.0602715.1104977.079819.279638 2.1855204-.2845249 4.4799095-1.580362 6.2676923-.4428054.52181-.9298642 1.0943892-1.6257013 1.2619005-.279638.0890497-.5725792.0705882-.8606335.0610859.0917647.1479638.2318552.2533032.381448.3399095-1.3433485 4.3778281-4.160362 8.2859729-7.8670589 10.9710408-.0806335.1009954-.0320362.2514027-.0475113.3730316-.0067873.7911313-.0111312 1.583077-.0100452 2.3742082-.023077 1.0647964.3686878 2.1225339 1.0425339 2.9435294.0925792.0746606.201448.1240724.3076018.18.0366516.3331222.3695023.4479638.5932127.640724.1444344.1300452.3771041.0933936.5114932.2277828-.121629-.0287783-.2353846.0059728-.3195475.0952941-.3100453.2964706-.7316742.4161991-1.1114932.5945701-2.0842534.8573756-4.2895928 1.4736652-6.5473303 1.6069684-1.1826245.1368325-2.3809955.1324887-3.5644344.0076018-2.2187783-.1495928-4.403457-.6925792-6.4530408-1.5480543-.3789773-.1905883-.8013122-.3195475-1.1148597-.6171041.2260181-.0925792.0645883-.3363801.0152851-.4835294.0467511-.0008145.1393575-.001629.1861086-.001629.6789231-.5098642 1.2491131-1.178552 1.5439819-1.9824434.3594298-.7289593.2710588-1.558371.2914479-2.3427149.0441991-.681448-.0458823-1.362896.0187059-2.0435294-.002552-.1376471.0458824-.2831675-.0042624-.4148417-.2149683-.220724-.4843439-.377104-.7214389-.5717647-2.4294027-2.0310407-4.438181-4.5700452-5.8368598-7.4123077-.3866334-.8166516-.7877104-1.6357466-1.0179909-2.5134841.0535385-.121629.1079185-.242172.1504072-.3670589-.8395384-.0008144-1.5949683-.4759276-2.1251945-1.098733-.7554299-.8182805-1.1930498-1.8602715-1.5210408-2.9095928-.247276-.8685067-.3713212-1.7657918-.4019185-2.6674208.2685068.0961086.5344887.2253394.8242534.242172.6398552-.0084163 1.244009-.4238009 1.5091222-1.00181.0560905-.1281448.1070769-.260905.1903438-.3746606.3433032.1767421.7129412.3993665 1.1174118.2948416 1.0392217-.1324887 1.7453756-1.4139366 1.2754751-2.3530317-.1053936-.2258823-.3186787-.3678733-.4860543-.5419004.0025521-.1319457.1614299-.1495928.244724-.2177376.5353303-.2956561.9381177-.7672398 1.3927059-1.1666063 1.0766335-1.1421719 2.0988597-2.341086 2.9817556-3.641267 1.632353-2.2729411 2.8279276-4.8418099 3.6513394-7.5108597zm-.9687149 34.0704977c.2693755.3686878.5837647.703439.8760814 1.0552942.3373575.4265158.7970498.7292307 1.1700815 1.1209954.6781086.6200905 1.4547692 1.1247964 2.2654479 1.5548417.8989141.4343891 1.8906788.7324887 2.8976471.6977375 1.7112217-.0442534 3.4091403-.659457 4.7245249-1.7590045.4903167-.3195475.8685068-.7715837 1.2866063-1.1742081.3534842-.3646154.5913122-.8261539.9532127-1.1780091.1072398-.0415385.1156561-.2079638.0051584-.241086-2.0087783 1.5464254-4.4687783 2.6264254-7.0333032 2.6638914-1.2388235-.0076018-2.4591855-.3287782-3.6062987-.7791855-1.2159638-.5285973-2.3393212-1.2450679-3.412561-2.0174661-.031439.0146607-.0951584.04181-.1265973.0561991z" fill="#ecf0f4"/><path d="m46.6395475 22.481267c.8370136-.1664254 1.6172851.357828 2.119276.9822624.2158371.3961086.1555656.879638-.0051583 1.2841629.6306787.0176471 1.3053393.1748416 1.7549321.6447964.4061538.4555656.339095 1.1413575.0909502 1.6552941-.1870588.398552-.5489593.6670588-.9111312.8956561-.2123077.0366516-.4238009.0738462-.6355656.1028959-.1715837-.0179185-.340724-.0450678-.5114932-.0586425.0458823.2956561.0814479.5980996.0076018.8937557-.3032579.6526696-.841086 1.2559276-1.5727602 1.4063348-.4324887.0578281-.9295928.0399095-1.2643439-.2777376-.3442534-.2541176-.4455204-.698552-.4191855-1.1038914-.4197285.1707693-.9013575.2557467-1.322172.0399095-.4485067-.25819-.7892307-.7170135-.8877828-1.2276923-.0638009-.4802715.0108598-1.0077828.3771041-1.35638.1455204-.2071494.4588235-.2489593.5780091-.4571946-.1531222-.2761086-.362172-.5310407-.4129412-.8514027-.2066064-.7843439.3076018-1.6653394 1.0900452-1.8727602.2956561-.1028959.6051584-.0076018.9076018-.0051584.262534-.3236199.582896-.6328507 1.0170136-.6942081zm-.1240724 2.6834389c-.4775565.1827149-.8530317.6426244-.8682353 1.1625339-.0646154.4528507.2929412.8948416.7297738.9857919.5804525.1341176 1.1896832-.3154751 1.3053393-.8864254.162353-.4121267-.1240724-.8429864-.439276-1.0919457-.1878733-.1775565-.4819004-.2820814-.7276018-.1699547z" fill="#717d90"/><path d="m10.1262896 22.9248869c.2013937-.1639819.4546154-.2353846.6917104-.3331222.4647964-.0518552.9516923.0152036 1.3621086.2497738.3577466.2006334.5744253.5617194.7180452.9339366.2370679-.0952941.3636924-.3686878.6228598-.4240724.418914-.1053394.86419-.0917647 1.2848145-.0032579.7120724.1544796 1.3510859.78 1.3527692 1.538009.0458823.3526697-.1495385.6670589-.3288326.9523982-.0832941.0681448-.2421719.0857919-.244724.2177376.1673756.1740271.3806607.3160181.4860543.5419004.4699005.9390951-.2362534 2.220543-1.2754751 2.3530317-.4044706.1045249-.7741086-.1180995-1.1174118-.2948416-.0832669.1137556-.1342533.2465158-.1903438.3746606-.2651132.5780091-.869267.9933937-1.5091222 1.00181-.2897647-.0168326-.5557466-.1460634-.8242534-.242172-.1580634-.1452488-.3067602-.3008144-.4444073-.4647963-.0654298-.1444344-.1300181-.2888688-.1997104-.4297738-.0212307.0450679-.064561.1333032-.085819.178371-.0093393.003258-.0263348.0100453-.0356742.0135747-.005104-.139276-.0484344-.2524887-.203104-.2465158-.57526701-.0754752-1.06303172-.5294118-1.22190955-1.08-.10962896-.4061539-.11641629-.8342987-.0518552-1.2483258.06885068-.5777376.56253394-1.1063349 1.16584615-1.0968326-.25322172-.4156561-.39086877-.8872398-.44440724-1.3699548-.0178371-.4213574.14190951-.8682353.49284164-1.1215384zm1.9764977 2.4285068c-.4724525.1639819-.7401176.6654298-.7018914 1.1505882-.0314389.3238914.2413303.5660633.5192036.6703167.5208869.2541177 1.2219367.1148417 1.559267-.3711312.2549321-.4300452.0883711-1.0213574-.3152579-1.2966516-.3254389-.1582805-.7061267-.3230769-1.0613213-.1531221z" fill="#717d90"/><path d="m46.5154751 25.1647059c.2457014-.1121267.5397285-.0076018.7276018.1699547.3152036.2489593.601629.679819.439276 1.0919457-.1156561.5709503-.7248868 1.020543-1.3053393.8864254-.4368326-.0909503-.7943892-.5329412-.7297738-.9857919.0152036-.5199095.3906788-.979819.8682353-1.1625339z" fill="#f2f3f3"/><path d="m12.1027873 25.3533937c.3551946-.1699548.7358824-.0051584 1.0613213.1531221.403629.2752942.57019.8666064.3152579 1.2966516-.3373303.4859729-1.0383801.6252489-1.559267.3711312-.2778733-.1042534-.5506425-.3464253-.5192036-.6703167-.0382262-.4851584.2294389-.9866063.7018914-1.1505882z" fill="#f3f3f3"/><path d="m13.7953032 37.7636199c-.075638-.1631674-.5662263-1.0316742-.5636842-1.2154751.7175665.338009 1.3676299.338009 1.8206163.2853394.2302805.8777375.6313575 1.6968325 1.0179909 2.5134841 1.3986788 2.8422625 3.4074571 5.381267 5.8368598 7.4123077.237095.1946607.5064706.3510407.7214389.5717647.0501448.1316742.0017104.2771946.0042624.4148417-.0645882.6806334.0254932 1.3620814-.0187059 2.0435294-.0203891.7843439.0679819 1.6137556-.2914479 2.3427149-.2948688.8038914-.8650588 1.4725792-1.5439819 1.9824434-.0467511 0-.1393575.0008145-.1861086.001629-.1427511-.2896833-.3551946-.7452489-.4163892-1.0547511-.2642714-1.3360181-2.6853122-8.5346607-4.5756108-11.9462444-.8803439-1.2491403-1.2223168-1.9316742-1.8052398-3.3515837z" fill="#3e444d"/><path d="m45.1577376 36.7501357c.2693212.0730317.8152941.1316743 1.0973755.1292308-.3195475 1.4326697-.8636199 2.8104978-1.5800905 4.098733-.6032579 1.0723982-1.1334841 2.1724887-1.8236199 3.1903168-1.0077828 1.538009-1.9156561 3.0285068-2.6334841 4.7247964-.5592761 1.3110407-.5329412 4.0927602-1.9422625 4.518733-.6738461-.8209955-1.0656109-1.878733-1.0425339-2.9435294-.001086-.7911312.0032579-1.5830769.0100452-2.3742082.0154751-.1216289-.0331222-.2720362.0475113-.3730316 3.7066969-2.6850679 6.5237104-6.5932127 7.8670589-10.9710408z" fill="#3e444d"/></g></svg>