<svg height="95" viewBox="0 0 70 95" width="70" xmlns="http://www.w3.org/2000/svg"><g fill="none" fill-rule="evenodd"><path d="m28.9163177.43111913c3.8209386-.77581227 8.3125632-.45209386 12.0450541.55115524 5.2285199 1.49855595 10.1032491 4.47039711 13.5906138 8.67292419 2.6938628 3.28014444 4.3364621 7.36137184 4.8797834 11.56137184.8617328 6.7801444-.1617329 13.7093863-2.2263538 20.1913357-.3083033-.0960288-.166787-.5888086-.5129964-.6393501-.7151625 3.7577617-2.6433213 7.169314-4.9960289 10.1411552-.3866426.4700361-1.0555596 1.3080144-1.6140433 1.6087365.3891696-1.4176896.7252707-3.0661011 1.0285198-4.5014802.2501805-1.1447653.1127076-2.9122022 1.4790975-4.0276534.7960289-.9729242.9749458-1.9574729 1.5031047-3.0794946.7555957-1.6249098 1.282491-2.6468592 1.183935-4.4815163-.0530686-1.5465703-.0376534-2.9700722.0053069-4.5141155-.9805054.0050542-1.4798556.3735018-1.7148737 1.4651986-.26787.6949458-.4475451 1.8935379-.9984476 2.4368592-1.2054152-2.1505415-2.6210831-4.6298556-4.0665704-6.6287726-.7581228-1.0790613-2.1108665-2.1222382-3.1975091-2.8222382 1.1346571-1.566787 1.8596751-3.8494946 2.2463177-5.7144766.7126354-3.5.3419134-6.5615523-1.3107942-9.7633574-1.8371841-3.01985557-4.4681227-5.1441155-7.4728159-6.87263536-2.9314079-1.53393502-6.5130325-3.2399639-9.8512996-3.58364621z" fill="#3e444d"/><path d="m26.0971119 1.60393502c.9148015-.83393502 2.1429603-1.1700361 3.3433213-1.32924188 3.3382672.34368231 6.3833935 1.90541516 9.3148015 3.43935018 3.0046931 1.72851986 6.0472924 3.76281589 7.8844765 6.78267148 1.6527076 3.2018051 1.9357401 7.0025271 1.2231047 10.5025271-.3866426 1.8649819-.9567509 4.192166-2.091408 5.758953-.5433213-.2198555-.4275812.2668593-.7055595.5877979-.9729242 1.3418772-2.0724549 2.8288086-1.243574 4.4966787.1718411.467509.1488447.9832852.3004693 1.4634296-2.9382311-.6780145-7.7571119-3.5298195-10.8553069-6.4662816-1.0184115-1.0234657-1.9771841-2.3499278-2.641805-3.6387365-.199639-.3841155-.180686-.5771841-.448556-.9132852-.0932491 2.1540795-.4498195 4.9970397-1.533935 7.0919856-1.3519856-2.564982-2.9930686-5.0862455-3.0600361-8.4649459-.0808664-.5281588-.0525632-.5233574-.1485921-1.043935-.9753754 1.8851986-1.988657 3.5290614-2.7669964 5.5128159-.8819494 2.165704-1.4402057 4.4661011-2.2311805 6.6596029-.1212996-.366426-.3897761-1.1098917-.5009675-1.4763177-.1768953-.5635379-.279722-.6686642-.4389278-1.2322022-.5256317 1.0891697-.6351047 2.0130686-.9509891 3.1755235-.3234657 1.2787004-.9526065 2.1015163-1.533834 3.2639711l-.5426642-.504657c-.1440434-.8263538-.2097473-1.6628159-.3740073-2.4815885-.3158844-.9754512-1.5465703-1.2205776-2.4487364-1.3064982-.1162455.9577618.1566787 1.9054152.0935018 2.8682311.0176895 1.5465704-.1768953 3.1740072.4498195 4.6371841.7827112.9097473 1.187852 2.1977978 1.7160108 3.4891336.3234657.7884476.6064729 1.2835018 1.1472672 1.9430686.5306859 1.7133574.8888231 2.5103971 1.4220361 4.2262816.1288808.3462093.8139458 2.3868231-.2066138 2.6938628-.3740072-.2451264-.6267148-.6166065-.9072202-.9501805-1.5086642-1.8548737-2.9389891-3.8209387-3.8057761-6.064982-1.1675091-2.8581227-1.8119134-5.900722-2.0519856-8.968592-.6772563.1768953-.5509025 1.0942238-1.0209386 1.5162455-.57364624-3.1866426-1.04873649-6.3935019-1.42274371-9.6079423l.04296029-.1137184c.3866426-.8288809.2400722-1.7613718.26281588-2.6433213.01768953-.5685921-.04548736-1.134657-.26534296-1.6602888.18194946-3.1032491.80108303-6.2241877 1.8801444-9.1555957 1.4277978-3.88158842 4.0913357-7.3310469 7.6039711-9.54223824 1.4606498-.88447653 2.9238267-1.86498195 4.6270758-2.21371841.9375452-.28555957 1.9205777-.26534296 2.8859206-.33104693z" fill="#4c535d"/><path d="m20.9292419 32.1209025c1.1321299-4.0205776 2.3653429-8.1220216 4.8974729-11.5133574.3916968 2.8833935 1.4429603 5.6303249 2.7949458 8.1953069.1819495.26787.2274369.8415162.6620939.765704.5888087-1.6375452.8844765-3.3610109 1.0714802-5.0844766.0480144-.5079422.2097472-.9906137.4498195-1.435379.6646209 1.2888086 1.5971119 2.4184115 2.6155234 3.4418772 3.098195 2.9364621 6.9722022 4.8292419 10.7021661 6.8155235-.1516246-.4801444-.298195-.9527076-.4700361-1.4202166.3259928-1.7411553 1.068953-3.4368231 2.3451263-4.6877257.998195.4548737 1.8144405 1.2205777 2.8353791 1.6350181 1.4454874 1.998917 2.6761733 4.1519856 3.8815884 6.3025271.0353791.0732852.1061372.2198556.1415163.2931408-.0202166.8111913-.1137184 1.6223826-.298195 2.4133574-.1288808.0884476-.2451263.1920577-.368953.2906137-.2097473 1.3064982-.7379062 2.5296029-1.2231047 3.7527076-1.6425993 3.9624548-3.8866426 7.7480144-7.0353791 10.702166-1.5516245-1.8397112-3.8916967-2.7039711-6.1357401-3.3584837-1.033574-.2602888-2.067148-.5685921-3.133574-.6595668-1.3570397.0935018-2.6736462.4927798-3.9750902.866787-1.9913358.6494585-4.0635379 1.4783393-5.4054152 3.166426-3.3787003-3.1790614-5.7263538-7.298195-7.3740072-11.599278-.3891697-.9527076-.5761733-1.9938628-1.1245487-2.8732852-.5129964-.6191336-.3133574-1.4555957-.3057762-2.1884476.1187726.0480144.3563177.1415162.4750902.1895306l.1212997.2906138c.5911841-1.6322383 1.8282635-4.3000722 2.3058809-6.5213719.1086642.0126354.5294981.2769675.6381624.2870758.1111913.366426.2299639.732852.3512635 1.099278.131408.3108303.3386282.5787004.5610109.833935z" fill="#ecf0f4"/><path d="m22.5895307 24.6432852c.7783393-1.9837545 2.0267148-3.7274368 3.0021661-5.6126354.0960288.5205776.1541516 1.0487365.235018 1.5768953-2.53213 3.3913358-3.765343 7.4927798-4.8974729 11.5133574-.2223827-.2552346-.4296029-.5231047-.5610109-.833935.7909748-2.1935018 1.3393502-4.4779783 2.2212997-6.6436823z" fill="#d4dbe1"/><path d="m30.1050542 21.9595307c.26787.3361011.500361.7050541.7 1.0891697-.2400723.4447653-.4018051.9274368-.4498195 1.435379-.1870037 1.7234657-.4826715 3.4469314-1.0714802 5.0844766-.434657.0758122-.4801444-.497834-.6620939-.765704 1.0841156-2.0949459 1.1043322-4.5512636 1.4833936-6.8433213z" fill="#d4dbe1"/><path d="m9.1 22.8465343c.2198556.5256318.28303249 1.0916967.26534296 1.6602888-.02274368.8819495.12382672 1.8144404-.26281588 2.6433213-.09097473-1.432852-.10866426-2.8732852-.00252708-4.3036101z" fill="#575552"/><g fill="#d4dbe1"><path d="m44.8303249 27.1198195c.2779783-.3209386.4851986-.9931408 1.0285199-.7732852 1.0866426.7 2.2162455 1.4075812 2.9743682 2.4866426-1.0209386-.4144404-1.8371841-1.1801444-2.8353791-1.6350181-1.2761733 1.2509026-2.0191335 2.9465704-2.3451263 4.6877257-.8288809-1.6678701.2046931-3.4241877 1.1776173-4.766065z"/><path d="m18.3870036 31.9263177c.3158845-1.1624549.6064982-2.3451264 1.13213-3.434296.1592058.5635379.3209386 1.1321299.4978339 1.6956678-.1086643-.0101083-.3259928-.0303249-.434657-.0429603-.4776174 2.2212997-1.2155235 4.3895307-2.5093863 6.2772564l-.1212997-.2906138c-.0884476-.2375451-.1819494-.4725631-.2830324-.7.5812274-1.1624548 1.3949458-2.2263537 1.7184115-3.5050541z"/><path d="m13.6462094 31.4815523c.9021661.0859206 2.3008267.3151264 2.8062419 1.864982-.6469314-.1137184-1.3452383-.372491-1.9845885-.5291697-.2552346.9046932.0261805 1.9183033-.0395234 2.8406859-.0783394 1.2862816.1406823 2.9907943.1710072 4.2770759-1.2982852-2.353213-1.1215415-4.1267148-1.0024405-5.9416607.0631769-.9628159-.0669422-1.5541516.0493033-2.5119134z"/></g><path d="m53.2429603 32.9548375c.235018-1.0916967 1.4631769-1.4657039 2.4436823-1.4707581-.032852.2021661-.0679783 1.0252347-.1008303 1.2248737-.4851986.2703971-.9984477.4546209-1.4255235.8159927-.7303249.8516246-.4622022 2.1457401-.8614801 3.1338268-.1490975-.2476535-.4023105-.5582311-.442491-1.2299278-.0048015-.0811192-.1061372-.2198556-.1415163-.2931408.5509026-.5433213.2602889-1.4859206.5281589-2.1808665z" fill="#b4c0ca"/><path d="m55.6866426 31.4840794c-.0429603 1.5440433-.1036101 3.0880867-.0505415 4.6346571.0985559 1.834657-.6772563 3.5480144-1.432852 5.1729241-.5281588 1.1220217-.9274368 2.3299639-1.7234657 3.3028881l-.9822744.9994585c.3057762-1.2458484.2797473-2.641805.4743322-3.9002888-.0025271-1.0184115.5256317-2.5753429.2173285-3.5609025.1238267-.098556.2400722-.2021661.368953-.2906137.1844766-.7909748.2779784-1.6021661.298195-2.4133574.1314079.2476534.2729242.4953068.4220217.7429603.3992779-.9880867.0985559-2.2036102.8288808-3.0552347.4270758-.3613718.9628159-.5584838 1.4480145-.8288809.0328519-.199639.0985559-.601444.1314079-.8036101z" fill="#d4dbe1"/><path d="m14.166787 32.371083c.6393502.1566787 1.2812274.3032491 1.9281588.4169675.16426.8187726.2299639 1.6552347.3740073 2.4815885l.199639.1617328c.101083.2274369.1945848.4624549.2830324.7-.1187725-.0480144-.3563176-.1415162-.4750902-.1895306-.0075812.7328519-.2072202 1.569314.3057762 2.1884476.1819494 1.7689531.0707581 3.5555957.3032491 5.3220217.0707581.5129964.0732852 1.0361011.0631769 1.5592057-.5407943-.6595667-1.0057762-1.3797833-1.3292419-2.168231-.5281589-1.2913357-1.2129964-2.5194946-1.6299639-3.8563177-.0303249-1.2862816-.0884477-2.5750902-.0101083-3.8613718.065704-.9223827-.2678701-1.8498195-.0126354-2.7545127z" fill="#d4dbe1"/><path d="m23.1050542 60.5959928c.4220216.5407942.9072202 1.0259928 1.3848375 1.5187725.4826715 1.0209387 2.3749458 2.0312636 3.2316245 2.711047 2.2301444 1.2016245 3.8194224 1.9094585 6.3818773 2.2683032 2.2718412.3057762 4.745343-.7528159 6.8225993-1.591805.8617328-.4371841 2.2473285.5016245 2.4343321 1.4492779.2729242 1.197834.3972563 2.5630109.8445487 3.7178845-.2122743.0859206-.9615523.7530686-1.1738267.8389892-2.901083 1.0361011-5.9330686 2.4514657-9.0994946 2.160852-4.8772563-.3887906-9.6032671-2.3945812-11.4279422-4.2437184.5407942-2.9111914.533213-5.8805054.6014441-8.8296029z" fill="#ecf0f4"/><path d="m16.7823105 38.1302888c.5483754.8794224.735379 1.9205776 1.1245487 2.8732852 1.6476534 4.301083 3.9953069 8.4202166 7.3740072 11.599278 1.3418773-1.6880867 3.4140794-2.5169675 5.4054152-3.166426 1.301444-.3740072 2.6180505-.7732852 3.9750902-.866787 1.066426.0909747 2.1.399278 3.133574.6595668 2.2440434.6545126 4.5841156 1.5187725 6.1357401 3.3584837 3.1487365-2.9541516 5.3927798-6.7397112 7.0353791-10.702166.4851985-1.2231047 1.0133574-2.4462094 1.2231047-3.7527076.3083032.9855596.1238267 2.0444043.1263538 3.0628159-.1945849 1.2584837.0075812 2.5498195-.298195 3.7956678l.4624549-.3967509c-.8263538.932491-.7454874 2.2288809-.9956679 3.3736462-.3032491 1.4353791-.6545126 2.8606499-1.0436823 4.2783394-1.0209386 2.9794224-2.4158845 5.8628159-4.4299639 8.3064982-2.4123466 3.6263538-6.3181949 5.7670397-10.386787 6.378592-1.4202166.3234658-3.1800722-.1647653-4.5497473-.5236101-2.5877256-.7480144-4.7883032-2.4843682-6.5775234-4.3303971-.4776174-.4927798-.9693358-.9408303-1.3913574-1.4816245-2.1555957-2.6509025-3.5606499-5.8198556-4.5765343-9.0570397-.0631769-.0505415-.1945849-.1516246-.2602889-.199639.0505416-.3613719.0783394-.7303249-.0505415-1.0765343-.533213-1.7158845-.5382671-3.5379062-1.068953-5.2512636.0101083-.5231046.0075812-1.0462093-.0631769-1.5592057-.232491-1.766426-.1212997-3.5530686-.3032491-5.3220217" fill="#4c535d"/><path d="m31.0425993 53.9902166c1.6931408-.2476534 3.401444-.8541516 5.1223826-.500361 1.2509026.2198556 2.5093863.4169675 3.7501806.6949458.0530685.1592058.1566787.4776174.2072202.6368231-.5382672.6722022-1.4101083.8440434-2.1960289 1.0689531-2.5725632.7379062-5.3725632.6090253-7.8743682-.333574-.3184116-.0808664-.5635379-.3032491-.8061372-.5028881.4776173-.5382671 1.0462094-1.0158845 1.7967509-1.0638989z" fill="#e6e6e6"/><path d="m30.0974729 53.1764982c1.9787004-.3436823 3.997834-.9501805 6.0144405-.5458484 1.0285198.1617329 2.0519855.3436823 3.0703971.566065.7404332.1187726 1.1649819.9299639.9400722 1.6249097-.0505415-.1592057-.1541517-.4776173-.2072202-.6368231-1.2407943-.2779783-2.499278-.4750902-3.7501806-.6949458-1.7209386-.3537906-3.4292418.2527076-5.1223826.500361-.7505415.0480144-1.3191336.5256318-1.7967509 1.0638989-.6166065-.7050541-.0277979-1.801805.8516245-1.8776173z" fill="#b4c0ca"/><path d="m35.6115523 66.5624188c4.0685921-.6115524 7.7555957-2.8960289 10.398917-6.0093863.2046932 2.865704.1162455 5.7718411.6368231 8.6148014.0682311.0480145.2021661.1389892.2678701.1844766-1.1245488.500361-2.2490975 1.000722-3.3812275 1.4833935-.4472924-1.1548737-.6090253-2.3855596-.8819494-3.5833935-.1870037-.9476535-1.3595668-1.5263538-2.2212997-1.0891697-2.0772563.8389892-4.3036101 1.6072202-6.5754512 1.301444-2.5624549-.3588447-5.0086643-1.4505415-7.0581228-3.0173285-.8566787-.6797834-1.8245487-1.3115523-2.3072202-2.332491 2.0292419 1.731047 4.3061372 3.2397112 6.8938628 3.9877257 1.3696751.3588447 2.8075812.7833935 4.2277978.4599278z" fill="#d4dbe1"/><path d="m16.6458484 67.9624188c.2223826-.5736462.801083-1.2054152 1.4732852-.8844766 1.4732852.7581228 2.8859206 1.6375452 4.3844765 2.3476535 3.6642599 1.6299639 7.3740072 3.401444 11.399639 3.8916967 3.166426.2906137 6.0953069-1.1877256 8.9963899-2.2238267 2.0560289.0866029 2.2091697.6847112 2.552852 1.5312816.3361011 1.0866426 1.1419855 2.0712671 1.8470397 3.0189206.8440433 1.3166065 1.507148 1.535148 3.0537184 1.5781083.8541516.0859206 1.8111552.0908231 2.5440072.6417256.2476534.6039711.6620939 1.2633863.7783394 1.9027365 1.7108303.7454873 2.4391335 2.3203104 4.1019494 3.1315018 1.0714802.7 3.7228881.882 2.3466426 2.8704548-1.068953.4220217-2.3476534.2931408-3.5025271.4851986-2.0368231.0833935-3.800722 1.1978339-5.4736462 2.2516246-4.8848375 3.1259927-11.2707581 2.4841155-15.9837545 5.9765342-2.9718411-1.6274368-6.2797834-2.4992779-9.5978339-3.0628158-2.1606498-.3588448-4.3592058-.8819495-6.1938628-2.1353791-1.3797834-.9375451-2.8126354-1.8498195-4.4350181-2.3021661-1.8851985-.6039711-3.8815884-.2779783-5.81732849-.4472924-1.63249098-.2880866-2.4032491-1.9054151-3.37111914-3.0577617-1.37472924-1.7133574-3.66173285-2.2465704-5.74909747-2.400722.56606498-.4270758 1.34693141-.4220217 1.9433213-.8263538 1.08411552-.7 2.49169675-.4801444 3.54043321-1.2382672 2.88844766-1.5592058 6.05487369-2.567509 8.85740069-4.2909747.8440434-.5357401 1.7916968-1.0967509 2.2086643-2.0494585.5357401-1.501083.4851986-3.1790614.0960289-4.7079422z" fill="#464d58"/><path d="m50.8194946 67.2068231c.6722022-.5281588 1.8043321.1440433 1.6223827.9956679-.2527076 1.5490974-.3588448 3.2144404.2931408 4.6877256.4194945.7176895 1.1144404 1.2180505 1.7916967 1.6779783 3.1891697 2.0696751 6.8635379 3.2194946 10.2220217 4.9379062 1.8523465.1086642 3.3054151 1.4126354 5.1148014 1.7083032-1.6122744.0884477-3.1588448.7075813-4.4906137 1.5971119-1.6577617 1.0841156-3.133574 2.5877257-5.1375451 3.0097473l-.1111914-.0530686c-1.1194946-.5963898-2.4411552-.6620938-3.5126354-1.3620938-1.6628158-.8111914-2.4790613-2.6711192-4.1898917-3.4166065-.1162454-.6393502-.0657039-1.3216607-.3133574-1.9256318-.7328519-.5509025-1.7057761-.3891697-2.5599277-.4750902-1.5465704-.0429603-3.0906138-.8137184-3.9346571-2.1303249-.7050541-.9476535-.7050541-2.1707582-1.0411552-3.2574008-.3436823-.8465704-1.0462094-1.4707581-1.6729242-2.1075812.2122744-.0859206.4220216-.1718412.634296-.2577617 1.13213-.4826715 2.2566787-.9830325 3.3812275-1.4833935 1.3115523-.697473 2.6205776-1.3949459 3.9043321-2.1454874z" fill="#717d90"/></g></svg>