<?xml version="1.0" encoding="UTF-8"?>
<svg width="147px" height="45px" viewBox="0 0 147 45" version="1.1" xmlns="http://www.w3.org/2000/svg" xmlns:xlink="http://www.w3.org/1999/xlink">
    <title>Group 2 Copy 3</title>
    <g id="Home-Page-1" stroke="none" stroke-width="1" fill="none" fill-rule="evenodd">
        <g id="Artboard-Copy-12" transform="translate(-158.000000, -111.000000)">
            <g id="Hedar-1" transform="translate(-2.000000, -1.000000)">
                <g id="Hedar" transform="translate(0.000000, 39.000000)">
                    <g id="Group-2-Copy-3" transform="translate(160.000000, 73.000000)">
                        <path d="M62.104,23 L62.104,13.481 L62.142,13.481 L65.467,23 L67.766,23 L71.091,13.386 L71.129,13.386 L71.129,23 L73.922,23 L73.922,9.434 L69.723,9.434 L66.721,18.763 L66.683,18.763 L63.51,9.434 L59.311,9.434 L59.311,23 L62.104,23 Z M88.842,23 L88.842,20.492 L81.527,20.492 L81.527,17.167 L88.101,17.167 L88.101,14.849 L81.527,14.849 L81.527,11.942 L88.69,11.942 L88.69,9.434 L78.544,9.434 L78.544,23 L88.842,23 Z M103.42,23 L103.42,20.492 L95.953,20.492 L103.23,11.79 L103.23,9.434 L92.552,9.434 L92.552,11.942 L99.259,11.942 L91.982,20.644 L91.982,23 L103.42,23 Z M108.745,23 L109.809,19.979 L114.882,19.979 L115.908,23 L119.005,23 L113.932,9.434 L110.873,9.434 L105.724,23 L108.745,23 Z M114.103,17.756 L110.588,17.756 L112.355,12.778 L112.393,12.778 L114.103,17.756 Z" id="MEZA" fill="#0F3B4E" fill-rule="nonzero"></path>
                        <path d="M61.6953125,36.1074219 C62.547526,36.1074219 63.2305501,35.8827311 63.7443848,35.4333496 C64.2582194,34.9839681 64.5634766,34.3457031 64.6601562,33.5185547 L64.6601562,33.5185547 L63.6235352,33.5185547 C63.5232747,34.1630859 63.3200684,34.615153 63.013916,34.8747559 C62.7077637,35.1343587 62.2682292,35.2641602 61.6953125,35.2641602 C61.0579427,35.2641602 60.5620117,35.0135091 60.2075195,34.512207 C59.8530273,34.0109049 59.6757812,33.3359375 59.6757812,32.4873047 L59.6757812,32.4873047 L59.6757812,31.7299805 C59.6757812,30.8312174 59.8628743,30.1383464 60.2370605,29.6513672 C60.6112467,29.164388 61.1277669,28.9208984 61.7866211,28.9208984 C62.3237305,28.9208984 62.7417806,29.0605469 63.0407715,29.3398438 C63.3397624,29.6191406 63.5340169,30.0703125 63.6235352,30.6933594 L63.6235352,30.6933594 L64.6601562,30.6933594 C64.5777995,29.8733724 64.2859701,29.2315267 63.784668,28.7678223 C63.2833659,28.3041178 62.6173503,28.0722656 61.7866211,28.0722656 C61.1599935,28.0722656 60.6085612,28.2199707 60.1323242,28.5153809 C59.6560872,28.810791 59.2881673,29.2342122 59.0285645,29.7856445 C58.7689616,30.3370768 58.6391602,30.976237 58.6391602,31.703125 L58.6391602,31.703125 L58.6391602,32.4550781 C58.6391602,33.5651042 58.9175618,34.4513346 59.4743652,35.1137695 C60.0311686,35.7762044 60.7714844,36.1074219 61.6953125,36.1074219 Z M71.5100586,36 L71.5100586,35.1567383 L67.8040039,35.1567383 L67.8040039,28.1796875 L66.7673828,28.1796875 L66.7673828,36 L71.5100586,36 Z M73.7945313,36 L74.5303711,33.9589844 L77.8067383,33.9589844 L78.5533203,36 L79.6114258,36 L76.6197266,28.1796875 L75.7173828,28.1796875 L72.7310547,36 L73.7945313,36 Z M77.5005859,33.1103516 L74.8418945,33.1103516 L76.1685547,29.4526367 L77.5005859,33.1103516 Z M83.8456055,36.1074219 C84.6727539,36.1074219 85.3333984,35.916748 85.8275391,35.5354004 C86.3216797,35.1540527 86.56875,34.6464844 86.56875,34.0126953 C86.56875,33.6152344 86.480127,33.269694 86.3028809,32.9760742 C86.1256348,32.6824544 85.8534993,32.4255371 85.4864746,32.2053223 C85.1194499,31.9851074 84.6109863,31.7836914 83.961084,31.6010742 C83.3111816,31.418457 82.8510579,31.217041 82.5807129,30.9968262 C82.3103678,30.7766113 82.1751953,30.5071615 82.1751953,30.1884766 C82.1751953,29.7910156 82.3175293,29.4803874 82.6021973,29.2565918 C82.8868652,29.0327962 83.283431,28.9208984 83.7918945,28.9208984 C84.3397461,28.9208984 84.7640625,29.056071 85.0648437,29.326416 C85.365625,29.5967611 85.5160156,29.9682617 85.5160156,30.440918 L85.5160156,30.440918 L86.5526367,30.440918 C86.5526367,30.0076497 86.4371582,29.6083984 86.2062012,29.2431641 C85.9752441,28.8779297 85.6493978,28.5914714 85.2286621,28.3837891 C84.8079264,28.1761068 84.3290039,28.0722656 83.7918945,28.0722656 C83.0041341,28.0722656 82.3640788,28.2736816 81.8717285,28.6765137 C81.3793783,29.0793457 81.1332031,29.5887044 81.1332031,30.2045898 C81.1332031,30.7488607 81.3346191,31.2062988 81.7374512,31.5769043 C82.1402832,31.9475098 82.7839193,32.2599284 83.6683594,32.5141602 C84.373763,32.7182617 84.8607422,32.9250488 85.1292969,33.1345215 C85.3978516,33.3439941 85.5321289,33.6402995 85.5321289,34.0234375 C85.5321289,34.4065755 85.3871094,34.7091471 85.0970703,34.9311523 C84.8070312,35.1531576 84.3898763,35.2641602 83.8456055,35.2641602 C83.2619466,35.2641602 82.7955566,35.1271973 82.4464355,34.8532715 C82.0973145,34.5793457 81.9227539,34.2060547 81.9227539,33.7333984 L81.9227539,33.7333984 L80.8861328,33.7333984 C80.8861328,34.188151 81.0123535,34.5945638 81.2647949,34.9526367 C81.5172363,35.3107096 81.8762044,35.5926921 82.3416992,35.798584 C82.807194,36.0044759 83.3084961,36.1074219 83.8456055,36.1074219 Z M91.0714844,36.1074219 C91.8986328,36.1074219 92.5592773,35.916748 93.053418,35.5354004 C93.5475586,35.1540527 93.7946289,34.6464844 93.7946289,34.0126953 C93.7946289,33.6152344 93.7060059,33.269694 93.5287598,32.9760742 C93.3515137,32.6824544 93.0793783,32.4255371 92.7123535,32.2053223 C92.3453288,31.9851074 91.8368652,31.7836914 91.1869629,31.6010742 C90.5370605,31.418457 90.0769368,31.217041 89.8065918,30.9968262 C89.5362467,30.7766113 89.4010742,30.5071615 89.4010742,30.1884766 C89.4010742,29.7910156 89.5434082,29.4803874 89.8280762,29.2565918 C90.1127441,29.0327962 90.5093099,28.9208984 91.0177734,28.9208984 C91.565625,28.9208984 91.9899414,29.056071 92.2907227,29.326416 C92.5915039,29.5967611 92.7418945,29.9682617 92.7418945,30.440918 L92.7418945,30.440918 L93.7785156,30.440918 C93.7785156,30.0076497 93.6630371,29.6083984 93.4320801,29.2431641 C93.201123,28.8779297 92.8752767,28.5914714 92.454541,28.3837891 C92.0338053,28.1761068 91.5548828,28.0722656 91.0177734,28.0722656 C90.230013,28.0722656 89.5899577,28.2736816 89.0976074,28.6765137 C88.6052572,29.0793457 88.359082,29.5887044 88.359082,30.2045898 C88.359082,30.7488607 88.560498,31.2062988 88.9633301,31.5769043 C89.3661621,31.9475098 90.0097982,32.2599284 90.8942383,32.5141602 C91.5996419,32.7182617 92.0866211,32.9250488 92.3551758,33.1345215 C92.6237305,33.3439941 92.7580078,33.6402995 92.7580078,34.0234375 C92.7580078,34.4065755 92.6129883,34.7091471 92.3229492,34.9311523 C92.0329102,35.1531576 91.6157552,35.2641602 91.0714844,35.2641602 C90.4878255,35.2641602 90.0214355,35.1271973 89.6723145,34.8532715 C89.3231934,34.5793457 89.1486328,34.2060547 89.1486328,33.7333984 L89.1486328,33.7333984 L88.1120117,33.7333984 C88.1120117,34.188151 88.2382324,34.5945638 88.4906738,34.9526367 C88.7431152,35.3107096 89.1020833,35.5926921 89.5675781,35.798584 C90.0330729,36.0044759 90.534375,36.1074219 91.0714844,36.1074219 Z M96.9223633,36 L96.9223633,28.1796875 L95.8911133,28.1796875 L95.8911133,36 L96.9223633,36 Z M102.295215,36.1074219 C103.147428,36.1074219 103.830452,35.8827311 104.344287,35.4333496 C104.858122,34.9839681 105.163379,34.3457031 105.260059,33.5185547 L105.260059,33.5185547 L104.223438,33.5185547 C104.123177,34.1630859 103.919971,34.615153 103.613818,34.8747559 C103.307666,35.1343587 102.868132,35.2641602 102.295215,35.2641602 C101.657845,35.2641602 101.161914,35.0135091 100.807422,34.512207 C100.45293,34.0109049 100.275684,33.3359375 100.275684,32.4873047 L100.275684,32.4873047 L100.275684,31.7299805 C100.275684,30.8312174 100.462777,30.1383464 100.836963,29.6513672 C101.211149,29.164388 101.727669,28.9208984 102.386523,28.9208984 C102.923633,28.9208984 103.341683,29.0605469 103.640674,29.3398438 C103.939665,29.6191406 104.133919,30.0703125 104.223438,30.6933594 L104.223438,30.6933594 L105.260059,30.6933594 C105.177702,29.8733724 104.885872,29.2315267 104.38457,28.7678223 C103.883268,28.3041178 103.217253,28.0722656 102.386523,28.0722656 C101.759896,28.0722656 101.208464,28.2199707 100.732227,28.5153809 C100.25599,28.810791 99.8880697,29.2342122 99.6284668,29.7856445 C99.3688639,30.3370768 99.2390625,30.976237 99.2390625,31.703125 L99.2390625,31.703125 L99.2390625,32.4550781 C99.2390625,33.5651042 99.5174642,34.4513346 100.074268,35.1137695 C100.631071,35.7762044 101.371387,36.1074219 102.295215,36.1074219 Z M113.271875,36.1074219 C114.099023,36.1074219 114.759668,35.916748 115.253809,35.5354004 C115.747949,35.1540527 115.99502,34.6464844 115.99502,34.0126953 C115.99502,33.6152344 115.906396,33.269694 115.72915,32.9760742 C115.551904,32.6824544 115.279769,32.4255371 114.912744,32.2053223 C114.545719,31.9851074 114.037256,31.7836914 113.387354,31.6010742 C112.737451,31.418457 112.277327,31.217041 112.006982,30.9968262 C111.736637,30.7766113 111.601465,30.5071615 111.601465,30.1884766 C111.601465,29.7910156 111.743799,29.4803874 112.028467,29.2565918 C112.313135,29.0327962 112.709701,28.9208984 113.218164,28.9208984 C113.766016,28.9208984 114.190332,29.056071 114.491113,29.326416 C114.791895,29.5967611 114.942285,29.9682617 114.942285,30.440918 L114.942285,30.440918 L115.978906,30.440918 C115.978906,30.0076497 115.863428,29.6083984 115.632471,29.2431641 C115.401514,28.8779297 115.075667,28.5914714 114.654932,28.3837891 C114.234196,28.1761068 113.755273,28.0722656 113.218164,28.0722656 C112.430404,28.0722656 111.790348,28.2736816 111.297998,28.6765137 C110.805648,29.0793457 110.559473,29.5887044 110.559473,30.2045898 C110.559473,30.7488607 110.760889,31.2062988 111.163721,31.5769043 C111.566553,31.9475098 112.210189,32.2599284 113.094629,32.5141602 C113.800033,32.7182617 114.287012,32.9250488 114.555566,33.1345215 C114.824121,33.3439941 114.958398,33.6402995 114.958398,34.0234375 C114.958398,34.4065755 114.813379,34.7091471 114.52334,34.9311523 C114.233301,35.1531576 113.816146,35.2641602 113.271875,35.2641602 C112.688216,35.2641602 112.221826,35.1271973 111.872705,34.8532715 C111.523584,34.5793457 111.349023,34.2060547 111.349023,33.7333984 L111.349023,33.7333984 L110.312402,33.7333984 C110.312402,34.188151 110.438623,34.5945638 110.691064,34.9526367 C110.943506,35.3107096 111.302474,35.5926921 111.767969,35.798584 C112.233464,36.0044759 112.734766,36.1074219 113.271875,36.1074219 Z M120.905957,36 L120.905957,29.0283203 L123.419629,29.0283203 L123.419629,28.1796875 L117.371777,28.1796875 L117.371777,29.0283203 L119.880078,29.0283203 L119.880078,36 L120.905957,36 Z M128.008301,36.1074219 C128.638509,36.1074219 129.189941,35.9570312 129.662598,35.65625 C130.135254,35.3554688 130.500488,34.919515 130.758301,34.3483887 C131.016113,33.7772624 131.14502,33.1085612 131.14502,32.3422852 L131.14502,32.3422852 L131.14502,31.8481445 C131.14502,31.0854492 131.016113,30.416748 130.758301,29.842041 C130.500488,29.267334 130.132568,28.8286947 129.654541,28.526123 C129.176514,28.2235514 128.624186,28.0722656 127.997559,28.0722656 C127.381673,28.0722656 126.834717,28.2253418 126.356689,28.5314941 C125.878662,28.8376465 125.508952,29.2789714 125.247559,29.8554688 C124.986165,30.4319661 124.855469,31.0961914 124.855469,31.8481445 L124.855469,31.8481445 L124.855469,32.4121094 C124.86263,33.1497396 124.997803,33.7987467 125.260986,34.3591309 C125.52417,34.919515 125.89388,35.3509928 126.370117,35.6535645 C126.846354,35.9561361 127.392415,36.1074219 128.008301,36.1074219 Z M128.008301,35.2319336 C127.345866,35.2319336 126.825765,34.9750163 126.447998,34.4611816 C126.070231,33.947347 125.881348,33.2410482 125.881348,32.3422852 L125.881348,32.3422852 L125.881348,31.7675781 C125.89209,30.8867188 126.084554,30.1983236 126.45874,29.7023926 C126.832926,29.2064616 127.345866,28.9584961 127.997559,28.9584961 C128.667155,28.9584961 129.188151,29.2064616 129.560547,29.7023926 C129.932943,30.1983236 130.119141,30.9099935 130.119141,31.8374023 L130.119141,31.8374023 L130.119141,32.4174805 C130.108398,33.3234049 129.92041,34.0189616 129.555176,34.5041504 C129.189941,34.9893392 128.674316,35.2319336 128.008301,35.2319336 Z M134.423145,36 L134.423145,32.8364258 L136.260059,32.8364258 L137.957324,36 L139.06377,36 L139.06377,35.9355469 L137.226855,32.6162109 C137.695931,32.4371745 138.062061,32.1668294 138.325244,31.8051758 C138.588428,31.4435221 138.72002,31.0192057 138.72002,30.5322266 C138.72002,29.7659505 138.482796,29.1822917 138.00835,28.78125 C137.533903,28.3802083 136.85625,28.1796875 135.975391,28.1796875 L135.975391,28.1796875 L133.386523,28.1796875 L133.386523,36 L134.423145,36 Z M136.007617,31.9931641 L134.423145,31.9931641 L134.423145,29.0283203 L136.002246,29.0283203 C136.546517,29.031901 136.962777,29.1625977 137.251025,29.4204102 C137.539274,29.6782227 137.683398,30.0488281 137.683398,30.5322266 C137.683398,30.976237 137.532113,31.3307292 137.229541,31.5957031 C136.926969,31.8606771 136.519661,31.9931641 136.007617,31.9931641 L136.007617,31.9931641 Z M145.833105,36 L145.833105,35.1567383 L141.896094,35.1567383 L141.896094,32.3852539 L145.285254,32.3852539 L145.285254,31.5419922 L141.896094,31.5419922 L141.896094,29.0283203 L145.779395,29.0283203 L145.779395,28.1796875 L140.864844,28.1796875 L140.864844,36 L145.833105,36 Z" id="CLASSICSTORE" fill="#647982" fill-rule="nonzero"></path>
                        <g id="Group-6">
                            <path d="M6.95204741,12.0080819 L10.7440733,15.8001078 L7.58405172,18.9601293 L18.328125,29.7042026 L14.5360991,33.4962284 L0,18.9601293 L6.95204741,12.0080819 Z M31.6002155,13.9040948 L36.65625,18.9601293 L25.2801724,30.3362069 L13.9040948,18.9601293 L18.9601293,13.9040948 L25.2801724,20.2241379 L31.6002155,13.9040948 Z M43.6082974,12.0080819 L50.5603448,18.9601293 L43.6082974,25.9121767 L39.8162716,22.1201509 L42.9762931,18.9601293 L39.8162716,15.8001078 L43.6082974,12.0080819 Z M31.6002155,0 L41.7122845,10.112069 L37.9202586,13.9040948 L31.6002155,7.58405172 L25.2485722,13.9040948 L18.9601293,7.58405172 L12.6400862,13.9040948 L8.84806034,10.112069 L18.9601293,0 L25.2801724,6.3200431 L31.6002155,0 Z" id="Combined-Shape" fill="#0F3B4E"></path>
                            <polygon id="Fill-5" fill="#137EB3" points="25.2801724 44.2403017 16.4321121 35.3922414 20.2241379 31.6002155 25.2801724 36.65625 37.9202586 24.0161638 41.7122845 27.8081897"></polygon>
                        </g>
                    </g>
                </g>
            </g>
        </g>
    </g>
</svg>