<svg height="92" viewBox="0 0 55 92" width="55" xmlns="http://www.w3.org/2000/svg"><g fill="none" fill-rule="evenodd"><path d="m3.48291778 78.7145578.14033555-.07106c1.88923778 1.0688822 2.09584223 2.8438911 2.08572223 5.5885378-1.15825112-1.6764489-3.68783556-2.4044045-5.49225112-2.5155778-.08201111-.44836-.27338666-.8985534-.20046888-1.3596978 1.20110222-.4447178 2.33662-1.0425311 3.46666222-1.6422022z" fill="#464d58"/><path d="m25.3528.29357778c.0528-.41555556.7964-.33342222 1.0442667-.10022222-.2605778.02371111-.7836889.0748-1.0442667.10022222z" fill="#a9aba8"/><path d="m26.3970667.19335556c.8768222-.00904445 1.892-.319 2.7284889.03275555l.0638.04913333c2.5845111 1.37108889 4.4464444 2.65222223 5.9756888 4.64273334.2882.37522222.5509778.48791111.3999112 1.1132.4991555.46957778.9440444 5.44060002.8540888 5.28782222-.3918444 3.3063556-1.7406888 6.1986222-3.6253555 8.8669778-1.0572222 1.1792-3.7627333 3.4610889-3.6097111 3.4794222-4.5183111 1.6038-9.2954645 2.2508444-13.9450178 3.3518222-1.3779333.2806222-2.6920422.8311111-3.7601178 1.7604889-.4119133.2752445-.8019733.5815333-1.1974844.8804889.83842-2.8343333-1.20841113 4.1665556-1.11364002 6.2990889-.08382.3661778-.58505334 7.5384222 1.57295112 9.361.8074244 1.6568444 1.3305355 3.454 2.3056489 5.0377555.3244266 4.4471778 5.4565133 10.8963556-.0780756 20.2818.9405 3.5322712-2.4256955 8.0700645-.9566333 9.6721534.4793555 1.9374666-3.0771889 5.0882089-4.38037112 6.5809333-1.01339334-.8985533-1.64765334-2.28558-2.48426445-3.29714.00547556-1.72788-1.75154222-3.1003133-1.52372-4.9502933 0-.4630511.00073334-.9253689.00080667-1.3873934.00002444-.2636088-.00014667-.5271444-.00080667-.79068.09112889-3.5450311 3.72337778-7.0175355 3.28621334-10.5368022.07291777-2.6446444 1.91588222-4.7529778 2.43141555-7.2705111.34764889-1.6974222.19210889-2.9335778.03133778-3.6468667-1.07716889-4.7788888-3.5618-9.1898888-5.73256444-13.5424666-1.70233556-4.0626667-3.10214667-8.3201556-3.28988-12.7529111-.02185334-.5104-.01821112-1.0171334-.10753112-1.5165334-.09660444-.6925111-.10388888-1.3869777-.02185333-2.0814444.04556445-.5030667.12574222-.9988.12757556-1.5035778.02187777-.3644667-.04008889-.7472667.08384444-1.0973111.11300667-.2151111.13669333-.4593111.10205556-.6961778.42103111-3.9096444 2.14526889-7.5841333 4.35976444-10.7973555 2.35849778-3.28068892 5.75955109-5.62295559 9.30458219-7.46557781 3.4703045-1.76977778 7.2340645-3.102 11.1545867-3.26431111.2605778-.02542222.7836889-.07651111 1.0442667-.10022222" fill="#4c535d"/><path d="m29.1255556.22611111c.3209555-.22048889 1.0608888-.32071111 1.2613333.04375556-.2989556.00195555-.8985778.00537777-1.1975333.00537777z" fill="#9a9f9b"/><path d="m29.1893556.27524444c.2989555 0 .8985777-.00342222 1.1975333-.00537777 2.9453111.09117777 6.0949778.65437777 8.4406667 2.5608 3.6290222-1.44711111 6.5469555 2.0724 8.3150222 4.78817777 3.3371555 5.61537776 4.4855555 12.32831116 5.038 18.72933336-.0166222 1.4564 1.1391111 10.5321333-5.0436222 21.0843111-3.0489556 5.2039778-8.0962445 8.7997555-11.1434889 13.9506889-.0674667-.9406222-.1095111-1.8756222-.1476445-2.816.0290889-.3483334.0581778-.6964222.0928889-1.0425556.2204889-.2715778.1987333-.638.0691778-.9423333.1332222-.5414445.4011333-1.0388889.7873555-1.4436889 2.3239334-2.9470222 3.5378445-6.5523333 5.2822-9.8239778 2.6082223-2.5224222 5.2489556-5.7336889 5.0776-9.5631555-.0347111-.4813111-.2532444-1.3525111-.9878-.7766-1.0496444.3590889-1.7878666 1.3068-2.4148666 2.1816666-.3480889.2588667-.2261111-.2605777-.2806222-.4593111.1383555-.8184.2405333-1.6441333.2933333-2.4715778.0601333-.5759111.1293111-1.1464444.1185555-1.7223555.0180889-.2168222.0381334-.4319333.0601334-.6470445.1038889-.8748666.2715778-1.7824888.0418-2.6500222-.3681334-1.8299111-2.0504-3.8834889-3.1112889-5.3596889.9606667-4.2271777 1.3906444-6.0311777 1.1738222-9.7892666.0892222-.9660445.0420445-2.0076223-.1403111-2.7639334 2.6920667.6103778 3.9734444 3.2770223 5.2929556 5.4259334-.6123334-2.4351556-2.0594445-5.0103778-4.5420223-5.8962445-1.6074666-.7091333-3.8091777-.0073333-4.6002 1.5092.5321556-.1513111 1.8296667-1.1002444 2.3364-1.3134.2588667 2.1557556-1.0186 4.2083556-1.9954 6.3008-1.9521333 2.8780889-6.0641777 5.2284222-9.2155555 6.3457778-.1530222-.0183333-.4593111-.0564667-.6142889-.0765111 1.4982-.6871333 2.2892222-2.2237111 3.3464444-3.4029111 1.8846667-2.6683556 3.7382889-5.5427778 4.1301334-8.8488889.3263333.2605778.6196666.5595333.9530889.8127778.0948444-.7198889-.3718-1.3087556-.9313334-1.6913111-.3735111-1.41802227-.4483111-2.91280004-.8328222-4.33620004.0818889-.02175556.2478667-.06746667.3297556-.09117778.8367333.25886666 1.7607333.72355555 2.0650666 1.60942222.0530445.63066667 1.0973111 1.68055556.6306667-.06551111-.1894445-1.7116-2.1252-1.97388889-3.4647556-2.35864445-1.5292444-1.99026666-3.5395555-3.54493333-5.6065777-4.9412z" fill="#3e444d"/><path d="m13.9867933 63.767c-.1494533-4.4762667-.6160489-8.9637778-.9404755-13.4109556 1.4927244 2.2491334 3.0109933 4.4892223 4.4818644 6.7493556.0200445 1.2740444.0802022 2.5480889.1968511 3.8184667-.0692511 1.3669333-.0638 2.7375333-.0036422 4.1064222-.2223711 3.2332422-1.1355178 6.4483955-2.7959311 9.2424933-.6998933.9386667-.1731644 2.2108778-.1458111 3.2698356.0218533.2861466.0656089.8602733.0874867 1.1464444.0692511.0747267.2077777.2259889.2770288.3025489.4939 1.4203933.2136934 3.3259356-.2766133 4.7913311-.3134755 1.8117-1.5842689 3.4090956-3.02236 4.3528711-1.11364 1.6859334-3.69084221.2460578-4.21395332-1.2448822 1.30318222-1.4927244 1.89373555-3.59788 1.41438-5.5353467 1.32322662.8019489 1.14461112-1.6677222 1.52372002-2.5353044-.83842002.0656089-.86210669 1.1610133-1.2831378 1.7224044-.37182444-.4356244-.66708889-.9386666-.82201778-1.4909155 2.07963558-2.6865911 4.37435778-6.1313756 3.43385778-9.6636467 1.4380667-2.5953889 3.2096778-5.1909 3.4028867-8.2437666-.8493711.4045555-.7709778 1.8316222-1.3141334 2.6226444z" fill="#3e444d"/><g fill="#5c646f"><path d="m25.0120444 1.97951111c.4556445-.04375555 1.0953556-.00904444 1.4234.29162222-7.57856.73455556-14.3715488 5.61-18.45606884 11.86728887 2.50611774-1.5255778 5.27107774-2.8196666 8.22738884-3.1022444.9423089-.4793556 1.6987178.7308889.9495934 1.3160889-1.44716.9403777-2.9162222 1.9465111-4.07176 3.2406.6124066-.0420445 1.3924778-.6707556 1.8226266.0327555-.2533422.6179556-.7782622 1.1264-.8912688 1.7898222-.1585712 1.0098 2.07416.1549778 1.1664888 1.5656667-.6306422.8201111 1.7150956 1.4908667-.4173888 1.1591556-1.22298-.2151111 1.2375733-2.3474-.9095045-1.562-1.2211467.2114444-.8147089-1.2302889-.5650089-1.9100889-1.0188444.2552-2.2928889 1.9228-3.2516.6961778-.12029109-1.5891334 1.3305356-2.6390223 2.17624-3.7928-1.6859333.5284888-3.1659222 1.5219111-4.57482664 2.5698444-.55408223.3009111-1.17196445.9860889-1.80441556.5067333-.04920667-.8164444.33171111-1.6111333.74181556-2.2946 4.48005554-6.05317774 10.80644884-11.17844441 18.43428884-12.37402219z"/><path d="m23.9985533 7.01922222c3.3134689-1.58766666 7.1649356-1.88466666 10.79738-1.80277778 1.3395556.38475556 3.2753111.64704445 3.4647556 2.35864445.4666444 1.74606667-.5776222.69617778-.6306667.06551111-.3043333-.88586667-1.2283333-1.35055556-2.0650666-1.60942222-3.8529334-.86386667-7.7899556.29357778-11.5664023.98804444z"/><path d="m31.3328889 11.5793333c1.4527333-.7145111 3.0655778-1.5145777 4.7351333-1.1207777.5595334.3825555 1.0261778.9714222.9313334 1.6913111-.3334223-.2532445-.6267556-.5522-.9530889-.8127778-.6323778-.3901333-1.4872-.3774222-2.1652889-.1222222-3.7583334 1.254-7.1355778 3.4173333-10.7791445 4.9265333 2.5352556-1.8572889 5.4478111-3.1257111 8.2310556-4.5620667z"/><path d="m30.4890667 19.1250889c.3935555.2077778-.4302223 1.1938667-.7729334 1.5967111-1.2884666 1.1537778-2.9252666 1.8937111-4.5838222 2.3493556 1.3395556-1.4872 3.9350667-2.2127112 5.3567556-3.9460667z"/><path d="m38.0585333 12.3322222c.7910223-1.5165333 2.9927334-2.2183333 4.6002-1.5092 2.4825778.8858667 3.9296889 3.4610889 4.5420223 5.8962445-1.3195112-2.1489111-2.6008889-4.8155556-5.2929556-5.4259334-.8091111-.2151111-1.6094222.0564667-2.3329778.3881778-.5067333.2131556-.9841333.4994-1.5162889.6507111z"/><path d="m13.9867933 63.767c.5431556-.7910222.4647623-2.2180889 1.3141334-2.6226444-.1932089 3.0528666-1.96482 5.6483777-3.4028867 8.2437666-.7199378-1.6458689-.03828-3.6416111-.1931844-5.3896333.4337911 1.0809333.3007155 2.2655111.4027955 3.4047689.9532356-.9769467 1.3287022-2.40768 1.8791422-3.6362578z"/><path d="m7.26308 75.3645444c.78554667.6998934.59052889 2.5425889 1.20110222 3.6872245.15492889.5522489.45019334 1.0552911.82201778 1.4909155.42103111-.5613911.44471778-1.6567955 1.2831378-1.7224044-.3791089.8675822-.2004934 3.3372533-1.52372002 2.5353044-1.46906222-1.6021133-1.79529778-3.9022866-1.78253778-5.99104z"/></g><path d="m39.5748222 11.6815111c.7235556-.3317111 1.5238667-.6032889 2.3329778-.3881778.1823556.7563111.7582667 1.7497334.6690444 2.7155334.2168223 3.7583333-.0858 6.9771777-1.2703777 10.4218889l-.0968-.1202667c-1.0863111-1.6803111-2.2872667-3.2990222-3.1584667-5.1069333-.1459333-.3043334-.3062889-.6015778-.4666444-.8968667.9768-2.0924445 1.5529555-4.3650445 1.9902666-6.6251778zm1.2960445 1.0589333c-.4722667.2625334-.8895334.8729112-.2899111 1.2630445.8401555.6780889-1.3158445 1.1246889-.7198889 1.8062.7509333.4793555-.2170667 1.1173555-.3263334 1.7296889 1.1427778.2060666.8531111 2.3439778 2.1980445 2.4478666-.4155556-.9186222-1.3121778-1.7042666-1.4160667-2.6994.6086667-.4209333.9002889-1.1938666.3735111-1.8152444.7145111-.2735333.8748667-1.1975333.3116667-1.7079333-.4299778-.2332.1422667-1.1136889-.1310222-1.0242223z" fill="#4c535d"/><path d="m41.0120712 12.6075432c.3014289-.0986788-.3297384.8724721.1445133 1.1296842.6211915.5629548.4443245 1.5820972-.3437583 1.8837956.581019.6853598.259369 1.5378804-.4119708 2.0021563.5991446 1.3768207 1.5991446 1.3768207 1.5618761 2.9773515-1.4834183-.1145861-1.1639253-2.4726333-2.4243724-2.6999183-.5383591-.9006125 1.1881905-1.3790775.3599352-1.9077912-.8982943-.9928213.4093971-1.993462.1017057-1.9928213-1-1 .4911763-1.102891 1.0120712-1.3924568z" fill="#5c646f"/><path d="m37.5845556 18.3066889c.1603555.2952889.3207111.5925333.4666444.8968667-1.8592444 2.6646888-4.8664 4.0570444-7.8283333 5.1233111-5.1106 2.0105555-10.6678978 2.4114444-15.9080045 3.9514444-1.4909155.3627556-2.4477933 1.6240889-3.7600933 2.3021778.23694-.6252889 1.0206778-1.1119778.9240733-1.8027778 1.0680756-.9293778 2.3821845-1.4798667 3.7601178-1.7604889 4.6495533-1.1009778 9.4267067-1.7480222 13.9450178-3.3518222 3.1513778-1.1173556 6.4484444-2.4806222 8.4005778-5.3587111z" fill="#d4dbe1"/><path d="m30.2228667 24.3268667c2.9619333-1.0662667 5.9690889-2.4586223 7.8283333-5.1233111.8712 1.8079111 3.0892889 4.6116888 4.1756 6.2922444-.1312667 12.1606222-1.6541556 22.5700444-8.1189778 33.1048667-.1967778.2222-.8682666 1.0278889-1.8854 1.8108444-1.6314222 1.2559556-4.0304 3.7001556-6.2174444 3.5378445-3.1696134-.33-5.1820756-2.7192-7.2435-5.0103778-.2460578-.2662-.76054-.7255111-.9197956-1.4417334-.1075311-.1295555-.2132533-.2588666-.3135-.3918444-1.4708711-2.2601333-2.98914-4.5002222-4.4818644-6.7493556-.9751134-1.5837555-1.4982245-3.3809111-2.3056489-5.0377555-.6032889-2.5407556-1.22481334-5.0741778-1.63491779-7.6569778.39186889.2004445 1.09540449.9406222.49030667-.5267778.07289333-2.4385777-1.13187556-5.4149333.68530002-7.4763333.3955111-.2989556.7855711-.6052444 1.1974844-.8804889.0966045.6908-.6871333 1.1774889-.9240733 1.8027778 1.3123-.6780889 2.2691778-1.9394222 3.7600933-2.3021778 5.2401067-1.54 10.7974045-1.9408889 15.9080045-3.9514444z" fill="#ecf0f4"/><path d="m16.1612 24.2850667c1.2776867-.5250667 2.5498733-1.1664889 3.9186889-1.3962667-1.1355178.7054667-2.4222978 1.1173556-3.6543956 1.6184667-.0656089-.0564667-.1986844-.1676889-.2642933-.2222z" fill="#d4dbe1"/><path d="m9.33540667 29.4995556c1.11364003-2.8597556 4.19207553-4.1301334 6.82579333-5.2144889.0656089.0545111.1986844.1657333.2642933.2222-2.52802.9917111-5.3057155 2.3166-6.1441355 5.1509333-1.81717558 2.0614-.61240669 5.0377556-.68530002 7.4763333.60509782 1.4674-.09843778.7272223-.49030667.5267778.41010445 2.5828 1.03162889 5.1162222 1.63491779 7.6569778-2.15800446-1.8225778-3.79656446-4.2577333-4.78260446-6.8987111.00909334-.924-.39734444-2.0831556.45564445-2.7465778.85482222-.0347111 1.55471555.7052222 2.26920222 1.1244444.72905556.9878.64704445-.0618444.48480667-.8401555-.09477111-2.1325333-.63609334-4.4036667.16768889-6.4577333z" fill="#d4dbe1"/><path d="m41.2096667 24.3104889.2170666.0486444c1.0606445 1.4764445 3.2335111 3.6512667 2.5170445 7.4971111-.0396.2126667.1896889 1.4361112-.4688445 4.8820445.1222223 2.9252667-.8399111 5.7312444-1.3974889 8.5763333-1.7443555 3.2716445-2.9582666 6.8769556-5.2822 9.8239778-.3862222.4048-.6541333.9022444-.7873555 1.4436889-.0381333.0437555-.1183111.1329778-.1566889.1767333-.946 1.0572222-1.8208667 2.2381334-3.0621556 2.9653556 6.4650667-10.5348222 8.2896-23.2532667 8.4206223-35.4138889z" fill="#e5e9ed"/><path d="m5.76485556 35.0403778c1.15192-.5412 2.34392888.8621555 2.91805555 1.7570666-.71448667-.4192222-1.41438-1.1591555-2.26920222-1.1244444-.85298889.6634222-.44655111 1.8225778-.45564445 2.7465778-.34449555-1.0298445-.89857777-2.3694-.19320888-3.3792z" fill="#b4c0ca"/><path d="m46.2904444 34.7771111c.7345556-.5759111.9215556.7330889.9560223 1.2141556-1.2975111.2114444-2.2706445 1.2019333-3.5938223 1.3038666.6267556-.8748666 1.5879112-2.1589333 2.6378-2.5180222z" fill="#b4c0ca"/><path d="m43.7523778 37.1565333c1.3231778-.1021777 2.1689555-1.3378444 3.4667111-1.5492889.5668667 3.7952445-2.618 7.8674445-5.1416445 9.7073778.4492889-3.1746 1.5162889-5.6921333 1.3943112-8.6174.0545111.1987334-.0674667.7181778.2806222.4593111z" fill="#d4dbe1"/><path d="m9.16771778 35.9572889c.16223778.7783111.24424889 1.8279555-.48480667.8401555.60876445.3427112.40098667-.4739777.48480667-.8401555z" fill="#9b9998"/><path d="m11.4824844 54.9709111c.8457045 1.4637333-.1093644 3.5798889-.72358 5.1108445-.98423107 3.3427777-1.38885996 7.0335222-.2369644 10.3926533.1549289.42284-.0127356.6707311-.4538356.4848311-1.61668218-2.1616711-1.57840218-5.0469956-.88395996-7.54204.54860667-2.8798 2.30017336-5.4479333 2.29833996-8.4462889z" fill="#5c646f"/><path d="m35.8512 56.7590222c.0383778-.0437555.1185556-.1329778.1566889-.1767333.1295555.3043333.1513111.6707555-.0691778.9423333-.0711333-.2515333-.1002222-.5067333-.0875111-.7656z" fill="#d4dbe1"/><path d="m32.7890444 59.7243778c1.2412889-.7272222 2.1161556-1.9081334 3.0621556-2.9653556-.0127111.2588667.0163778.5140667.0875111.7656-.0347111.3461334-.0638.6942222-.0928889 1.0425556-.1368889 1.0024666-.2207333 2.0266889-.0200444 3.0291555-.2972445 2.8086667.0344666 5.7668111 1.3322222 8.3185178 1.2593778 2.33662 3.6688667 4.0977689 5.7906444 5.59416-.5925333.3718245-1.4182666.6487556-1.7084222 1.4296822-.3136222.8438711-.1926222 2.1832067-1.0093111 2.3372556-.2896667.0546822-.5903333.1130067-.8785333.0218533-.6543778-.5221822-1.4600667-.9450466-1.6514667-1.3842889-5.4442667-4.0244111-5.7886889-10.8559733-5.9199555-17.0693355.1840666-.2334445.8113111-.8973556 1.0080888-1.1198z" fill="#d4dbe1"/><path d="m17.5281822 57.1054c.1002467.1329778.2059689.2622889.3135.3918444.9566089 5.9700667 1.2567867 12.3477934-1.9437733 17.5969934-.8876267 1.0972378-.7628622 2.4647822-.7464356 3.7388022l-.0073089.1585711c-.0692511-.07656-.2077777-.2278222-.2770288-.3025489-.0218778-.2861711-.0656334-.8602978-.0874867-1.1464444-.0273533-1.0589578-.5540822-2.3311689.1458111-3.2698356 1.6604133-2.7940978 2.57356-6.0092511 2.7959311-9.2424933.1257667-1.3615556.2533422-2.7522.0036422-4.1064222-.1166489-1.2703778-.1768066-2.5444223-.1968511-3.8184667z" fill="#b4c0ca"/><path d="m17.8416822 57.4972444c.3353534.1312667.6360934.3370889.8821511.6032889 2.0614245 2.2909334 4.6987845 4.3797111 7.8683 4.7097111 2.1872889.1620667 3.9988667-1.1427777 5.6302889-2.3987333.1310222 6.2135333.6634222 13.6006445 6.1076889 17.6250311.1911556.4392667 1.7179556 1.1687622 1.3481111 1.7392467-1.8739111-.77462-4.9253111-1.0888289-5.5229778 1.3735578-.3828.8493466-.9232666 2.4689866-2.0714222 2.4926733-1.2012-.5795778-2.3701333-1.4085133-3.7280222-.7268556-1.1100222.4137467-.9447778 1.6259956-1.4788889 2.4519489-1.3395555.09086-.8411333-1.7234066-1.5703111-2.1280355-1.1592044-1.4015956-3.0558489-.32692-4.3663156.3073644-1.3414622.1312422-1.5690644-1.7645955-2.0447777-2.6795755-.5722934-1.6841245-2.2383534-1.6736378-3.7256267-1.5752245-.0164022-1.27402-.5980089-3.1962089.2896178-4.2934466 3.20056-5.2492 2.8651822-11.61204 2.3821844-17.5009512z" fill="#e5e9ed"/><path d="m35.8257778 61.5963333c-.2006889-1.0024666-.1168445-2.0266889.0200444-3.0291555.0381334.9403778.0801778 1.8753778.1476445 2.816-.0420445.0545111-.1258889.1603555-.1676889.2131555z" fill="#d4dbe1"/><path d="m17.7250333 60.9238667c.2497 1.3542222.1221245 2.7448666-.0036422 4.1064222-.0601578-1.3688889-.0656089-2.7394889.0036422-4.1064222z" fill="#b4c0ca"/><path d="m8.18167778 67.3576933c.08384444.0018089.25334222.0072845.33718666.0091178.04556445 1.5273622.7491 2.9180311 1.13551778 4.3706911-1.29589778-.80014-1.25945111-2.9563355-1.47270444-4.3798089z" fill="#5c646f"/><path d="m6.5978 73.60936c-.08748667 1.3523889.67073111 4.1428444.51399333 5.5827444-1.17924889-1.4325911-1.11547333-3.82756-.51399333-5.5827444z" fill="#5c646f"/><path d="m42.6897778 75.3846133c1.1317778-.4046289 1.9154666.4848067 2.805.96052 3.0220666 1.8700245 6.2570444 3.3572978 9.4030444 5.0049756-3.3354444-.1585711-6.8723111 1.8259022-9.6281778 3.3988289-2.1124888-1.4034289-3.7671333-3.3122711-5.3638444-5.2679734.9814444-.6825866.8206-1.83656 1.1342222-2.6804555.3392889-.9133422 1.0574667-1.0440956 1.6497556-1.4158956z" fill="#717d90"/><path d="m14.7796489 77.5426178c.0218533.2861466.0656089.8602733.0874867 1.1464444-.0218778-.2861711-.0656334-.8602978-.0874867-1.1464444z" fill="#888a88"/><path d="m15.1514733 78.83304c1.4872734-.0984133 3.4411423.08932 4.0134356 1.77342.4757133.91498.5941955 2.7102778 1.9356578 2.57906 1.3104666-.6342844 3.2916889-1.6093978 4.4509666-.2078022.7289334.4046289.2368667 2.02862 1.1882445 2.0431889.2698666-.9623534.3243778-2.1816911 1.4344-2.5954378 1.3578889-.6816578 2.7084444.1840911 3.9096444.7636933 1.1481556-.0237111 1.3214667-1.42714 1.7042667-2.2764866.5976667-2.4623867 3.6906222-2.3894934 5.5642889-1.6148734.2882.0911534.5888666.0328289.8785333-.0218533 1.5967111 1.9556778 3.4449556 3.7983733 5.5574445 5.2018022-4.1083778 3.5085845-9.2409778 5.9418333-14.6686223 6.3938356-.2952889-.0400889-.5962-.02552-.8714444.0911289-.3571333.11484-.7362667.0874866-1.1026889.0929622-1.3376-.0182356-2.6737333-.0109267-4.0079111 0-.3133778 0-.6250445-.0309956-.9313333-.0874867-.4046289-.1184822-.8092578-.1530955-1.2138867-.1057222-3.8129667-.2897889-7.5840111-1.3323445-11.1472778-2.7266556.8293022-1.5711177 2.3311689-2.8123577 2.6446445-4.6240577.4903066-1.4653956.4665955-3.0091845.6543288-4.5201445z" fill="#464d58"/><path d="m22.9924689 90.8624689c.4046289-.0473733.8092578-.01276 1.2138867.1057222-.3189756.1767822-1.0899534.3135-1.2138867-.1057222z" fill="#9a9c98"/><path d="m30.2482889 90.9627156c.2752444-.1166489.5761555-.1312178.8714444-.0911289-.033.3572311-.6670889.2788622-.8714444.0911289z" fill="#a6a8a6"/><path d="m25.1376889 91.0556778c1.3341778-.0109267 2.6703111-.0182356 4.0079111 0-.8328222.1895422-3.1858444.4702378-4.0079111 0z" fill="#b0b3b0"/></g></svg>